STARTFONT 2.1
COMMENT
COMMENT Converted from OpenType font "ipaexg.ttf" by "otf2bdf 3.0".
COMMENT
FONT -FreeType-IPAexGothic-Medium-R-Normal--28-280-72-72-P-244-ISO10646-1
SIZE 28 72 72
FONTBOUNDINGBOX 35 34 -7 -8
STARTPROPERTIES 19
FOUNDRY "FreeType"
FAMILY_NAME "IPAexGothic"
WEIGHT_NAME "Medium"
SLANT "R"
SETWIDTH_NAME "Normal"
ADD_STYLE_NAME ""
PIXEL_SIZE 28
POINT_SIZE 280
RESOLUTION_X 72
RESOLUTION_Y 72
SPACING "P"
AVERAGE_WIDTH 244
CHARSET_REGISTRY "ISO10646"
CHARSET_ENCODING "1"
FONT_ASCENT 24
FONT_DESCENT 3
COPYRIGHT "Copyright(c) Information-technology Promotion Agency, Japan (IPA), 2003-2019. You must accept "https://opensource.org/licenses/IPA/" to use this product."
_OTF_FONTFILE "ipaexg.ttf"
_OTF_PSNAME "IPAexGothic"
ENDPROPERTIES
CHARS 11691
STARTCHAR 0020
ENCODING 32
SWIDTH 285 0
DWIDTH 8 0
BBX 0 0 0 0
BITMAP
ENDCHAR
STARTCHAR 0021
ENCODING 33
SWIDTH 285 0
DWIDTH 8 0
BBX 3 20 3 0
BITMAP
E0
E0
C0
C0
C0
C0
C0
C0
C0
C0
C0
C0
C0
C0
C0
00
00
E0
E0
E0
ENDCHAR
STARTCHAR 0022
ENCODING 34
SWIDTH 321 0
DWIDTH 9 0
BBX 7 7 1 14
BITMAP
EE
EE
66
66
66
66
66
ENDCHAR
STARTCHAR 0023
ENCODING 35
SWIDTH 642 0
DWIDTH 18 0
BBX 14 21 2 -1
BITMAP
0630
0430
0C30
0C20
0C20
FFFC
0860
0860
1860
1840
1840
FFFC
10C0
30C0
30C0
3080
3080
2180
2180
6180
2080
ENDCHAR
STARTCHAR 0024
ENCODING 36
SWIDTH 642 0
DWIDTH 18 0
BBX 13 24 2 -2
BITMAP
0300
0300
0FC0
3FF0
7878
7018
6000
6000
7000
7800
3E00
0FC0
03E0
00F0
0038
0018
0018
4018
E038
7870
1FE0
0300
0300
0300
ENDCHAR
STARTCHAR 0025
ENCODING 37
SWIDTH 857 0
DWIDTH 24 0
BBX 21 22 1 -1
BITMAP
000040
1E0060
3F00C0
638180
618180
E18300
E18600
E18C00
618C00
639800
3F31E0
1E23F0
006638
00C618
018618
018E18
030618
060618
0C0638
0C03F0
1801E0
100000
ENDCHAR
STARTCHAR 0026
ENCODING 38
SWIDTH 678 0
DWIDTH 19 0
BBX 17 20 2 0
BITMAP
0F8000
1FE000
38E000
307000
307000
307000
386000
1CC000
0F8000
1F0000
3F0300
738700
E1C600
C0EE00
C07C00
C03C00
E03E00
F0FF00
7FE780
1F8100
ENDCHAR
STARTCHAR 0027
ENCODING 39
SWIDTH 178 0
DWIDTH 5 0
BBX 3 7 1 14
BITMAP
E0
E0
60
60
60
60
60
ENDCHAR
STARTCHAR 0028
ENCODING 40
SWIDTH 321 0
DWIDTH 9 0
BBX 6 26 2 -5
BITMAP
0C
0C
18
30
30
70
60
60
60
E0
E0
C0
C0
C0
C0
E0
E0
60
60
60
30
30
18
18
0C
04
ENDCHAR
STARTCHAR 0029
ENCODING 41
SWIDTH 321 0
DWIDTH 9 0
BBX 6 26 1 -5
BITMAP
C0
60
60
30
30
18
18
1C
1C
0C
0C
0C
0C
0C
0C
0C
0C
1C
18
18
38
30
30
60
C0
80
ENDCHAR
STARTCHAR 002A
ENCODING 42
SWIDTH 357 0
DWIDTH 10 0
BBX 8 8 1 12
BITMAP
18
19
FB
3E
3C
FF
59
18
ENDCHAR
STARTCHAR 002B
ENCODING 43
SWIDTH 678 0
DWIDTH 19 0
BBX 15 16 2 1
BITMAP
0100
0100
0100
0100
0100
0100
0100
FFFE
FFFE
0100
0100
0100
0100
0100
0100
0100
ENDCHAR
STARTCHAR 002C
ENCODING 44
SWIDTH 250 0
DWIDTH 7 0
BBX 4 7 1 -4
BITMAP
70
70
60
60
60
C0
C0
ENDCHAR
STARTCHAR 002D
ENCODING 45
SWIDTH 357 0
DWIDTH 10 0
BBX 8 2 1 8
BITMAP
FF
FF
ENDCHAR
STARTCHAR 002E
ENCODING 46
SWIDTH 250 0
DWIDTH 7 0
BBX 3 3 2 0
BITMAP
E0
E0
E0
ENDCHAR
STARTCHAR 002F
ENCODING 47
SWIDTH 500 0
DWIDTH 14 0
BBX 11 24 1 -4
BITMAP
0060
0040
0040
00C0
0080
0180
0180
0100
0300
0200
0600
0600
0400
0C00
0800
0800
1800
1000
3000
3000
2000
6000
4000
C000
ENDCHAR
STARTCHAR 0030
ENCODING 48
SWIDTH 642 0
DWIDTH 18 0
BBX 15 20 1 0
BITMAP
07C0
0FF0
1C38
381C
701C
700E
600E
600E
600E
E006
E006
600E
600E
600E
700E
701C
381C
1C38
1FF0
07C0
ENDCHAR
STARTCHAR 0031
ENCODING 49
SWIDTH 642 0
DWIDTH 18 0
BBX 8 20 3 0
BITMAP
07
3F
FF
E7
07
07
07
07
07
07
07
07
07
07
07
07
07
07
07
07
ENDCHAR
STARTCHAR 0032
ENCODING 50
SWIDTH 642 0
DWIDTH 18 0
BBX 14 20 2 0
BITMAP
0FC0
3FF0
7878
6038
E01C
001C
0018
0038
0030
00E0
01C0
0780
0E00
1C00
3800
7000
6000
C000
FFFC
FFFC
ENDCHAR
STARTCHAR 0033
ENCODING 51
SWIDTH 642 0
DWIDTH 18 0
BBX 14 20 1 0
BITMAP
0FC0
1FF0
3838
701C
001C
001C
001C
0038
01F0
07C0
07F0
0038
001C
000C
000C
000C
E01C
7838
3FF8
0FE0
ENDCHAR
STARTCHAR 0034
ENCODING 52
SWIDTH 642 0
DWIDTH 18 0
BBX 16 20 1 0
BITMAP
0070
0070
00F0
01B0
03B0
0330
0630
0C30
1C30
1830
3030
6030
E030
FFFF
FFFF
0030
0030
0030
0030
0030
ENDCHAR
STARTCHAR 0035
ENCODING 53
SWIDTH 642 0
DWIDTH 18 0
BBX 13 20 3 0
BITMAP
7FF0
7FF0
6000
E000
E000
C000
C000
CF80
DFE0
F0F0
C070
0038
0038
0038
0038
0038
C070
E0F0
7FE0
1F80
ENDCHAR
STARTCHAR 0036
ENCODING 54
SWIDTH 642 0
DWIDTH 18 0
BBX 14 20 2 0
BITMAP
07E0
0FF8
1C3C
3800
7000
6000
6000
E7C0
EFF0
F878
F018
E01C
E00C
E00C
600C
601C
7018
3878
1FF0
07C0
ENDCHAR
STARTCHAR 0037
ENCODING 55
SWIDTH 642 0
DWIDTH 18 0
BBX 14 20 2 0
BITMAP
FFFC
FFFC
0018
0038
0070
0060
00E0
00C0
01C0
0180
0380
0380
0300
0700
0600
0E00
0E00
0C00
1C00
1C00
ENDCHAR
STARTCHAR 0038
ENCODING 56
SWIDTH 642 0
DWIDTH 18 0
BBX 14 20 2 0
BITMAP
0FC0
3FF0
7878
E038
E01C
E018
E018
7038
38F0
1F80
1FE0
78F8
E038
C01C
C00C
C01C
E01C
F038
7FF0
1FC0
ENDCHAR
STARTCHAR 0039
ENCODING 57
SWIDTH 642 0
DWIDTH 18 0
BBX 14 20 2 0
BITMAP
1F80
3FE0
70F0
E030
C038
C018
C018
C018
C03C
E03C
707C
3FD8
1F18
0018
0038
0030
4070
E0E0
7FC0
1F00
ENDCHAR
STARTCHAR 003A
ENCODING 58
SWIDTH 321 0
DWIDTH 9 0
BBX 3 14 3 0
BITMAP
E0
E0
E0
00
00
00
00
00
00
00
00
E0
E0
E0
ENDCHAR
STARTCHAR 003B
ENCODING 59
SWIDTH 321 0
DWIDTH 9 0
BBX 4 18 2 -5
BITMAP
70
70
70
00
00
00
00
00
00
00
00
70
70
60
60
E0
C0
C0
ENDCHAR
STARTCHAR 003C
ENCODING 60
SWIDTH 678 0
DWIDTH 19 0
BBX 15 16 2 1
BITMAP
0002
000E
003C
00F0
03C0
0F00
3800
E000
E000
7800
1E00
0780
00E0
0038
000E
0002
ENDCHAR
STARTCHAR 003D
ENCODING 61
SWIDTH 678 0
DWIDTH 19 0
BBX 15 6 2 6
BITMAP
FFFE
FFFE
0000
0000
FFFE
FFFE
ENDCHAR
STARTCHAR 003E
ENCODING 62
SWIDTH 678 0
DWIDTH 19 0
BBX 15 16 2 1
BITMAP
8000
E000
7800
1E00
0780
01E0
0038
000E
000E
003C
00F0
03C0
0E00
3800
E000
8000
ENDCHAR
STARTCHAR 003F
ENCODING 63
SWIDTH 535 0
DWIDTH 15 0
BBX 13 20 1 0
BITMAP
0F80
3FE0
7070
E030
C038
0038
0038
0070
00E0
01C0
0380
0300
0700
0600
0600
0000
0000
0700
0700
0700
ENDCHAR
STARTCHAR 0040
ENCODING 64
SWIDTH 892 0
DWIDTH 25 0
BBX 21 20 2 0
BITMAP
01FC00
07FF80
0F03C0
1C78E0
38FD70
71C730
638710
630318
C70218
C60618
C60618
C60630
C60C30
631E60
63F7C0
31E780
380000
1F01E0
07FFC0
01FE00
ENDCHAR
STARTCHAR 0041
ENCODING 65
SWIDTH 642 0
DWIDTH 18 0
BBX 18 20 0 0
BITMAP
00C000
01E000
01E000
03E000
037000
033000
073800
063800
0E1800
0C1C00
0C0C00
1C0C00
1FFE00
1FFE00
380700
300700
700300
700380
600180
E001C0
ENDCHAR
STARTCHAR 0042
ENCODING 66
SWIDTH 642 0
DWIDTH 18 0
BBX 14 20 3 0
BITMAP
FF80
FFE0
C070
C038
C038
C038
C038
C0F0
FFE0
FFC0
C0F0
C038
C018
C01C
C01C
C01C
C038
C078
FFF0
FFC0
ENDCHAR
STARTCHAR 0043
ENCODING 67
SWIDTH 714 0
DWIDTH 20 0
BBX 17 20 2 0
BITMAP
03F800
0FFE00
1E0F00
380380
700300
600000
E00000
E00000
C00000
C00000
C00000
C00000
E00000
E00000
E00000
700380
380700
1E0F00
0FFC00
03F000
ENDCHAR
STARTCHAR 0044
ENCODING 68
SWIDTH 750 0
DWIDTH 21 0
BBX 16 20 3 0
BITMAP
FFC0
FFF0
C07C
C01C
C00E
C007
C007
C003
C003
C003
C003
C003
C003
C007
C007
C00E
C01C
C078
FFF0
FFC0
ENDCHAR
STARTCHAR 0045
ENCODING 69
SWIDTH 607 0
DWIDTH 17 0
BBX 13 20 3 0
BITMAP
FFF0
FFF0
C000
C000
C000
C000
C000
C000
FFE0
FFE0
C000
C000
C000
C000
C000
C000
C000
C000
FFF8
FFF8
ENDCHAR
STARTCHAR 0046
ENCODING 70
SWIDTH 571 0
DWIDTH 16 0
BBX 12 20 3 0
BITMAP
FFF0
FFF0
C000
C000
C000
C000
C000
C000
FFE0
FFE0
C000
C000
C000
C000
C000
C000
C000
C000
C000
C000
ENDCHAR
STARTCHAR 0047
ENCODING 71
SWIDTH 750 0
DWIDTH 21 0
BBX 17 20 2 0
BITMAP
03F800
0FFE00
1E0F00
380380
700300
600000
E00000
E00000
C00000
C00000
C01F80
C01F80
E00180
E00180
E00180
700180
380380
1E0780
0FFE00
03F800
ENDCHAR
STARTCHAR 0048
ENCODING 72
SWIDTH 750 0
DWIDTH 21 0
BBX 15 20 3 1
BITMAP
C006
C006
C006
C006
C006
C006
C006
C006
C006
FFFE
FFFE
C006
C006
C006
C006
C006
C006
C006
C006
C006
ENDCHAR
STARTCHAR 0049
ENCODING 73
SWIDTH 285 0
DWIDTH 8 0
BBX 2 20 3 0
BITMAP
C0
C0
C0
C0
C0
C0
C0
C0
C0
C0
C0
C0
C0
C0
C0
C0
C0
C0
C0
C0
ENDCHAR
STARTCHAR 004A
ENCODING 74
SWIDTH 392 0
DWIDTH 11 0
BBX 8 20 0 0
BITMAP
07
07
07
07
07
07
07
07
07
07
07
07
07
07
07
07
07
07
FE
FC
ENDCHAR
STARTCHAR 004B
ENCODING 75
SWIDTH 642 0
DWIDTH 18 0
BBX 15 20 3 0
BITMAP
C01C
C038
C070
C0E0
C1C0
C380
C700
CE00
DC00
FE00
F700
E700
C380
C1C0
C0E0
C070
C070
C038
C01C
C00E
ENDCHAR
STARTCHAR 004C
ENCODING 76
SWIDTH 535 0
DWIDTH 15 0
BBX 12 20 3 0
BITMAP
C000
C000
C000
C000
C000
C000
C000
C000
C000
C000
C000
C000
C000
C000
C000
C000
C000
C000
FFF0
FFF0
ENDCHAR
STARTCHAR 004D
ENCODING 77
SWIDTH 892 0
DWIDTH 25 0
BBX 20 20 3 0
BITMAP
E000F0
F001F0
F001F0
F803F0
D80370
D80370
DC0770
CC0670
CE0E70
C60C70
C60C70
C71C70
C31870
C3B870
C1B070
C1B070
C1F070
C0E070
C0E070
C00070
ENDCHAR
STARTCHAR 004E
ENCODING 78
SWIDTH 750 0
DWIDTH 21 0
BBX 16 20 3 0
BITMAP
E007
F007
F807
D807
DC07
CE07
CE07
C707
C387
C387
C1C7
C0E7
C0E7
C077
C037
C03F
C01F
C00F
C00F
C007
ENDCHAR
STARTCHAR 004F
ENCODING 79
SWIDTH 785 0
DWIDTH 22 0
BBX 19 20 2 0
BITMAP
03F000
0FFC00
1E0F00
380780
700380
E001C0
E001C0
E000C0
C000E0
C000E0
C000E0
C000E0
E000C0
E001C0
E001C0
700380
380780
1E0F00
0FFC00
03F000
ENDCHAR
STARTCHAR 0050
ENCODING 80
SWIDTH 607 0
DWIDTH 17 0
BBX 13 20 3 0
BITMAP
FF80
FFE0
C0F0
C038
C038
C018
C038
C038
C038
C0F0
FFE0
FF80
C000
C000
C000
C000
C000
C000
C000
C000
ENDCHAR
STARTCHAR 0051
ENCODING 81
SWIDTH 785 0
DWIDTH 22 0
BBX 19 22 2 -2
BITMAP
03F000
0FFC00
1E0F00
380780
700380
E001C0
E001C0
E000C0
C000E0
C000E0
C000E0
C000E0
E000C0
E000C0
E061C0
707980
381F80
1E0F00
0FFF80
03F9C0
0000E0
000040
ENDCHAR
STARTCHAR 0052
ENCODING 82
SWIDTH 642 0
DWIDTH 18 0
BBX 15 20 3 0
BITMAP
FF80
FFE0
C070
C038
C038
C018
C038
C038
C0F0
FFC0
FF00
C3C0
C0E0
C060
C070
C038
C038
C01C
C01C
C00E
ENDCHAR
STARTCHAR 0053
ENCODING 83
SWIDTH 571 0
DWIDTH 16 0
BBX 13 20 2 0
BITMAP
1F80
3FE0
7070
E030
E000
E000
E000
7800
7E00
1F80
07E0
01F0
0078
0038
0038
0038
C038
F070
7FE0
1F80
ENDCHAR
STARTCHAR 0054
ENCODING 84
SWIDTH 607 0
DWIDTH 17 0
BBX 17 20 0 0
BITMAP
FFFF80
FFFF80
01C000
01C000
01C000
01C000
01C000
01C000
01C000
01C000
01C000
01C000
01C000
01C000
01C000
01C000
01C000
01C000
01C000
01C000
ENDCHAR
STARTCHAR 0055
ENCODING 85
SWIDTH 750 0
DWIDTH 21 0
BBX 16 20 2 0
BITMAP
E003
E003
E003
E003
E003
E003
E003
E003
E003
E003
E003
E003
E003
E003
E003
6007
7007
3C1E
1FFC
07F0
ENDCHAR
STARTCHAR 0056
ENCODING 86
SWIDTH 642 0
DWIDTH 18 0
BBX 18 20 0 0
BITMAP
E001C0
600180
700380
700300
300700
380700
180600
1C0E00
1C0C00
0C0C00
0E1C00
0E1800
063800
073000
033000
037000
03E000
01E000
01C000
00C000
ENDCHAR
STARTCHAR 0057
ENCODING 87
SWIDTH 928 0
DWIDTH 26 0
BBX 26 20 0 0
BITMAP
E00C01C0
600C0180
701E0380
701E0380
301E0300
303F0300
38330700
38330600
18338600
1C638E00
1C618E00
0C618C00
0CE1CC00
0EC0DC00
06C0D800
06C0D800
07807800
03807000
03807000
03807000
ENDCHAR
STARTCHAR 0058
ENCODING 88
SWIDTH 678 0
DWIDTH 19 0
BBX 17 20 1 0
BITMAP
E00380
700700
380E00
380E00
1C1C00
0E3800
063800
077000
03E000
01C000
01E000
03E000
077000
0E3800
0E3800
1C1C00
380E00
780F00
700700
E00380
ENDCHAR
STARTCHAR 0059
ENCODING 89
SWIDTH 607 0
DWIDTH 17 0
BBX 17 20 0 0
BITMAP
E00380
700700
380700
380E00
1C1C00
0E1800
0E3800
077000
03E000
01E000
01C000
01C000
01C000
01C000
01C000
01C000
01C000
01C000
01C000
01C000
ENDCHAR
STARTCHAR 005A
ENCODING 90
SWIDTH 642 0
DWIDTH 18 0
BBX 16 20 1 0
BITMAP
7FFE
7FFE
000E
001C
0038
0078
0070
00E0
01C0
01C0
0380
0700
0E00
0E00
1C00
3800
7000
7000
FFFF
FFFF
ENDCHAR
STARTCHAR 005B
ENCODING 91
SWIDTH 285 0
DWIDTH 8 0
BBX 4 25 3 -4
BITMAP
F0
C0
C0
C0
C0
C0
C0
C0
C0
C0
C0
C0
C0
C0
C0
C0
C0
C0
C0
C0
C0
C0
C0
C0
F0
ENDCHAR
STARTCHAR 005C
ENCODING 92
SWIDTH 500 0
DWIDTH 14 0
BBX 11 24 2 -4
BITMAP
C000
4000
4000
6000
2000
3000
3000
1000
1800
0800
0C00
0C00
0400
0600
0200
0200
0300
0100
0180
0180
0080
00C0
0040
0060
ENDCHAR
STARTCHAR 005D
ENCODING 93
SWIDTH 285 0
DWIDTH 8 0
BBX 5 25 1 -4
BITMAP
F8
18
18
18
18
18
18
18
18
18
18
18
18
18
18
18
18
18
18
18
18
18
18
18
F8
ENDCHAR
STARTCHAR 005E
ENCODING 94
SWIDTH 500 0
DWIDTH 14 0
BBX 12 7 1 10
BITMAP
0600
0F00
1980
30C0
7060
E070
C030
ENDCHAR
STARTCHAR 005F
ENCODING 95
SWIDTH 500 0
DWIDTH 14 0
BBX 14 1 0 -3
BITMAP
FFFC
ENDCHAR
STARTCHAR 0060
ENCODING 96
SWIDTH 500 0
DWIDTH 14 0
BBX 4 3 4 17
BITMAP
E0
60
30
ENDCHAR
STARTCHAR 0061
ENCODING 97
SWIDTH 535 0
DWIDTH 15 0
BBX 12 14 2 0
BITMAP
1F00
7FC0
F0E0
0060
0060
01E0
3FE0
F860
C060
C060
C0E0
E1E0
7F60
3E70
ENDCHAR
STARTCHAR 0062
ENCODING 98
SWIDTH 607 0
DWIDTH 17 0
BBX 13 21 3 0
BITMAP
C000
C000
C000
C000
C000
C000
C000
CF80
DFE0
F0F0
E070
C038
C038
C038
C038
C038
C038
E070
F0F0
FFE0
CF80
ENDCHAR
STARTCHAR 0063
ENCODING 99
SWIDTH 535 0
DWIDTH 15 0
BBX 13 14 1 0
BITMAP
0FC0
1FF0
3878
7010
6000
E000
E000
E000
E000
6000
7018
3838
1FF0
07C0
ENDCHAR
STARTCHAR 0064
ENCODING 100
SWIDTH 607 0
DWIDTH 17 0
BBX 14 21 1 0
BITMAP
001C
001C
001C
001C
001C
001C
001C
0F9C
1FFC
387C
701C
601C
E01C
E01C
E01C
E01C
601C
703C
387C
1FEC
0F8C
ENDCHAR
STARTCHAR 0065
ENCODING 101
SWIDTH 571 0
DWIDTH 16 0
BBX 14 14 1 0
BITMAP
0FC0
1FF0
3878
7038
6018
FFF8
FFFC
E000
E000
6000
7018
3C38
1FF0
07C0
ENDCHAR
STARTCHAR 0066
ENCODING 102
SWIDTH 321 0
DWIDTH 9 0
BBX 9 21 1 0
BITMAP
0F80
1F80
3800
3000
3000
3000
3000
FF00
FF00
3000
3000
3000
3000
3000
3000
3000
3000
3000
3000
3000
3000
ENDCHAR
STARTCHAR 0067
ENCODING 103
SWIDTH 571 0
DWIDTH 16 0
BBX 12 20 2 -5
BITMAP
0030
1FF0
7FC0
70E0
E060
C060
E060
F0E0
7FC0
3F80
6000
C000
F800
7FE0
3FF0
E070
C030
E030
FFE0
3FC0
ENDCHAR
STARTCHAR 0068
ENCODING 104
SWIDTH 607 0
DWIDTH 17 0
BBX 12 21 3 0
BITMAP
C000
C000
C000
C000
C000
C000
C000
CF80
DFE0
F0E0
E060
C070
C070
C070
C070
C070
C070
C070
C070
C070
C070
ENDCHAR
STARTCHAR 0069
ENCODING 105
SWIDTH 285 0
DWIDTH 8 0
BBX 3 20 2 0
BITMAP
E0
E0
E0
00
00
00
60
60
60
60
60
60
60
60
60
60
60
60
60
60
ENDCHAR
STARTCHAR 006A
ENCODING 106
SWIDTH 285 0
DWIDTH 8 0
BBX 6 25 -1 -5
BITMAP
1C
1C
1C
00
00
00
0C
0C
0C
0C
0C
0C
0C
0C
0C
0C
0C
0C
0C
0C
1C
1C
38
F8
60
ENDCHAR
STARTCHAR 006B
ENCODING 107
SWIDTH 535 0
DWIDTH 15 0
BBX 11 21 3 0
BITMAP
C000
C000
C000
C000
C000
C000
C000
C1C0
C380
C300
C600
CC00
D800
FC00
EC00
CE00
C700
C380
C180
C1C0
C0E0
ENDCHAR
STARTCHAR 006C
ENCODING 108
SWIDTH 285 0
DWIDTH 8 0
BBX 2 21 3 0
BITMAP
C0
C0
C0
C0
C0
C0
C0
C0
C0
C0
C0
C0
C0
C0
C0
C0
C0
C0
C0
C0
C0
ENDCHAR
STARTCHAR 006D
ENCODING 109
SWIDTH 857 0
DWIDTH 24 0
BBX 20 14 2 0
BITMAP
E787C0
FFCFE0
F8F860
F07070
E07030
E06030
E06030
E06030
E06030
E06030
E06030
E06030
E06030
E06030
ENDCHAR
STARTCHAR 006E
ENCODING 110
SWIDTH 607 0
DWIDTH 17 0
BBX 13 14 2 0
BITMAP
E7C0
EFE0
F870
F030
E038
E038
E038
E038
E038
E038
E038
E038
E038
E038
ENDCHAR
STARTCHAR 006F
ENCODING 111
SWIDTH 607 0
DWIDTH 17 0
BBX 14 14 1 0
BITMAP
07C0
1FF0
3878
701C
601C
E00C
E00C
E00C
E00C
601C
701C
3878
1FF0
07C0
ENDCHAR
STARTCHAR 0070
ENCODING 112
SWIDTH 607 0
DWIDTH 17 0
BBX 14 20 2 -6
BITMAP
E7C0
EFF0
F878
F038
E01C
E01C
E01C
E01C
E01C
E01C
F038
F878
FFF0
E7C0
E000
E000
E000
E000
E000
E000
ENDCHAR
STARTCHAR 0071
ENCODING 113
SWIDTH 607 0
DWIDTH 17 0
BBX 14 20 1 -6
BITMAP
0FCC
1FEC
387C
701C
601C
E01C
E01C
E01C
E01C
601C
703C
387C
1FFC
0F9C
001C
001C
001C
001C
001C
001C
ENDCHAR
STARTCHAR 0072
ENCODING 114
SWIDTH 357 0
DWIDTH 10 0
BBX 8 14 2 0
BITMAP
E7
EF
F8
F0
F0
E0
E0
E0
E0
E0
E0
E0
E0
E0
ENDCHAR
STARTCHAR 0073
ENCODING 115
SWIDTH 464 0
DWIDTH 13 0
BBX 10 14 2 0
BITMAP
3E00
FF80
E100
C000
C000
E000
3C00
0F00
0380
01C0
01C0
C180
FF80
3E00
ENDCHAR
STARTCHAR 0074
ENCODING 116
SWIDTH 357 0
DWIDTH 10 0
BBX 8 18 1 0
BITMAP
10
30
30
30
FF
FF
30
30
30
30
30
30
30
30
30
30
3F
1F
ENDCHAR
STARTCHAR 0075
ENCODING 117
SWIDTH 607 0
DWIDTH 17 0
BBX 12 14 2 0
BITMAP
E030
E030
E030
E030
E030
E030
E030
E030
E030
E030
E070
70F0
7FB0
1E30
ENDCHAR
STARTCHAR 0076
ENCODING 118
SWIDTH 500 0
DWIDTH 14 0
BBX 13 14 0 0
BITMAP
E018
6038
7038
3030
3070
3860
1860
1CC0
0CC0
0DC0
0780
0780
0700
0300
ENDCHAR
STARTCHAR 0077
ENCODING 119
SWIDTH 750 0
DWIDTH 21 0
BBX 21 14 0 0
BITMAP
E07038
607030
607030
70D870
30D860
30D860
398CE0
198CC0
198CC0
1F06C0
0F0780
0F0780
060380
060300
ENDCHAR
STARTCHAR 0078
ENCODING 120
SWIDTH 500 0
DWIDTH 14 0
BBX 12 14 1 0
BITMAP
E070
6060
70C0
39C0
1980
1F00
0F00
0F00
1F00
1980
31C0
70E0
E060
C070
ENDCHAR
STARTCHAR 0079
ENCODING 121
SWIDTH 500 0
DWIDTH 14 0
BBX 13 19 0 -5
BITMAP
E018
6038
7038
3030
3870
1860
1860
1CE0
0CC0
0EC0
0780
0780
0380
0300
0700
0600
0E00
3C00
3800
ENDCHAR
STARTCHAR 007A
ENCODING 122
SWIDTH 464 0
DWIDTH 13 0
BBX 11 14 1 0
BITMAP
7FE0
7FE0
00C0
0180
0380
0700
0600
0C00
1C00
3800
7000
6000
FFE0
FFE0
ENDCHAR
STARTCHAR 007B
ENCODING 123
SWIDTH 321 0
DWIDTH 9 0
BBX 6 25 2 -4
BITMAP
1C
3C
30
60
60
60
60
60
60
60
60
60
C0
C0
60
60
60
60
60
60
60
60
60
30
3C
ENDCHAR
STARTCHAR 007C
ENCODING 124
SWIDTH 214 0
DWIDTH 6 0
BBX 2 25 2 -4
BITMAP
C0
C0
C0
C0
C0
C0
C0
C0
C0
C0
C0
C0
C0
C0
C0
C0
C0
C0
C0
C0
C0
C0
C0
C0
C0
ENDCHAR
STARTCHAR 007D
ENCODING 125
SWIDTH 321 0
DWIDTH 9 0
BBX 7 25 1 -4
BITMAP
E0
F0
38
18
18
18
18
18
18
18
18
18
06
0C
18
18
18
18
18
18
18
18
18
38
F0
ENDCHAR
STARTCHAR 007E
ENCODING 126
SWIDTH 500 0
DWIDTH 14 0
BBX 10 3 2 17
BITMAP
3800
7FC0
C780
ENDCHAR
STARTCHAR 00A0
ENCODING 160
SWIDTH 285 0
DWIDTH 8 0
BBX 0 0 0 0
BITMAP
ENDCHAR
STARTCHAR 00A1
ENCODING 161
SWIDTH 285 0
DWIDTH 8 0
BBX 3 20 3 0
BITMAP
E0
E0
E0
00
00
C0
C0
C0
C0
C0
C0
C0
C0
C0
C0
C0
C0
C0
E0
E0
ENDCHAR
STARTCHAR 00A2
ENCODING 162
SWIDTH 642 0
DWIDTH 18 0
BBX 14 21 2 1
BITMAP
0060
0060
0060
07C0
1FE0
38F0
71B8
6198
C180
C300
C300
C600
C600
E61C
7C38
3C70
1FE0
1FC0
1800
3000
3000
ENDCHAR
STARTCHAR 00A3
ENCODING 163
SWIDTH 821 0
DWIDTH 23 0
BBX 19 21 2 0
BITMAP
00F800
03FE00
030E00
070700
060000
070000
030000
3FFE00
3FFE00
018000
018000
00C000
3CC000
7EC000
E7C040
C1C060
C1C0E0
C1E0C0
E371C0
7F1F80
3C0F00
ENDCHAR
STARTCHAR 00A4
ENCODING 164
SWIDTH 642 0
DWIDTH 18 0
BBX 13 14 2 2
BITMAP
4000
CF98
7878
2030
6010
4018
4008
4008
4018
6018
2030
7870
EFD8
4000
ENDCHAR
STARTCHAR 00A5
ENCODING 165
SWIDTH 642 0
DWIDTH 18 0
BBX 16 20 1 0
BITMAP
E007
E00E
700E
381C
1838
1C30
0E60
06E0
03C0
7FFC
7FFC
0180
0180
7FFC
7FFC
0180
0180
0180
0180
0180
ENDCHAR
STARTCHAR 00A6
ENCODING 166
SWIDTH 214 0
DWIDTH 6 0
BBX 2 25 2 -4
BITMAP
C0
C0
C0
C0
C0
C0
C0
C0
C0
C0
C0
00
00
00
00
C0
C0
C0
C0
C0
C0
C0
C0
C0
C0
ENDCHAR
STARTCHAR 00A7
ENCODING 167
SWIDTH 607 0
DWIDTH 17 0
BBX 12 25 2 -2
BITMAP
0F80
3FC0
30E0
7070
6070
6000
7000
3800
1F00
37C0
61E0
E070
6030
7030
3830
1E60
07C0
01E0
0060
0070
6070
6070
70E0
3FE0
0F80
ENDCHAR
STARTCHAR 00A8
ENCODING 168
SWIDTH 500 0
DWIDTH 14 0
BBX 8 3 3 17
BITMAP
E7
E7
E7
ENDCHAR
STARTCHAR 00A9
ENCODING 169
SWIDTH 1000 0
DWIDTH 28 0
BBX 22 23 3 -1
BITMAP
00FC00
070300
0C00C0
180060
307C30
61FF18
438788
C7018C
860004
8E0004
8E0004
8E0004
8E0004
8E0004
860004
87018C
438788
61FF18
207C10
100020
0C00C0
070380
00FC00
ENDCHAR
STARTCHAR 00AA
ENCODING 170
SWIDTH 464 0
DWIDTH 13 0
BBX 9 12 2 8
BITMAP
3E00
7F00
0300
0F00
7F00
E300
C300
C700
FD00
7800
0000
FF80
ENDCHAR
STARTCHAR 00AB
ENCODING 171
SWIDTH 607 0
DWIDTH 17 0
BBX 11 12 3 3
BITMAP
0840
1860
38C0
3180
6380
E300
C700
6300
7180
31C0
18C0
0C60
ENDCHAR
STARTCHAR 00AC
ENCODING 172
SWIDTH 678 0
DWIDTH 19 0
BBX 14 7 2 4
BITMAP
FFFC
FFFC
000C
000C
000C
000C
000C
ENDCHAR
STARTCHAR 00AD
ENCODING 173
SWIDTH 678 0
DWIDTH 19 0
BBX 15 2 2 8
BITMAP
FFFE
FFFE
ENDCHAR
STARTCHAR 00AE
ENCODING 174
SWIDTH 1000 0
DWIDTH 28 0
BBX 22 23 3 -1
BITMAP
00FC00
070380
0C00C0
100020
23FC10
63FE18
438708
C38304
838384
838304
838704
83FE04
83FC04
838E04
838704
C3870C
438388
638398
2381F0
100060
0C00C0
070380
00FC00
ENDCHAR
STARTCHAR 00AF
ENCODING 175
SWIDTH 500 0
DWIDTH 14 0
BBX 8 2 3 17
BITMAP
FF
FF
ENDCHAR
STARTCHAR 00B0
ENCODING 176
SWIDTH 357 0
DWIDTH 10 0
BBX 7 6 1 17
BITMAP
38
44
C6
C6
44
38
ENDCHAR
STARTCHAR 00B1
ENCODING 177
SWIDTH 678 0
DWIDTH 19 0
BBX 15 16 2 2
BITMAP
0100
0100
0100
0100
0100
0100
FFFE
FFFE
0100
0100
0100
0100
0100
0000
FFFE
FFFE
ENDCHAR
STARTCHAR 00B2
ENCODING 178
SWIDTH 392 0
DWIDTH 11 0
BBX 8 10 2 10
BITMAP
7C
FE
C6
06
0E
38
60
C0
FF
FF
ENDCHAR
STARTCHAR 00B3
ENCODING 179
SWIDTH 392 0
DWIDTH 11 0
BBX 8 11 1 9
BITMAP
3E
7F
63
03
1E
1E
03
01
E3
7F
3E
ENDCHAR
STARTCHAR 00B4
ENCODING 180
SWIDTH 500 0
DWIDTH 14 0
BBX 4 3 6 17
BITMAP
70
60
C0
ENDCHAR
STARTCHAR 00B6
ENCODING 182
SWIDTH 1000 0
DWIDTH 28 0
BBX 11 24 7 -1
BITMAP
1FE0
7C20
7C20
FC20
FC20
FC20
FC20
7C20
3C20
0420
0420
0420
0420
0420
0420
0420
0420
0420
0420
0420
0420
0420
0420
0420
ENDCHAR
STARTCHAR 00B7
ENCODING 183
SWIDTH 250 0
DWIDTH 7 0
BBX 3 3 2 7
BITMAP
E0
E0
E0
ENDCHAR
STARTCHAR 00B8
ENCODING 184
SWIDTH 500 0
DWIDTH 14 0
BBX 6 6 4 -6
BITMAP
20
70
7C
0C
1C
F8
ENDCHAR
STARTCHAR 00B9
ENCODING 185
SWIDTH 392 0
DWIDTH 11 0
BBX 5 11 2 10
BITMAP
18
78
F8
18
18
18
18
18
18
18
18
ENDCHAR
STARTCHAR 00BA
ENCODING 186
SWIDTH 464 0
DWIDTH 13 0
BBX 9 12 2 8
BITMAP
3E00
7F00
E300
C180
C180
C180
C180
E380
7F00
3E00
0000
FF80
ENDCHAR
STARTCHAR 00BB
ENCODING 187
SWIDTH 607 0
DWIDTH 17 0
BBX 11 12 3 3
BITMAP
8200
C700
6300
7180
31C0
18C0
18E0
38C0
3180
6380
C300
C600
ENDCHAR
STARTCHAR 00BC
ENCODING 188
SWIDTH 857 0
DWIDTH 24 0
BBX 20 22 2 -1
BITMAP
180080
7800C0
F80180
180300
180200
180600
180C00
181800
181800
183000
1861C0
0041C0
00C3C0
0186C0
030CC0
020CC0
0618C0
0C1FF0
081FF0
1800C0
3000C0
200000
ENDCHAR
STARTCHAR 00BD
ENCODING 189
SWIDTH 857 0
DWIDTH 24 0
BBX 20 22 2 -1
BITMAP
180080
7800C0
F80180
180300
180200
180600
180C00
181800
181800
183000
1863E0
0047F0
00CE30
018030
030070
0200E0
060380
0C0600
080C00
180FF0
300FF0
200000
ENDCHAR
STARTCHAR 00BE
ENCODING 190
SWIDTH 857 0
DWIDTH 24 0
BBX 20 22 2 -1
BITMAP
000080
7C00C0
FE0180
C60300
060300
3C0600
3E0C00
021800
861800
FE3000
7C61C0
0041C0
00C3C0
0186C0
030CC0
030CC0
0618C0
0C1FF0
081FF0
1800C0
3000C0
200000
ENDCHAR
STARTCHAR 00BF
ENCODING 191
SWIDTH 535 0
DWIDTH 15 0
BBX 12 20 2 0
BITMAP
0700
0700
0700
0000
0000
0600
0600
0600
0E00
1C00
3800
7000
E000
C000
C020
C030
E070
F0E0
7FC0
1F80
ENDCHAR
STARTCHAR 00C0
ENCODING 192
SWIDTH 642 0
DWIDTH 18 0
BBX 18 25 0 0
BITMAP
038000
018000
00C000
00C000
000000
00C000
01E000
01E000
03E000
037000
033000
073800
063800
061800
0C1C00
0C0C00
1C0C00
1FFE00
1FFE00
380700
300700
700300
700380
600180
E001C0
ENDCHAR
STARTCHAR 00C1
ENCODING 193
SWIDTH 642 0
DWIDTH 18 0
BBX 18 25 0 0
BITMAP
007000
006000
00C000
00C000
000000
00C000
01E000
01E000
03E000
037000
033000
073800
063800
061800
0C1C00
0C0C00
1C0C00
1FFE00
1FFE00
380700
300700
700300
700380
600180
E001C0
ENDCHAR
STARTCHAR 00C2
ENCODING 194
SWIDTH 642 0
DWIDTH 18 0
BBX 18 25 0 0
BITMAP
01E000
01E000
033000
061800
000000
00C000
01E000
01E000
03E000
037000
033000
073800
063800
0E1800
0C1C00
0C0C00
1C0C00
1FFE00
1FFE00
380700
300700
700300
700380
600180
E001C0
ENDCHAR
STARTCHAR 00C3
ENCODING 195
SWIDTH 642 0
DWIDTH 18 0
BBX 18 25 0 0
BITMAP
078000
0FFC00
0C7800
000000
000000
00C000
01E000
01E000
03E000
037000
033000
073800
063800
0E1800
0C1C00
0C0C00
1C0C00
1FFE00
1FFE00
380700
300700
700300
700380
600180
E001C0
ENDCHAR
STARTCHAR 00C4
ENCODING 196
SWIDTH 642 0
DWIDTH 18 0
BBX 18 24 0 0
BITMAP
061800
061800
000000
000000
00C000
01E000
01E000
03E000
037000
033000
073800
063800
0E1800
0C1C00
0C0C00
1C0C00
1FFE00
1FFE00
380700
300700
700300
700380
600180
E001C0
ENDCHAR
STARTCHAR 00C5
ENCODING 197
SWIDTH 642 0
DWIDTH 18 0
BBX 18 26 0 0
BITMAP
00C000
012000
013000
012000
00E000
000000
00C000
01E000
01E000
03E000
037000
033000
073800
063800
0E1800
0C1C00
0C0C00
1C0E00
1FFE00
1FFE00
380700
300700
700300
700380
600180
E001C0
ENDCHAR
STARTCHAR 00C6
ENCODING 198
SWIDTH 892 0
DWIDTH 25 0
BBX 24 20 0 0
BITMAP
007FFE
00FFFE
00D800
01D800
019800
039800
031C00
071C00
071FFC
060FFC
0E0C00
0C0C00
1FFE00
1FFE00
380E00
380E00
700600
700600
6007FF
E007FF
ENDCHAR
STARTCHAR 00C7
ENCODING 199
SWIDTH 714 0
DWIDTH 20 0
BBX 17 27 2 -7
BITMAP
03F800
0FFE00
1E0F00
380380
700300
600000
E00000
E00000
C00000
C00000
C00000
C00000
E00000
E00000
600100
700380
380700
1E0E00
0FFC00
01F000
00C000
01E000
00F000
003800
003000
03F000
038000
ENDCHAR
STARTCHAR 00C8
ENCODING 200
SWIDTH 607 0
DWIDTH 17 0
BBX 13 25 3 0
BITMAP
1C00
0C00
0600
0600
0000
FFF0
FFF0
C000
C000
C000
C000
C000
C000
FFE0
FFE0
C000
C000
C000
C000
C000
C000
C000
C000
FFF8
FFF8
ENDCHAR
STARTCHAR 00C9
ENCODING 201
SWIDTH 607 0
DWIDTH 17 0
BBX 13 25 3 0
BITMAP
0380
0300
0600
0600
0000
FFF0
FFF0
C000
C000
C000
C000
C000
C000
FFE0
FFE0
C000
C000
C000
C000
C000
C000
C000
C000
FFF8
FFF8
ENDCHAR
STARTCHAR 00CA
ENCODING 202
SWIDTH 607 0
DWIDTH 17 0
BBX 13 25 3 0
BITMAP
0E00
0F00
1980
3080
0000
FFF0
FFF0
C000
C000
C000
C000
C000
C000
FFE0
FFE0
C000
C000
C000
C000
C000
C000
C000
C000
FFF8
FFF8
ENDCHAR
STARTCHAR 00CB
ENCODING 203
SWIDTH 607 0
DWIDTH 17 0
BBX 13 24 3 0
BITMAP
30C0
30C0
0000
0000
FFF0
FFF0
C000
C000
C000
C000
C000
C000
FFE0
FFE0
C000
C000
C000
C000
C000
C000
C000
C000
FFF8
FFF8
ENDCHAR
STARTCHAR 00CC
ENCODING 204
SWIDTH 285 0
DWIDTH 8 0
BBX 4 25 1 0
BITMAP
E0
60
30
30
00
30
30
30
30
30
30
30
30
30
30
30
30
30
30
30
30
30
30
30
30
ENDCHAR
STARTCHAR 00CD
ENCODING 205
SWIDTH 285 0
DWIDTH 8 0
BBX 4 25 3 0
BITMAP
70
60
C0
C0
00
C0
C0
C0
C0
C0
C0
C0
C0
C0
C0
C0
C0
C0
C0
C0
C0
C0
C0
C0
C0
ENDCHAR
STARTCHAR 00CE
ENCODING 206
SWIDTH 285 0
DWIDTH 8 0
BBX 8 25 0 0
BITMAP
38
3C
66
C3
00
18
18
18
18
18
18
18
18
18
18
18
18
18
18
18
18
18
18
18
18
ENDCHAR
STARTCHAR 00CF
ENCODING 207
SWIDTH 285 0
DWIDTH 8 0
BBX 8 24 0 0
BITMAP
C3
C3
00
00
18
18
18
18
18
18
18
18
18
18
18
18
18
18
18
18
18
18
18
18
ENDCHAR
STARTCHAR 00D0
ENCODING 208
SWIDTH 750 0
DWIDTH 21 0
BBX 18 20 1 0
BITMAP
3FF000
3FFC00
301E00
300700
300380
3001C0
3001C0
3000C0
3000C0
FF80C0
FF80C0
3000C0
3000C0
3001C0
3001C0
300380
300700
301E00
3FFC00
3FF000
ENDCHAR
STARTCHAR 00D1
ENCODING 209
SWIDTH 750 0
DWIDTH 21 0
BBX 16 25 3 0
BITMAP
0F10
1FF8
19F0
0000
0000
E007
F007
F807
D807
DC07
CE07
CE07
C707
C387
C387
C1C7
C0E7
C0E7
C077
C037
C03F
C01F
C00F
C00F
C007
ENDCHAR
STARTCHAR 00D2
ENCODING 210
SWIDTH 785 0
DWIDTH 22 0
BBX 19 25 2 0
BITMAP
038000
018000
00C000
00C000
000000
03F000
0FFC00
1E0F00
380780
700380
E001C0
E001C0
E000C0
C000C0
C000E0
C000E0
C000C0
E000C0
E001C0
6001C0
700380
380780
1C0F00
0FFC00
03F000
ENDCHAR
STARTCHAR 00D3
ENCODING 211
SWIDTH 785 0
DWIDTH 22 0
BBX 19 25 2 0
BITMAP
007000
006000
00E000
00C000
000000
03F000
0FFC00
1E0F00
380780
700380
E001C0
E001C0
E000C0
C000C0
C000E0
C000E0
C000C0
E000C0
E001C0
6001C0
700380
380780
1C0F00
0FFC00
03F000
ENDCHAR
STARTCHAR 00D4
ENCODING 212
SWIDTH 785 0
DWIDTH 22 0
BBX 19 25 2 0
BITMAP
00E000
01E000
033000
021800
000000
03F000
0FFC00
1E0F00
380780
700380
E001C0
E001C0
E000C0
C000C0
C000E0
C000E0
C000C0
E000C0
E001C0
6001C0
700380
380780
1C0F00
0FFC00
03F000
ENDCHAR
STARTCHAR 00D5
ENCODING 213
SWIDTH 785 0
DWIDTH 22 0
BBX 19 25 2 0
BITMAP
038000
07FC00
0C7800
000000
000000
03F000
0FFC00
1E0F00
380780
700380
E001C0
E001C0
E000C0
C000C0
C000E0
C000E0
C000C0
E000C0
E001C0
6001C0
700380
380780
1C0F00
0FFC00
03F000
ENDCHAR
STARTCHAR 00D6
ENCODING 214
SWIDTH 785 0
DWIDTH 22 0
BBX 19 24 2 0
BITMAP
071800
071800
000000
000000
03F000
0FFC00
1E0F00
380780
700380
E001C0
E001C0
E000C0
C000C0
C000E0
C000E0
C000C0
E000C0
E001C0
6001C0
700380
380780
1C0F00
0FFC00
03F000
ENDCHAR
STARTCHAR 00D7
ENCODING 215
SWIDTH 678 0
DWIDTH 19 0
BBX 11 12 4 3
BITMAP
8020
C060
60C0
3180
1B00
0E00
0E00
1B00
3180
60C0
C060
8020
ENDCHAR
STARTCHAR 00D8
ENCODING 216
SWIDTH 785 0
DWIDTH 22 0
BBX 19 20 2 0
BITMAP
03F980
0FFF00
1E0F00
380780
700F80
6019C0
E019C0
E030C0
C060E0
C0C0E0
C080E0
C180C0
E300C0
E601C0
EC01C0
780380
380780
3C0F00
7FFC00
C3F000
ENDCHAR
STARTCHAR 00D9
ENCODING 217
SWIDTH 750 0
DWIDTH 21 0
BBX 16 25 2 0
BITMAP
0700
0380
0180
00C0
0000
E003
E003
E003
E003
E003
E003
E003
E003
E003
E003
E003
E003
E003
E003
6003
6007
7007
3C1E
1FFC
07F0
ENDCHAR
STARTCHAR 00DA
ENCODING 218
SWIDTH 750 0
DWIDTH 21 0
BBX 16 25 2 0
BITMAP
0060
00E0
00C0
0180
0000
E003
E003
E003
E003
E003
E003
E003
E003
E003
E003
E003
E003
E003
E003
6003
6007
7007
3C1E
1FFC
07F0
ENDCHAR
STARTCHAR 00DB
ENCODING 219
SWIDTH 750 0
DWIDTH 21 0
BBX 16 25 2 0
BITMAP
01C0
03E0
0260
0630
0000
E003
E003
E003
E003
E003
E003
E003
E003
E003
E003
E003
E003
E003
E003
6003
6007
7007
3C1E
1FFC
07F0
ENDCHAR
STARTCHAR 00DC
ENCODING 220
SWIDTH 750 0
DWIDTH 21 0
BBX 16 24 2 0
BITMAP
0E38
0E38
0000
0000
E003
E003
E003
E003
E003
E003
E003
E003
E003
E003
E003
E003
E003
E003
6003
6007
7007
3C1E
1FFC
07F0
ENDCHAR
STARTCHAR 00DD
ENCODING 221
SWIDTH 607 0
DWIDTH 17 0
BBX 17 25 0 0
BITMAP
007000
00E000
00C000
018000
000000
E00380
700700
380700
380E00
1C1C00
0E1800
0E3800
077000
03E000
01E000
01C000
01C000
01C000
01C000
01C000
01C000
01C000
01C000
01C000
01C000
ENDCHAR
STARTCHAR 00DE
ENCODING 222
SWIDTH 607 0
DWIDTH 17 0
BBX 13 20 3 0
BITMAP
C000
C000
C000
FF80
FFE0
C0F0
C038
C038
C018
C018
C038
C038
C0F0
FFE0
FF80
C000
C000
C000
C000
C000
ENDCHAR
STARTCHAR 00DF
ENCODING 223
SWIDTH 571 0
DWIDTH 16 0
BBX 12 20 2 0
BITMAP
1F80
3FC0
70E0
6060
E060
E060
E060
E0C0
E780
E700
E1C0
E060
E070
E030
E030
E030
E070
E0E0
EFE0
EF80
ENDCHAR
STARTCHAR 00E0
ENCODING 224
SWIDTH 535 0
DWIDTH 15 0
BBX 12 20 2 0
BITMAP
1800
0C00
0C00
0600
0000
0000
1F00
7FC0
F0E0
0060
0060
01E0
3FE0
F060
C060
C060
C0E0
E1E0
7F60
3E30
ENDCHAR
STARTCHAR 00E1
ENCODING 225
SWIDTH 535 0
DWIDTH 15 0
BBX 12 20 2 0
BITMAP
0380
0300
0600
0C00
0000
0000
1F00
7FC0
F0E0
0060
0060
01E0
3FE0
F060
C060
C060
C0E0
E1E0
7F60
3E30
ENDCHAR
STARTCHAR 00E2
ENCODING 226
SWIDTH 535 0
DWIDTH 15 0
BBX 12 20 2 0
BITMAP
0E00
0F00
1980
3080
0000
0000
1F00
7FC0
F0E0
0060
0060
01E0
3FE0
F060
C060
C060
C0E0
E1E0
7F60
3E30
ENDCHAR
STARTCHAR 00E3
ENCODING 227
SWIDTH 535 0
DWIDTH 15 0
BBX 12 20 2 0
BITMAP
3C00
7FC0
6380
0000
0000
0000
1F00
7FC0
F0E0
0060
0060
01E0
3FE0
F060
C060
C060
C0E0
E1E0
7F60
3E30
ENDCHAR
STARTCHAR 00E4
ENCODING 228
SWIDTH 535 0
DWIDTH 15 0
BBX 12 19 2 0
BITMAP
31C0
31C0
0000
0000
0000
1F00
7FC0
F0E0
0060
0060
01E0
3FE0
F060
C060
C060
C0E0
E1E0
7F60
3E30
ENDCHAR
STARTCHAR 00E5
ENCODING 229
SWIDTH 535 0
DWIDTH 15 0
BBX 12 20 2 0
BITMAP
0E00
0900
0900
0F00
0000
0000
1F00
7FC0
F0E0
0060
0060
01E0
3FE0
F060
C060
C060
C0E0
E1E0
7F60
3E30
ENDCHAR
STARTCHAR 00E6
ENCODING 230
SWIDTH 892 0
DWIDTH 25 0
BBX 21 14 2 0
BITMAP
1F8FC0
7FDFE0
E0F870
007038
006018
1FFFF8
7FFFF8
F06000
C06000
C06000
C0F018
E1B838
7F1FF0
3E07C0
ENDCHAR
STARTCHAR 00E7
ENCODING 231
SWIDTH 535 0
DWIDTH 15 0
BBX 13 21 1 -7
BITMAP
0FC0
1FF0
3878
7010
6000
E000
E000
E000
E000
6000
7018
3838
1FF0
0FE0
0300
0300
03C0
00C0
00C0
07C0
0400
ENDCHAR
STARTCHAR 00E8
ENCODING 232
SWIDTH 571 0
DWIDTH 16 0
BBX 13 20 1 0
BITMAP
0E00
0600
0300
0300
0000
0000
0FC0
1FE0
3870
7038
6018
FFF8
FFF8
E000
E000
6000
7018
3838
1FF0
07C0
ENDCHAR
STARTCHAR 00E9
ENCODING 233
SWIDTH 571 0
DWIDTH 16 0
BBX 13 20 1 0
BITMAP
01C0
0180
0300
0300
0000
0000
0FC0
1FE0
3870
7038
6018
FFF8
FFF8
E000
E000
6000
7018
3838
1FF0
07C0
ENDCHAR
STARTCHAR 00EA
ENCODING 234
SWIDTH 571 0
DWIDTH 16 0
BBX 13 20 1 0
BITMAP
0700
0780
0CC0
1860
0000
0000
0FC0
1FE0
3870
7038
6018
FFF8
FFF8
E000
E000
6000
7018
3838
1FF0
07C0
ENDCHAR
STARTCHAR 00EB
ENCODING 235
SWIDTH 571 0
DWIDTH 16 0
BBX 13 19 1 0
BITMAP
1CE0
1CE0
0000
0000
0000
0FC0
1FE0
3870
7038
6018
FFF8
FFF8
E000
E000
6000
7018
3838
1FF0
07C0
ENDCHAR
STARTCHAR 00EC
ENCODING 236
SWIDTH 285 0
DWIDTH 8 0
BBX 4 20 1 0
BITMAP
C0
60
60
30
00
00
30
30
30
30
30
30
30
30
30
30
30
30
30
30
ENDCHAR
STARTCHAR 00ED
ENCODING 237
SWIDTH 285 0
DWIDTH 8 0
BBX 4 20 3 0
BITMAP
70
60
C0
80
00
00
C0
C0
C0
C0
C0
C0
C0
C0
C0
C0
C0
C0
C0
C0
ENDCHAR
STARTCHAR 00EE
ENCODING 238
SWIDTH 285 0
DWIDTH 8 0
BBX 7 20 0 0
BITMAP
38
3C
66
C2
00
00
18
18
18
18
18
18
18
18
18
18
18
18
18
18
ENDCHAR
STARTCHAR 00EF
ENCODING 239
SWIDTH 285 0
DWIDTH 8 0
BBX 8 19 0 0
BITMAP
C7
C7
00
00
00
18
18
18
18
18
18
18
18
18
18
18
18
18
18
ENDCHAR
STARTCHAR 00F0
ENCODING 240
SWIDTH 607 0
DWIDTH 17 0
BBX 14 21 1 0
BITMAP
0820
1FF0
03C0
0FC0
3C60
3030
0038
0FD8
1FFC
383C
701C
600C
E00C
E00C
E00C
600C
601C
7018
3838
1FF0
07C0
ENDCHAR
STARTCHAR 00F1
ENCODING 241
SWIDTH 607 0
DWIDTH 17 0
BBX 13 20 2 0
BITMAP
1E00
3FE0
33C0
0000
0000
0000
E7C0
EFE0
F870
F030
E030
E038
E038
E038
E038
E038
E038
E038
E038
E038
ENDCHAR
STARTCHAR 00F2
ENCODING 242
SWIDTH 607 0
DWIDTH 17 0
BBX 14 20 1 0
BITMAP
0600
0700
0300
0180
0000
0000
07C0
1FF0
3838
701C
600C
600C
E00C
E00C
E00C
601C
701C
3878
1FF0
0FC0
ENDCHAR
STARTCHAR 00F3
ENCODING 243
SWIDTH 607 0
DWIDTH 17 0
BBX 14 20 1 0
BITMAP
00C0
01C0
0180
0300
0000
0000
07C0
1FF0
3838
701C
600C
600C
E00C
E00C
E00C
601C
701C
3878
1FF0
0FC0
ENDCHAR
STARTCHAR 00F4
ENCODING 244
SWIDTH 607 0
DWIDTH 17 0
BBX 14 20 1 0
BITMAP
0380
07C0
06C0
0C60
0000
0000
07C0
1FF0
3838
701C
600C
600C
E00C
E00C
E00C
601C
701C
3878
1FF0
0FC0
ENDCHAR
STARTCHAR 00F5
ENCODING 245
SWIDTH 607 0
DWIDTH 17 0
BBX 14 20 1 0
BITMAP
0F00
1FF0
19E0
0000
0000
0000
07C0
1FF0
3838
701C
600C
600C
E00C
E00C
E00C
601C
701C
3878
1FF0
0FC0
ENDCHAR
STARTCHAR 00F6
ENCODING 246
SWIDTH 607 0
DWIDTH 17 0
BBX 14 19 1 0
BITMAP
1C60
1C60
0000
0000
0000
07C0
1FF0
3838
701C
600C
600C
E00C
E00C
E00C
601C
701C
3878
1FF0
0FC0
ENDCHAR
STARTCHAR 00F7
ENCODING 247
SWIDTH 678 0
DWIDTH 19 0
BBX 15 14 2 2
BITMAP
0380
0380
0380
0380
0000
0000
FFFE
FFFE
0000
0000
0380
0380
0380
0380
ENDCHAR
STARTCHAR 00F8
ENCODING 248
SWIDTH 607 0
DWIDTH 17 0
BBX 14 15 1 0
BITMAP
0008
07EC
1FF8
3838
707C
604C
60CC
E18C
E30C
E60C
6C1C
781C
3838
3FF0
6FC0
ENDCHAR
STARTCHAR 00F9
ENCODING 249
SWIDTH 607 0
DWIDTH 17 0
BBX 12 20 2 0
BITMAP
1C00
0C00
0600
0300
0000
0000
E030
E030
E030
E030
E030
E030
E030
E030
E030
E030
E070
70F0
7FB0
1E30
ENDCHAR
STARTCHAR 00FA
ENCODING 250
SWIDTH 607 0
DWIDTH 17 0
BBX 12 20 2 0
BITMAP
0180
0380
0300
0600
0000
0000
E030
E030
E030
E030
E030
E030
E030
E030
E030
E030
E070
70F0
7FB0
1E30
ENDCHAR
STARTCHAR 00FB
ENCODING 251
SWIDTH 607 0
DWIDTH 17 0
BBX 12 20 2 0
BITMAP
0700
0F80
1D80
18C0
0000
0000
E030
E030
E030
E030
E030
E030
E030
E030
E030
E030
E070
70F0
7FB0
1E30
ENDCHAR
STARTCHAR 00FC
ENCODING 252
SWIDTH 607 0
DWIDTH 17 0
BBX 12 19 2 0
BITMAP
38C0
38C0
0000
0000
0000
E030
E030
E030
E030
E030
E030
E030
E030
E030
E030
E070
70F0
7FB0
1E30
ENDCHAR
STARTCHAR 00FD
ENCODING 253
SWIDTH 500 0
DWIDTH 14 0
BBX 13 26 0 -6
BITMAP
01C0
0180
0300
0200
0000
0000
E018
6018
7038
3030
3870
1860
1860
1CE0
0CC0
0EC0
0780
0780
0380
0300
0700
0600
0E00
3C00
3800
2000
ENDCHAR
STARTCHAR 00FE
ENCODING 254
SWIDTH 642 0
DWIDTH 18 0
BBX 13 27 3 -6
BITMAP
C000
C000
C000
C000
C000
C000
C000
CF80
DFE0
F0F0
E070
C038
C038
C018
C018
C038
C038
E038
F070
DFE0
CF80
C000
C000
C000
C000
C000
C000
ENDCHAR
STARTCHAR 00FF
ENCODING 255
SWIDTH 500 0
DWIDTH 14 0
BBX 13 25 0 -6
BITMAP
18E0
18E0
0000
0000
0000
E018
6018
7038
3030
3870
1860
1860
1CE0
0CC0
0EC0
0780
0780
0380
0300
0700
0600
0E00
3C00
3800
2000
ENDCHAR
STARTCHAR 0100
ENCODING 256
SWIDTH 642 0
DWIDTH 18 0
BBX 18 24 0 0
BITMAP
07F800
07F800
000000
000000
00C000
01C000
01E000
01E000
037000
033000
073000
063800
061800
0C1C00
0C0C00
1C0C00
1FFE00
1FFE00
380700
300700
700300
700380
600180
E001C0
ENDCHAR
STARTCHAR 0101
ENCODING 257
SWIDTH 535 0
DWIDTH 15 0
BBX 12 19 2 0
BITMAP
3F80
3F80
0000
0000
0000
1F00
7FC0
F0E0
0060
0060
01E0
3FE0
F060
C060
C060
C0E0
E1E0
7F60
3E30
ENDCHAR
STARTCHAR 0102
ENCODING 258
SWIDTH 642 0
DWIDTH 18 0
BBX 18 25 0 0
BITMAP
061800
07F000
03E000
000000
000000
00C000
01E000
01E000
03E000
037000
033000
073800
063800
0E1800
0C1C00
0C0C00
1C0C00
1FFE00
1FFE00
380700
300700
700300
700380
600180
E001C0
ENDCHAR
STARTCHAR 0103
ENCODING 259
SWIDTH 535 0
DWIDTH 15 0
BBX 12 20 2 0
BITMAP
30C0
3F80
1F00
0000
0000
0000
1F00
7FC0
F0E0
0060
0060
01E0
3FE0
F060
C060
C060
C0E0
E1E0
7F60
3E30
ENDCHAR
STARTCHAR 0104
ENCODING 260
SWIDTH 642 0
DWIDTH 18 0
BBX 18 27 0 -7
BITMAP
00C000
01E000
01E000
03E000
037000
033000
073800
063800
0E1800
0C1C00
0C0C00
1C0C00
1FFE00
1FFE00
380700
300700
700300
700380
600180
E001C0
000380
000700
000600
000C00
000C40
000FC0
000780
ENDCHAR
STARTCHAR 0105
ENCODING 261
SWIDTH 535 0
DWIDTH 15 0
BBX 12 21 2 -7
BITMAP
1F00
7FC0
F0E0
0060
0060
01E0
3FE0
F060
C060
C060
C0E0
E1E0
7F60
3E30
0060
00C0
0180
0300
0380
03F0
01E0
ENDCHAR
STARTCHAR 0106
ENCODING 262
SWIDTH 714 0
DWIDTH 20 0
BBX 17 25 2 0
BITMAP
007000
006000
00E000
00C000
000000
03F800
0FFE00
1E0F00
380380
700300
600000
E00000
E00000
C00000
C00000
C00000
C00000
E00000
E00000
E00000
700380
380700
1E0F00
0FFC00
03F000
ENDCHAR
STARTCHAR 0107
ENCODING 263
SWIDTH 535 0
DWIDTH 15 0
BBX 13 20 1 0
BITMAP
00C0
0180
0180
0300
0000
0000
0FC0
1FF0
3878
7010
6000
6000
E000
E000
E000
6000
7018
3838
1FF0
0FC0
ENDCHAR
STARTCHAR 0108
ENCODING 264
SWIDTH 714 0
DWIDTH 20 0
BBX 17 25 2 0
BITMAP
00E000
01E000
033000
021800
000000
03F800
0FFE00
1E0F00
380380
700300
600000
E00000
E00000
C00000
C00000
C00000
C00000
E00000
E00000
E00000
700380
380700
1E0F00
0FFC00
03F000
ENDCHAR
STARTCHAR 0109
ENCODING 265
SWIDTH 535 0
DWIDTH 15 0
BBX 13 20 1 0
BITMAP
0380
07C0
0CC0
0C60
0000
0000
0FC0
1FF0
3878
7010
6000
6000
E000
E000
E000
6000
7018
3838
1FF0
0FC0
ENDCHAR
STARTCHAR 010C
ENCODING 268
SWIDTH 714 0
DWIDTH 20 0
BBX 17 25 2 0
BITMAP
031800
01B000
01E000
00E000
000000
03F800
0FFE00
1E0F00
380380
700300
600000
E00000
E00000
C00000
C00000
C00000
C00000
E00000
E00000
E00000
700380
380700
1E0F00
0FFC00
03F000
ENDCHAR
STARTCHAR 010D
ENCODING 269
SWIDTH 535 0
DWIDTH 15 0
BBX 13 20 1 0
BITMAP
0C60
06C0
0780
0380
0000
0000
0FC0
1FF0
3878
7010
6000
6000
E000
E000
E000
6000
7018
3838
1FF0
0FC0
ENDCHAR
STARTCHAR 010E
ENCODING 270
SWIDTH 750 0
DWIDTH 21 0
BBX 16 25 3 0
BITMAP
0840
0CC0
0780
0300
0000
FFC0
FFF0
C078
C01C
C00E
C007
C007
C003
C003
C003
C003
C003
C003
C007
C007
C00E
C01C
C078
FFF0
FFC0
ENDCHAR
STARTCHAR 010F
ENCODING 271
SWIDTH 642 0
DWIDTH 18 0
BBX 18 21 1 0
BITMAP
001CC0
001CC0
001CC0
001D80
001D80
001D80
001C00
0F9C00
1FFC00
383C00
701C00
601C00
E01C00
E01C00
E01C00
601C00
601C00
703C00
387C00
1FEC00
0F8C00
ENDCHAR
STARTCHAR 0111
ENCODING 273
SWIDTH 607 0
DWIDTH 17 0
BBX 15 21 1 0
BITMAP
001C
001C
001C
01FE
01FE
001C
001C
0F9C
1FFC
383C
701C
601C
E01C
E01C
E01C
601C
601C
703C
387C
1FEC
0F8C
ENDCHAR
STARTCHAR 0112
ENCODING 274
SWIDTH 607 0
DWIDTH 17 0
BBX 13 24 3 0
BITMAP
3FC0
3FC0
0000
0000
FFF0
FFF0
C000
C000
C000
C000
C000
C000
FFE0
FFE0
C000
C000
C000
C000
C000
C000
C000
C000
FFF8
FFF8
ENDCHAR
STARTCHAR 0113
ENCODING 275
SWIDTH 571 0
DWIDTH 16 0
BBX 13 19 1 0
BITMAP
1FE0
1FE0
0000
0000
0000
0FC0
1FE0
3870
7038
6018
FFF8
FFF8
E000
E000
6000
7018
3838
1FF0
07C0
ENDCHAR
STARTCHAR 0118
ENCODING 280
SWIDTH 607 0
DWIDTH 17 0
BBX 13 27 3 -7
BITMAP
FFF0
FFF0
C000
C000
C000
C000
C000
C000
FFE0
FFE0
C000
C000
C000
C000
C000
C000
C000
C000
FFF8
FFF8
0600
0C00
1800
3800
3800
3F00
1E00
ENDCHAR
STARTCHAR 0119
ENCODING 281
SWIDTH 571 0
DWIDTH 16 0
BBX 13 20 1 -6
BITMAP
0FC0
1FE0
3870
7038
6018
FFF8
FFF8
E000
E000
6000
7018
3838
1FF0
0FE0
0300
0600
0C00
0C00
0FC0
0F80
ENDCHAR
STARTCHAR 011A
ENCODING 282
SWIDTH 607 0
DWIDTH 17 0
BBX 13 25 3 0
BITMAP
18C0
0D80
0F00
0700
0000
FFF0
FFF0
C000
C000
C000
C000
C000
C000
FFE0
FFE0
C000
C000
C000
C000
C000
C000
C000
C000
FFF8
FFF8
ENDCHAR
STARTCHAR 011B
ENCODING 283
SWIDTH 571 0
DWIDTH 16 0
BBX 13 20 1 0
BITMAP
0860
0CC0
0780
0300
0000
0000
0FC0
1FE0
3870
7038
6018
FFF8
FFF8
E000
E000
6000
7018
3838
1FF0
07C0
ENDCHAR
STARTCHAR 011C
ENCODING 284
SWIDTH 750 0
DWIDTH 21 0
BBX 17 25 2 0
BITMAP
00E000
01E000
033000
021800
000000
03F800
0FFE00
1E0F00
380380
700300
600000
E00000
E00000
C00000
C00000
C01F80
C01F80
E00180
E00180
E00180
700180
780380
3E0780
0FFE00
03F800
ENDCHAR
STARTCHAR 011D
ENCODING 285
SWIDTH 571 0
DWIDTH 16 0
BBX 12 25 2 -5
BITMAP
0E00
0F00
1980
3080
0000
0030
1FF0
7FC0
60E0
C060
C060
E060
F0E0
7FC0
3F80
6000
C000
FC00
7FE0
3FF0
E070
C030
E070
FFE0
3F80
ENDCHAR
STARTCHAR 0124
ENCODING 292
SWIDTH 750 0
DWIDTH 21 0
BBX 15 25 3 1
BITMAP
0380
0380
06C0
0C60
0000
C006
C006
C006
C006
C006
C006
C006
C006
C006
FFFE
FFFE
C006
C006
C006
C006
C006
C006
C006
C006
C006
ENDCHAR
STARTCHAR 0125
ENCODING 293
SWIDTH 607 0
DWIDTH 17 0
BBX 14 25 1 0
BITMAP
7800
F800
CC00
0000
3000
3000
3000
3000
3000
3000
3000
33E0
37F8
3C38
3818
301C
301C
301C
301C
301C
301C
301C
301C
301C
301C
ENDCHAR
STARTCHAR 0127
ENCODING 295
SWIDTH 607 0
DWIDTH 17 0
BBX 14 21 1 0
BITMAP
3000
3000
3000
FF00
FF00
3000
3000
33E0
37F8
3C38
3818
301C
301C
301C
301C
301C
301C
301C
301C
301C
301C
ENDCHAR
STARTCHAR 012A
ENCODING 298
SWIDTH 285 0
DWIDTH 8 0
BBX 8 24 0 0
BITMAP
FF
FF
00
00
18
18
18
18
18
18
18
18
18
18
18
18
18
18
18
18
18
18
18
18
ENDCHAR
STARTCHAR 012B
ENCODING 299
SWIDTH 285 0
DWIDTH 8 0
BBX 7 19 0 0
BITMAP
FE
FE
00
00
00
18
18
18
18
18
18
18
18
18
18
18
18
18
18
ENDCHAR
STARTCHAR 0134
ENCODING 308
SWIDTH 392 0
DWIDTH 11 0
BBX 10 25 0 0
BITMAP
0700
0F80
0CC0
1840
0000
0700
0700
0700
0700
0700
0700
0700
0700
0700
0700
0700
0700
0700
0700
0700
0700
0700
8700
FE00
FC00
ENDCHAR
STARTCHAR 0135
ENCODING 309
SWIDTH 285 0
DWIDTH 8 0
BBX 8 26 -1 -5
BITMAP
0C
1E
36
63
00
00
0C
0C
0C
0C
0C
0C
0C
0C
0C
0C
0C
0C
0C
0C
0C
1C
1C
38
F0
60
ENDCHAR
STARTCHAR 0139
ENCODING 313
SWIDTH 535 0
DWIDTH 15 0
BBX 12 25 3 0
BITMAP
0C00
1C00
1800
3000
0000
C000
C000
C000
C000
C000
C000
C000
C000
C000
C000
C000
C000
C000
C000
C000
C000
C000
C000
FFF0
FFF0
ENDCHAR
STARTCHAR 013A
ENCODING 314
SWIDTH 285 0
DWIDTH 8 0
BBX 4 26 3 0
BITMAP
30
60
E0
C0
00
C0
C0
C0
C0
C0
C0
C0
C0
C0
C0
C0
C0
C0
C0
C0
C0
C0
C0
C0
C0
C0
ENDCHAR
STARTCHAR 013D
ENCODING 317
SWIDTH 535 0
DWIDTH 15 0
BBX 12 20 3 0
BITMAP
C180
C180
C300
C300
C300
C200
C000
C000
C000
C000
C000
C000
C000
C000
C000
C000
C000
C000
FFF0
FFF0
ENDCHAR
STARTCHAR 013E
ENCODING 318
SWIDTH 285 0
DWIDTH 8 0
BBX 6 21 3 0
BITMAP
CC
CC
C8
D8
D8
D0
C0
C0
C0
C0
C0
C0
C0
C0
C0
C0
C0
C0
C0
C0
C0
ENDCHAR
STARTCHAR 0141
ENCODING 321
SWIDTH 535 0
DWIDTH 15 0
BBX 15 20 0 0
BITMAP
1800
1800
1800
1800
1800
18C0
19C0
1B80
1E00
3C00
7800
D800
1800
1800
1800
1800
1800
1800
1FFE
1FFE
ENDCHAR
STARTCHAR 0142
ENCODING 322
SWIDTH 285 0
DWIDTH 8 0
BBX 7 21 0 0
BITMAP
18
18
18
18
18
18
1A
1E
1C
38
F8
D8
18
18
18
18
18
18
18
18
18
ENDCHAR
STARTCHAR 0143
ENCODING 323
SWIDTH 750 0
DWIDTH 21 0
BBX 16 25 3 0
BITMAP
00E0
00C0
01C0
0180
0000
E007
F007
F807
D807
DC07
CE07
CE07
C707
C387
C387
C1C7
C0E7
C0E7
C077
C037
C03F
C01F
C00F
C00F
C007
ENDCHAR
STARTCHAR 0144
ENCODING 324
SWIDTH 607 0
DWIDTH 17 0
BBX 13 20 2 0
BITMAP
01C0
0180
0300
0300
0000
0000
E7C0
EFE0
F870
F030
E030
E038
E038
E038
E038
E038
E038
E038
E038
E038
ENDCHAR
STARTCHAR 0147
ENCODING 327
SWIDTH 750 0
DWIDTH 21 0
BBX 16 25 3 0
BITMAP
0460
0660
03C0
0180
0000
E007
F007
F807
D807
DC07
CE07
CE07
C707
C387
C387
C1C7
C0E7
C0E7
C077
C037
C03F
C01F
C00F
C00F
C007
ENDCHAR
STARTCHAR 0148
ENCODING 328
SWIDTH 607 0
DWIDTH 17 0
BBX 13 20 2 0
BITMAP
18C0
0D80
0780
0700
0000
0000
E7C0
EFE0
F870
F030
E030
E038
E038
E038
E038
E038
E038
E038
E038
E038
ENDCHAR
STARTCHAR 014B
ENCODING 331
SWIDTH 607 0
DWIDTH 17 0
BBX 13 19 2 -5
BITMAP
E7C0
EFF0
F870
F030
E038
E038
E038
E038
E038
E038
E038
E038
E038
E038
0030
0030
0070
03E0
01C0
ENDCHAR
STARTCHAR 014C
ENCODING 332
SWIDTH 785 0
DWIDTH 22 0
BBX 19 24 2 0
BITMAP
07F800
07F800
000000
000000
03F000
0FFC00
1E0F00
380780
700380
E001C0
E001C0
E000C0
C000C0
C000E0
C000E0
C000C0
E000C0
E001C0
6001C0
700380
380780
1C0F00
0FFC00
03F000
ENDCHAR
STARTCHAR 014D
ENCODING 333
SWIDTH 607 0
DWIDTH 17 0
BBX 14 19 1 0
BITMAP
0FE0
0FE0
0000
0000
0000
07C0
1FF0
3878
701C
601C
600C
E00C
E00C
E00C
601C
701C
3838
1FF0
0FC0
ENDCHAR
STARTCHAR 0150
ENCODING 336
SWIDTH 785 0
DWIDTH 22 0
BBX 19 25 2 0
BITMAP
00CC00
019C00
019800
013000
000000
03F000
0FFC00
1E0F00
380780
700380
E001C0
E001C0
E000C0
C000C0
C000E0
C000E0
C000C0
E000C0
E001C0
6001C0
700380
380780
1C0F00
0FFC00
03F000
ENDCHAR
STARTCHAR 0151
ENCODING 337
SWIDTH 607 0
DWIDTH 17 0
BBX 14 20 1 0
BITMAP
0330
0370
0660
04C0
0000
0000
07C0
1FF0
3878
701C
601C
600C
E00C
E00C
E00C
601C
701C
3838
1FF0
0FC0
ENDCHAR
STARTCHAR 0152
ENCODING 338
SWIDTH 1000 0
DWIDTH 28 0
BBX 25 20 2 0
BITMAP
03FFFF00
0FFFFF00
3E0E0000
380E0000
700E0000
E00E0000
E00E0000
E00E0000
C00FFE00
C00FFE00
C00E0000
C00E0000
E00E0000
E00E0000
600E0000
700E0000
380E0000
1C0E0000
0FFFFF80
03FFFF80
ENDCHAR
STARTCHAR 0153
ENCODING 339
SWIDTH 964 0
DWIDTH 27 0
BBX 25 14 1 0
BITMAP
07C1F800
1FF3FE00
387F0E00
701E0300
601C0300
E00FFF00
E00FFF80
E00C0000
E00C0000
601E0000
701E0300
383F8700
1FF3FE00
07C0FC00
ENDCHAR
STARTCHAR 0154
ENCODING 340
SWIDTH 642 0
DWIDTH 18 0
BBX 15 25 3 0
BITMAP
0380
0300
0600
0E00
0000
FF80
FFE0
C070
C038
C038
C018
C038
C038
C0F0
FFC0
FF00
C3C0
C0E0
C060
C070
C038
C038
C01C
C01C
C00E
ENDCHAR
STARTCHAR 0155
ENCODING 341
SWIDTH 357 0
DWIDTH 10 0
BBX 8 20 2 0
BITMAP
0E
0C
18
18
00
00
E7
EF
F8
F0
F0
E0
E0
E0
E0
E0
E0
E0
E0
E0
ENDCHAR
STARTCHAR 0158
ENCODING 344
SWIDTH 642 0
DWIDTH 18 0
BBX 15 25 3 0
BITMAP
1080
1980
0F00
0600
0000
FF80
FFE0
C070
C038
C038
C018
C038
C038
C0F0
FFC0
FF00
C3C0
C0E0
C060
C070
C038
C038
C01C
C01C
C00E
ENDCHAR
STARTCHAR 0159
ENCODING 345
SWIDTH 357 0
DWIDTH 10 0
BBX 8 20 2 0
BITMAP
C6
6C
3C
38
00
00
E7
EF
F8
F0
F0
E0
E0
E0
E0
E0
E0
E0
E0
E0
ENDCHAR
STARTCHAR 015A
ENCODING 346
SWIDTH 571 0
DWIDTH 16 0
BBX 13 25 2 0
BITMAP
01C0
0380
0300
0600
0000
1F80
3FE0
7070
E030
E000
E000
E000
7000
7C00
1F80
07E0
01F0
0070
0038
0038
0038
C038
F070
7FE0
1F80
ENDCHAR
STARTCHAR 015B
ENCODING 347
SWIDTH 464 0
DWIDTH 13 0
BBX 10 20 2 0
BITMAP
0700
0600
0C00
1800
0000
0000
3E00
FF80
E100
C000
C000
E000
7C00
0F00
0380
01C0
01C0
C180
FF80
3E00
ENDCHAR
STARTCHAR 015C
ENCODING 348
SWIDTH 571 0
DWIDTH 16 0
BBX 13 25 2 0
BITMAP
0700
0F80
0980
18C0
0000
1F80
3FE0
7070
E030
E000
E000
E000
7000
7C00
1F80
07E0
01F0
0070
0038
0038
0038
C038
F070
7FE0
1F80
ENDCHAR
STARTCHAR 015D
ENCODING 349
SWIDTH 464 0
DWIDTH 13 0
BBX 10 20 2 0
BITMAP
1C00
3E00
3300
6100
0000
0000
3E00
FF80
E100
C000
C000
E000
7C00
0F00
0380
01C0
01C0
C180
FF80
3E00
ENDCHAR
STARTCHAR 015E
ENCODING 350
SWIDTH 571 0
DWIDTH 16 0
BBX 13 27 2 -7
BITMAP
1F80
3FE0
7070
E030
E000
E000
E000
7000
7C00
1F80
07E0
01F0
0070
0038
0038
0038
C038
F070
7FE0
1F80
0000
0600
0600
0600
0C00
0C00
0C00
ENDCHAR
STARTCHAR 015F
ENCODING 351
SWIDTH 464 0
DWIDTH 13 0
BBX 10 21 2 -7
BITMAP
3E00
FF80
E100
C000
C000
E000
7C00
0F00
0380
01C0
01C0
C180
FF80
3E00
0000
1800
1800
3000
3000
3000
2000
ENDCHAR
STARTCHAR 0160
ENCODING 352
SWIDTH 571 0
DWIDTH 16 0
BBX 13 25 2 0
BITMAP
1080
1980
0F00
0600
0000
1F80
3FE0
7070
E030
E000
E000
E000
7000
7C00
1F80
07E0
01F0
0070
0038
0038
0038
C038
F070
7FE0
1F80
ENDCHAR
STARTCHAR 0161
ENCODING 353
SWIDTH 464 0
DWIDTH 13 0
BBX 10 20 2 0
BITMAP
6300
3600
3C00
1C00
0000
0000
3E00
FF80
E100
C000
C000
E000
7C00
0F00
0380
01C0
01C0
C180
FF80
3E00
ENDCHAR
STARTCHAR 0162
ENCODING 354
SWIDTH 607 0
DWIDTH 17 0
BBX 17 27 0 -7
BITMAP
FFFF80
FFFF80
01C000
01C000
01C000
01C000
01C000
01C000
01C000
01C000
01C000
01C000
01C000
01C000
01C000
01C000
01C000
01C000
01C000
01C000
000000
018000
018000
018000
030000
030000
020000
ENDCHAR
STARTCHAR 0163
ENCODING 355
SWIDTH 357 0
DWIDTH 10 0
BBX 8 25 1 -7
BITMAP
10
30
30
30
FF
FF
30
30
30
30
30
30
30
30
30
30
3F
1F
00
0C
18
18
18
10
30
ENDCHAR
STARTCHAR 0164
ENCODING 356
SWIDTH 607 0
DWIDTH 17 0
BBX 17 25 0 0
BITMAP
063000
036000
03C000
01C000
000000
FFFF80
FFFF80
01C000
01C000
01C000
01C000
01C000
01C000
01C000
01C000
01C000
01C000
01C000
01C000
01C000
01C000
01C000
01C000
01C000
01C000
ENDCHAR
STARTCHAR 0165
ENCODING 357
SWIDTH 357 0
DWIDTH 10 0
BBX 10 21 1 0
BITMAP
00C0
0180
0180
1180
3100
3300
3000
FF00
FF00
3000
3000
3000
3000
3000
3000
3000
3000
3000
3000
3F00
1F00
ENDCHAR
STARTCHAR 016A
ENCODING 362
SWIDTH 750 0
DWIDTH 21 0
BBX 16 24 2 0
BITMAP
07F0
07F0
0000
0000
E003
E003
E003
E003
E003
E003
E003
E003
E003
E003
E003
E003
E003
E003
6003
6007
7007
3C1E
1FFC
07F0
ENDCHAR
STARTCHAR 016B
ENCODING 363
SWIDTH 607 0
DWIDTH 17 0
BBX 12 19 2 0
BITMAP
1FC0
1FC0
0000
0000
0000
E030
E030
E030
E030
E030
E030
E030
E030
E030
E030
E070
70F0
7FB0
1F30
ENDCHAR
STARTCHAR 016C
ENCODING 364
SWIDTH 750 0
DWIDTH 21 0
BBX 16 25 2 0
BITMAP
0410
07F0
03E0
0000
0000
E003
E003
E003
E003
E003
E003
E003
E003
E003
E003
E003
E003
E003
E003
6003
6007
7007
3C1E
1FFC
07F0
ENDCHAR
STARTCHAR 016D
ENCODING 365
SWIDTH 607 0
DWIDTH 17 0
BBX 12 20 2 0
BITMAP
1040
18C0
1FC0
0F80
0000
0000
E030
E030
E030
E030
E030
E030
E030
E030
E030
E030
E070
70F0
7FB0
1E30
ENDCHAR
STARTCHAR 016E
ENCODING 366
SWIDTH 750 0
DWIDTH 21 0
BBX 16 26 2 0
BITMAP
01C0
0220
0220
0220
01C0
0000
E003
E003
E003
E003
E003
E003
E003
E003
E003
E003
E003
E003
E003
E003
6003
6007
7007
3C1E
1FFC
07F0
ENDCHAR
STARTCHAR 016F
ENCODING 367
SWIDTH 607 0
DWIDTH 17 0
BBX 12 20 2 0
BITMAP
0700
0880
0880
0700
0000
0000
E030
E030
E030
E030
E030
E030
E030
E030
E030
E030
E070
70F0
7FB0
1E30
ENDCHAR
STARTCHAR 0170
ENCODING 368
SWIDTH 750 0
DWIDTH 21 0
BBX 16 25 2 0
BITMAP
0198
0198
0330
0360
0000
E003
E003
E003
E003
E003
E003
E003
E003
E003
E003
E003
E003
E003
E003
6003
6007
7007
3C1E
1FFC
07F0
ENDCHAR
STARTCHAR 0171
ENCODING 369
SWIDTH 607 0
DWIDTH 17 0
BBX 12 20 2 0
BITMAP
0670
0660
0CC0
0C80
0000
0000
E030
E030
E030
E030
E030
E030
E030
E030
E030
E030
E070
70F0
7FB0
1E30
ENDCHAR
STARTCHAR 0179
ENCODING 377
SWIDTH 642 0
DWIDTH 18 0
BBX 16 25 1 0
BITMAP
00E0
00C0
01C0
0180
0000
7FFE
7FFE
000E
001C
0038
0038
0070
00E0
01C0
01C0
0380
0700
0E00
0E00
1C00
3800
7000
7000
FFFF
FFFF
ENDCHAR
STARTCHAR 017A
ENCODING 378
SWIDTH 464 0
DWIDTH 13 0
BBX 11 20 1 0
BITMAP
0380
0700
0600
0C00
0000
0000
7FE0
7FE0
00C0
0180
0380
0700
0600
0C00
1C00
3800
7000
6000
FFE0
FFE0
ENDCHAR
STARTCHAR 017B
ENCODING 379
SWIDTH 642 0
DWIDTH 18 0
BBX 16 25 1 0
BITMAP
0180
0180
0180
0000
0000
7FFE
7FFE
000E
001C
0038
0038
0070
00E0
01C0
01C0
0380
0700
0E00
0E00
1C00
3800
7000
7000
FFFF
FFFF
ENDCHAR
STARTCHAR 017C
ENCODING 380
SWIDTH 464 0
DWIDTH 13 0
BBX 11 20 1 0
BITMAP
0E00
0E00
0E00
0000
0000
0000
7FE0
7FE0
00C0
0180
0380
0700
0600
0C00
1C00
3800
7000
6000
FFE0
FFE0
ENDCHAR
STARTCHAR 017D
ENCODING 381
SWIDTH 642 0
DWIDTH 18 0
BBX 16 25 1 0
BITMAP
0460
0660
03C0
0180
0000
7FFE
7FFE
000E
001C
0038
0038
0070
00E0
01C0
01C0
0380
0700
0E00
0E00
1C00
3800
7000
7000
FFFF
FFFF
ENDCHAR
STARTCHAR 017E
ENCODING 382
SWIDTH 464 0
DWIDTH 13 0
BBX 11 20 1 0
BITMAP
3180
1B80
0F00
0E00
0000
0000
7FE0
7FE0
00C0
0180
0380
0700
0600
0C00
1C00
3800
3000
6000
FFE0
FFE0
ENDCHAR
STARTCHAR 0193
ENCODING 403
SWIDTH 750 0
DWIDTH 21 0
BBX 20 23 2 0
BITMAP
0000E0
0001F0
000190
03F380
0FFF80
1E0F80
380380
700300
600000
E00000
E00000
C00000
C00000
C01F80
C01F80
E00180
E00180
E00180
700180
780380
3E0780
0FFE00
03F800
ENDCHAR
STARTCHAR 01C2
ENCODING 450
SWIDTH 500 0
DWIDTH 14 0
BBX 12 20 1 0
BITMAP
0600
0600
0600
0600
0600
0600
FFF0
FFF0
0600
0600
0600
FFF0
FFF0
0600
0600
0600
0600
0600
0600
0600
ENDCHAR
STARTCHAR 01CD
ENCODING 461
SWIDTH 642 0
DWIDTH 18 0
BBX 18 25 0 0
BITMAP
023000
036000
01E000
00C000
000000
00C000
01E000
01E000
03E000
037000
033000
073800
063800
0E1800
0C1C00
0C0C00
1C0C00
1FFE00
1FFE00
380700
300700
700300
700380
600180
E001C0
ENDCHAR
STARTCHAR 01CE
ENCODING 462
SWIDTH 535 0
DWIDTH 15 0
BBX 12 20 2 0
BITMAP
3080
1980
0F00
0600
0000
0000
1F00
7FC0
F0E0
0060
0060
01E0
3FE0
F860
C060
C060
C0E0
E1E0
7F60
3E70
ENDCHAR
STARTCHAR 01D0
ENCODING 464
SWIDTH 285 0
DWIDTH 8 0
BBX 7 20 0 0
BITMAP
C6
6C
3C
18
00
00
18
18
18
18
18
18
18
18
18
18
18
18
18
18
ENDCHAR
STARTCHAR 01D1
ENCODING 465
SWIDTH 785 0
DWIDTH 22 0
BBX 19 25 2 0
BITMAP
021000
033000
01E000
00C000
000000
03F000
0FFC00
1E0F00
380780
700380
E001C0
E001C0
E000C0
C000E0
C000E0
C000E0
C000E0
E000C0
E001C0
E001C0
700380
380780
1E0F00
0FFC00
03F000
ENDCHAR
STARTCHAR 01D2
ENCODING 466
SWIDTH 607 0
DWIDTH 17 0
BBX 14 20 1 0
BITMAP
0C60
06C0
0780
0380
0000
0000
07C0
1FF0
3878
701C
601C
E00C
E00C
E00C
E00C
601C
701C
3878
1FF0
07C0
ENDCHAR
STARTCHAR 01D4
ENCODING 468
SWIDTH 607 0
DWIDTH 17 0
BBX 12 20 2 0
BITMAP
18C0
0D80
0F00
0700
0000
0000
E030
E030
E030
E030
E030
E030
E030
E030
E030
E030
E070
70F0
7FB0
1E30
ENDCHAR
STARTCHAR 01D6
ENCODING 470
SWIDTH 607 0
DWIDTH 17 0
BBX 12 23 2 0
BITMAP
1FC0
1FC0
0000
0000
38C0
38C0
0000
0000
0000
E030
E030
E030
E030
E030
E030
E030
E030
E030
E030
E070
70F0
7FB0
1F30
ENDCHAR
STARTCHAR 01D8
ENCODING 472
SWIDTH 607 0
DWIDTH 17 0
BBX 12 24 2 0
BITMAP
0180
0300
0300
0600
0000
38C0
38C0
0000
0000
0000
E030
E030
E030
E030
E030
E030
E030
E030
E030
E030
E070
70F0
7FB0
1E30
ENDCHAR
STARTCHAR 01DA
ENCODING 474
SWIDTH 607 0
DWIDTH 17 0
BBX 12 24 2 0
BITMAP
18C0
0D80
0F00
0700
0000
38C0
38C0
0000
0000
0000
E030
E030
E030
E030
E030
E030
E030
E030
E030
E030
E070
70F0
7FB0
1E30
ENDCHAR
STARTCHAR 01DC
ENCODING 476
SWIDTH 607 0
DWIDTH 17 0
BBX 12 24 2 0
BITMAP
0C00
0E00
0600
0300
0000
38C0
38C0
0000
0000
0000
E030
E030
E030
E030
E030
E030
E030
E030
E030
E030
E070
70F0
7FB0
1E30
ENDCHAR
STARTCHAR 01F8
ENCODING 504
SWIDTH 750 0
DWIDTH 21 0
BBX 16 25 3 0
BITMAP
0600
0700
0300
0180
0000
E007
F007
F807
D807
DC07
CE07
CE07
C707
C387
C387
C1C7
C0E7
C0E7
C077
C037
C03F
C01F
C00F
C00F
C007
ENDCHAR
STARTCHAR 01F9
ENCODING 505
SWIDTH 607 0
DWIDTH 17 0
BBX 13 20 2 0
BITMAP
1C00
0C00
0600
0600
0000
0000
E7C0
EFE0
F870
F030
E030
E038
E038
E038
E038
E038
E038
E038
E038
E038
ENDCHAR
STARTCHAR 01FD
ENCODING 509
SWIDTH 892 0
DWIDTH 25 0
BBX 21 20 2 0
BITMAP
001C00
001800
003000
003000
000000
000000
1F8FC0
7FDFE0
E0F870
007038
006018
1FFFF8
7FFFF8
F06000
C06000
C06000
C0F018
E1B838
7F1FF0
3E07C0
ENDCHAR
STARTCHAR 0250
ENCODING 592
SWIDTH 535 0
DWIDTH 15 0
BBX 12 14 2 0
BITMAP
CF80
DFE0
F8E0
E070
E070
C070
C1E0
FFC0
F000
E000
E040
70E0
7FC0
1F00
ENDCHAR
STARTCHAR 0251
ENCODING 593
SWIDTH 607 0
DWIDTH 17 0
BBX 14 14 1 0
BITMAP
0FCC
1FEC
383C
701C
601C
E00C
E00C
E00C
E00C
601C
703C
387C
3FEC
0F8C
ENDCHAR
STARTCHAR 0252
ENCODING 594
SWIDTH 607 0
DWIDTH 17 0
BBX 14 14 2 0
BITMAP
C7C0
CFF0
F878
7018
601C
601C
600C
600C
601C
601C
7018
7878
7FF0
47C0
ENDCHAR
STARTCHAR 0253
ENCODING 595
SWIDTH 607 0
DWIDTH 17 0
BBX 13 20 3 0
BITMAP
1F80
7FC0
70E0
E040
C000
C000
CF80
DFE0
F0F0
E070
C038
C038
C038
C038
C038
C038
E070
F0F0
FFE0
CF80
ENDCHAR
STARTCHAR 0254
ENCODING 596
SWIDTH 535 0
DWIDTH 15 0
BBX 13 14 1 0
BITMAP
1F80
3FE0
70E0
6070
0030
0038
0038
0038
0038
0030
4070
F0E0
7FC0
1F80
ENDCHAR
STARTCHAR 0255
ENCODING 597
SWIDTH 535 0
DWIDTH 15 0
BBX 14 17 1 -3
BITMAP
0FC0
1FF0
3878
7010
6000
6000
E000
E000
E078
60CC
718C
3B1C
3FF8
0FF0
0C00
0C00
0400
ENDCHAR
STARTCHAR 0256
ENCODING 598
SWIDTH 607 0
DWIDTH 17 0
BBX 18 26 1 -5
BITMAP
001C00
001C00
001C00
001C00
001C00
001C00
001C00
0F9C00
1FFC00
387C00
701C00
601C00
E01C00
E01C00
E01C00
601C00
601C00
703C00
387C00
1FEC00
0F8C00
000C00
000C00
000C00
000FC0
000780
ENDCHAR
STARTCHAR 0257
ENCODING 599
SWIDTH 607 0
DWIDTH 17 0
BBX 17 21 1 0
BITMAP
000780
000F80
000C00
001C00
001C00
001C00
001C00
0F9C00
1FFC00
387C00
701C00
601C00
E01C00
E01C00
E01C00
601C00
601C00
703C00
387C00
1FEC00
0F8C00
ENDCHAR
STARTCHAR 0258
ENCODING 600
SWIDTH 571 0
DWIDTH 16 0
BBX 13 14 1 0
BITMAP
0F80
3FE0
7870
6038
6018
FFF8
FFF8
0018
0018
0038
6038
7070
3FE0
1F80
ENDCHAR
STARTCHAR 0259
ENCODING 601
SWIDTH 571 0
DWIDTH 16 0
BBX 13 14 1 0
BITMAP
0F80
3FE0
7070
0038
0018
0018
FFF8
FFF8
6018
6038
6038
3870
1FE0
0FC0
ENDCHAR
STARTCHAR 025A
ENCODING 602
SWIDTH 821 0
DWIDTH 23 0
BBX 22 14 1 0
BITMAP
0FC000
1FF080
387980
603F80
601EC0
C03CC0
C0FE6C
03CE78
0F0E30
1C0C00
380C00
1C3800
0FF000
03E000
ENDCHAR
STARTCHAR 025C
ENCODING 604
SWIDTH 500 0
DWIDTH 14 0
BBX 12 14 1 0
BITMAP
FF80
7FC0
00E0
00E0
00E0
0FC0
3F00
3FC0
0060
0070
0070
80E0
FFE0
7F80
ENDCHAR
STARTCHAR 025E
ENCODING 606
SWIDTH 607 0
DWIDTH 17 0
BBX 14 14 1 0
BITMAP
07E0
1FF8
3838
7018
6018
6078
E3C0
E0F8
601C
600C
701C
383C
1FF8
07E0
ENDCHAR
STARTCHAR 025F
ENCODING 607
SWIDTH 285 0
DWIDTH 8 0
BBX 8 20 -1 -5
BITMAP
0C
0C
0C
0C
0C
0C
0C
0C
0C
0C
0C
0C
0C
7F
0C
1C
1C
38
F0
60
ENDCHAR
STARTCHAR 0260
ENCODING 608
SWIDTH 607 0
DWIDTH 17 0
BBX 17 26 1 -5
BITMAP
000780
000F80
000C00
001C00
001C00
001C00
001C00
0FDC00
1FFC00
387C00
701C00
601C00
601C00
E01C00
E01C00
E01C00
601C00
701C00
387C00
3FFC00
0F9C00
001C00
201800
703800
3FF000
0FC000
ENDCHAR
STARTCHAR 0261
ENCODING 609
SWIDTH 607 0
DWIDTH 17 0
BBX 14 19 1 -5
BITMAP
0FCC
1FEC
387C
701C
601C
601C
E01C
E01C
E01C
601C
701C
387C
3FFC
0F9C
001C
2018
7038
3FF0
0FC0
ENDCHAR
STARTCHAR 0264
ENCODING 612
SWIDTH 571 0
DWIDTH 16 0
BBX 16 14 0 0
BITMAP
F00F
7C1F
1E78
07E0
03C0
03C0
07E0
0670
0E30
0C30
0C30
0E70
07F0
03C0
ENDCHAR
STARTCHAR 0265
ENCODING 613
SWIDTH 607 0
DWIDTH 17 0
BBX 12 20 2 -6
BITMAP
E030
E030
E030
E030
E030
E030
E030
E030
E030
E030
E070
70F0
7FB0
1F30
0030
0030
0030
0030
0030
0030
ENDCHAR
STARTCHAR 0266
ENCODING 614
SWIDTH 607 0
DWIDTH 17 0
BBX 12 20 3 0
BITMAP
1F80
7FC0
70E0
E040
C000
C000
CF80
DFE0
F0E0
E060
C070
C070
C070
C070
C070
C070
C070
C070
C070
C070
ENDCHAR
STARTCHAR 0267
ENCODING 615
SWIDTH 607 0
DWIDTH 17 0
BBX 12 25 3 -5
BITMAP
1F80
7FC0
70E0
E040
C000
C000
CF80
DFE0
F0E0
E060
C070
C070
C070
C070
C070
C070
C070
C070
C070
C070
0070
0060
00E0
07C0
0380
ENDCHAR
STARTCHAR 0268
ENCODING 616
SWIDTH 285 0
DWIDTH 8 0
BBX 8 20 0 0
BITMAP
18
18
18
00
00
00
18
18
18
18
18
FF
FF
18
18
18
18
18
18
18
ENDCHAR
STARTCHAR 026C
ENCODING 620
SWIDTH 321 0
DWIDTH 9 0
BBX 10 21 -1 0
BITMAP
0300
0300
0300
0300
0300
7B00
4700
C700
C300
6300
3FC0
07C0
0300
0300
0300
0300
0300
0300
0300
0300
0300
ENDCHAR
STARTCHAR 026D
ENCODING 621
SWIDTH 285 0
DWIDTH 8 0
BBX 6 26 3 -5
BITMAP
C0
C0
C0
C0
C0
C0
C0
C0
C0
C0
C0
C0
C0
C0
C0
C0
C0
C0
C0
C0
C0
C0
C0
C8
FC
70
ENDCHAR
STARTCHAR 026E
ENCODING 622
SWIDTH 642 0
DWIDTH 18 0
BBX 14 26 3 -5
BITMAP
C000
C000
C000
C000
C000
C000
C000
FFF8
FFF8
C030
C0E0
C1C0
C380
C700
CFE0
DFF0
C878
C018
C018
C01C
C01C
0018
3018
3838
1FF0
07C0
ENDCHAR
STARTCHAR 026F
ENCODING 623
SWIDTH 857 0
DWIDTH 24 0
BBX 20 14 2 0
BITMAP
E06070
E06070
E06070
E06070
E06070
E06070
E06070
E06070
E06070
E06070
60F070
71F0F0
3FBFB0
1E1F30
ENDCHAR
STARTCHAR 0270
ENCODING 624
SWIDTH 857 0
DWIDTH 24 0
BBX 20 20 2 -6
BITMAP
E06030
E06030
E06030
E06030
E06030
E06030
E06030
E06030
E06030
606070
60F070
71B0F0
3FBFB0
1E1F30
000030
000030
000030
000030
000030
000030
ENDCHAR
STARTCHAR 0271
ENCODING 625
SWIDTH 857 0
DWIDTH 24 0
BBX 20 19 2 -5
BITMAP
E787C0
FFCFE0
F8F870
F07070
E07070
E06030
E06030
E06030
E06030
E06030
E06030
E06030
E06030
E06030
000070
000070
0000E0
0003E0
000380
ENDCHAR
STARTCHAR 0272
ENCODING 626
SWIDTH 607 0
DWIDTH 17 0
BBX 16 19 -1 -5
BITMAP
1CF8
1DFE
1F0E
1E06
1C07
1C07
1C07
1C07
1C07
1C07
1C07
1C07
1C07
1C07
1C00
1C00
3800
F800
E000
ENDCHAR
STARTCHAR 0273
ENCODING 627
SWIDTH 607 0
DWIDTH 17 0
BBX 17 19 2 -5
BITMAP
E7C000
EFF000
F87000
F03000
E03800
E03800
E03800
E03800
E03800
E03800
E03800
E03800
E03800
E03800
003800
003800
003900
001F80
000E00
ENDCHAR
STARTCHAR 0275
ENCODING 629
SWIDTH 607 0
DWIDTH 17 0
BBX 14 14 1 0
BITMAP
0FC0
3FF0
3878
701C
601C
E00C
FFFC
FFFC
600C
601C
701C
3838
1FF0
07C0
ENDCHAR
STARTCHAR 0279
ENCODING 633
SWIDTH 357 0
DWIDTH 10 0
BBX 8 14 0 0
BITMAP
07
07
07
07
07
07
07
07
07
0F
0F
1F
F7
E7
ENDCHAR
STARTCHAR 027A
ENCODING 634
SWIDTH 357 0
DWIDTH 10 0
BBX 8 19 0 0
BITMAP
07
07
07
07
07
07
07
07
07
07
07
07
07
07
0F
0F
1F
F7
E7
ENDCHAR
STARTCHAR 027B
ENCODING 635
SWIDTH 392 0
DWIDTH 11 0
BBX 11 19 0 -5
BITMAP
0700
0700
0700
0700
0700
0700
0700
0700
0700
0F00
0F00
1F00
F700
E700
0700
0700
0320
03E0
01C0
ENDCHAR
STARTCHAR 027D
ENCODING 637
SWIDTH 357 0
DWIDTH 10 0
BBX 8 19 2 -5
BITMAP
E7
EF
F8
F0
F0
E0
E0
E0
E0
E0
E0
E0
E0
E0
E0
E0
60
7E
3C
ENDCHAR
STARTCHAR 027E
ENCODING 638
SWIDTH 392 0
DWIDTH 11 0
BBX 8 14 2 0
BITMAP
1F
3F
70
60
E0
E0
E0
E0
E0
E0
E0
E0
E0
E0
ENDCHAR
STARTCHAR 0281
ENCODING 641
SWIDTH 535 0
DWIDTH 15 0
BBX 11 14 3 0
BITMAP
C0E0
C0E0
C1C0
C1C0
C380
C700
FE00
FF80
C1C0
C0C0
C0C0
C1C0
FF80
FF00
ENDCHAR
STARTCHAR 0282
ENCODING 642
SWIDTH 464 0
DWIDTH 13 0
BBX 11 19 1 -5
BITMAP
1F00
7FC0
7080
6000
6000
7000
3E00
0780
01C0
00E0
00E0
E0C0
FFC0
DF00
C000
C000
C000
7C00
7800
ENDCHAR
STARTCHAR 0283
ENCODING 643
SWIDTH 321 0
DWIDTH 9 0
BBX 8 28 0 -7
BITMAP
07
0F
1C
18
18
18
18
18
18
18
18
18
18
18
18
18
18
18
18
18
18
18
18
18
38
38
F0
40
ENDCHAR
STARTCHAR 0284
ENCODING 644
SWIDTH 321 0
DWIDTH 9 0
BBX 11 26 -1 -5
BITMAP
03E0
07E0
0E00
0C00
0C00
0C00
0C00
0C00
0C00
0C00
0C00
0C00
0C00
0C00
0C00
0C00
0C00
0C00
0C00
7F80
7F80
0C00
1C00
1C00
F800
6000
ENDCHAR
STARTCHAR 0288
ENCODING 648
SWIDTH 357 0
DWIDTH 10 0
BBX 8 23 1 -5
BITMAP
10
30
30
30
FF
FF
30
30
30
30
30
30
30
30
30
30
30
30
30
30
39
3F
1E
ENDCHAR
STARTCHAR 0289
ENCODING 649
SWIDTH 607 0
DWIDTH 17 0
BBX 16 14 0 0
BITMAP
380C
380C
380C
380C
380C
FFFF
FFFF
380C
380C
380C
381C
1C3C
1FEC
07CC
ENDCHAR
STARTCHAR 028A
ENCODING 650
SWIDTH 607 0
DWIDTH 17 0
BBX 15 14 1 0
BITMAP
FC7E
FC7E
1C60
3830
3018
701C
601C
600C
601C
701C
7018
3878
1FF0
07C0
ENDCHAR
STARTCHAR 028B
ENCODING 651
SWIDTH 571 0
DWIDTH 16 0
BBX 12 14 2 0
BITMAP
E1C0
E1E0
E070
E030
E030
E030
E030
E030
E030
E070
E070
70E0
7FC0
1F00
ENDCHAR
STARTCHAR 028C
ENCODING 652
SWIDTH 500 0
DWIDTH 14 0
BBX 13 14 0 0
BITMAP
0300
0700
0780
0D80
0DC0
0CC0
18C0
18E0
3860
3070
3030
7030
6038
E018
ENDCHAR
STARTCHAR 028D
ENCODING 653
SWIDTH 750 0
DWIDTH 21 0
BBX 21 14 0 0
BITMAP
060300
0E0380
0F0780
0F0780
1B07C0
198CC0
198CC0
398CE0
30D860
30D860
70D870
607030
607030
E07038
ENDCHAR
STARTCHAR 028E
ENCODING 654
SWIDTH 500 0
DWIDTH 14 0
BBX 13 20 0 0
BITMAP
0010
00F0
00F0
01C0
0180
0300
0300
0700
0780
0780
0D80
0CC0
1CC0
18E0
3860
3070
3030
7038
6038
E018
ENDCHAR
STARTCHAR 0290
ENCODING 656
SWIDTH 464 0
DWIDTH 13 0
BBX 14 19 1 -5
BITMAP
7FE0
7FE0
00C0
0180
0380
0700
0600
0C00
1C00
3800
7000
6000
FFE0
FFE0
0060
0060
0064
007C
0038
ENDCHAR
STARTCHAR 0291
ENCODING 657
SWIDTH 500 0
DWIDTH 14 0
BBX 13 17 1 -3
BITMAP
7FE0
7FE0
00C0
0180
0380
0700
0600
0C00
18F0
3998
3308
6618
FFF8
FFF0
0C00
1800
0800
ENDCHAR
STARTCHAR 0292
ENCODING 658
SWIDTH 500 0
DWIDTH 14 0
BBX 12 19 1 -5
BITMAP
7FE0
7FE0
00E0
0180
0300
0600
0C00
1F80
7FC0
20E0
0060
0070
0070
0070
0070
C060
E0E0
7FC0
1F00
ENDCHAR
STARTCHAR 0294
ENCODING 660
SWIDTH 464 0
DWIDTH 13 0
BBX 12 20 1 0
BITMAP
1F00
7FC0
E0E0
C060
4070
0070
0060
00E0
07C0
0780
0600
0600
0600
0600
0600
0600
0600
0600
0600
0600
ENDCHAR
STARTCHAR 0295
ENCODING 661
SWIDTH 464 0
DWIDTH 13 0
BBX 12 20 1 0
BITMAP
1F80
7FC0
70E0
E070
C000
C000
E000
6000
7C00
1E00
0600
0600
0600
0600
0600
0600
0600
0600
0600
0600
ENDCHAR
STARTCHAR 0298
ENCODING 664
SWIDTH 642 0
DWIDTH 18 0
BBX 15 14 1 0
BITMAP
07C0
1FF0
3838
700C
6186
43C6
C7C6
C3C6
4386
6006
700C
3838
1FF0
07C0
ENDCHAR
STARTCHAR 029D
ENCODING 669
SWIDTH 357 0
DWIDTH 10 0
BBX 11 25 -1 -5
BITMAP
0380
0380
0380
0000
0000
0000
0300
0300
0300
0300
0300
0300
0300
0300
0300
0300
0300
0300
0300
0300
7F00
C3E0
C720
7F00
3E00
ENDCHAR
STARTCHAR 02A1
ENCODING 673
SWIDTH 464 0
DWIDTH 13 0
BBX 12 20 1 0
BITMAP
1F00
7FC0
E0E0
C060
4070
0070
0060
00E0
07C0
0780
0600
0600
3F80
0600
0600
0600
0600
0600
0600
0600
ENDCHAR
STARTCHAR 02A2
ENCODING 674
SWIDTH 464 0
DWIDTH 13 0
BBX 12 20 1 0
BITMAP
1F80
7FC0
70E0
E070
C000
C000
E000
6000
7C00
1E00
0600
0600
3F80
0600
0600
0600
0600
0600
0600
0600
ENDCHAR
STARTCHAR 02BB
ENCODING 699
SWIDTH 1000 0
DWIDTH 28 0
BBX 4 8 22 16
BITMAP
10
30
60
60
C0
F0
F0
F0
ENDCHAR
STARTCHAR 02BC
ENCODING 700
SWIDTH 1000 0
DWIDTH 28 0
BBX 4 8 2 15
BITMAP
F0
F0
F0
30
60
60
C0
80
ENDCHAR
STARTCHAR 02C6
ENCODING 710
SWIDTH 500 0
DWIDTH 14 0
BBX 8 4 3 16
BITMAP
3C
3C
66
C3
ENDCHAR
STARTCHAR 02C7
ENCODING 711
SWIDTH 500 0
DWIDTH 14 0
BBX 6 3 4 17
BITMAP
CC
FC
78
ENDCHAR
STARTCHAR 02C8
ENCODING 712
SWIDTH 214 0
DWIDTH 6 0
BBX 2 11 2 10
BITMAP
C0
C0
C0
C0
C0
C0
C0
C0
C0
C0
C0
ENDCHAR
STARTCHAR 02CC
ENCODING 716
SWIDTH 214 0
DWIDTH 6 0
BBX 2 10 2 -4
BITMAP
C0
C0
C0
C0
C0
C0
C0
C0
C0
C0
ENDCHAR
STARTCHAR 02D0
ENCODING 720
SWIDTH 285 0
DWIDTH 8 0
BBX 4 14 2 0
BITMAP
F0
70
60
20
00
00
00
00
00
00
20
60
70
F0
ENDCHAR
STARTCHAR 02D1
ENCODING 721
SWIDTH 285 0
DWIDTH 8 0
BBX 4 4 2 10
BITMAP
F0
70
60
20
ENDCHAR
STARTCHAR 02D8
ENCODING 728
SWIDTH 500 0
DWIDTH 14 0
BBX 8 3 3 17
BITMAP
C3
7E
3C
ENDCHAR
STARTCHAR 02D9
ENCODING 729
SWIDTH 500 0
DWIDTH 14 0
BBX 2 3 6 17
BITMAP
C0
C0
C0
ENDCHAR
STARTCHAR 02DB
ENCODING 731
SWIDTH 500 0
DWIDTH 14 0
BBX 6 6 4 -6
BITMAP
38
60
E0
C0
FC
7C
ENDCHAR
STARTCHAR 02DC
ENCODING 732
SWIDTH 500 0
DWIDTH 14 0
BBX 10 3 2 17
BITMAP
3800
7FC0
C780
ENDCHAR
STARTCHAR 02DD
ENCODING 733
SWIDTH 500 0
DWIDTH 14 0
BBX 8 4 4 16
BITMAP
67
66
4C
C8
ENDCHAR
STARTCHAR 02DE
ENCODING 734
SWIDTH 500 0
DWIDTH 14 0
BBX 7 7 4 0
BITMAP
F8
D0
30
30
32
3E
1C
ENDCHAR
STARTCHAR 02E5
ENCODING 741
SWIDTH 500 0
DWIDTH 14 0
BBX 7 21 1 0
BITMAP
FE
FE
06
06
06
06
06
06
06
06
06
06
06
06
06
06
06
06
06
06
06
ENDCHAR
STARTCHAR 02E6
ENCODING 742
SWIDTH 500 0
DWIDTH 14 0
BBX 7 21 1 0
BITMAP
06
06
06
06
06
FE
FE
06
06
06
06
06
06
06
06
06
06
06
06
06
06
ENDCHAR
STARTCHAR 02E7
ENCODING 743
SWIDTH 500 0
DWIDTH 14 0
BBX 7 20 1 0
BITMAP
06
06
06
06
06
06
06
06
06
FE
FE
06
06
06
06
06
06
06
06
06
ENDCHAR
STARTCHAR 02E8
ENCODING 744
SWIDTH 500 0
DWIDTH 14 0
BBX 7 21 1 0
BITMAP
06
06
06
06
06
06
06
06
06
06
06
06
06
06
FE
FE
06
06
06
06
06
ENDCHAR
STARTCHAR 02E9
ENCODING 745
SWIDTH 500 0
DWIDTH 14 0
BBX 7 21 1 0
BITMAP
06
06
06
06
06
06
06
06
06
06
06
06
06
06
06
06
06
06
06
FE
FE
ENDCHAR
STARTCHAR 0300
ENCODING 768
SWIDTH 500 0
DWIDTH 14 0
BBX 4 3 4 17
BITMAP
E0
60
30
ENDCHAR
STARTCHAR 0301
ENCODING 769
SWIDTH 500 0
DWIDTH 14 0
BBX 4 3 6 17
BITMAP
70
60
C0
ENDCHAR
STARTCHAR 0302
ENCODING 770
SWIDTH 500 0
DWIDTH 14 0
BBX 8 4 3 16
BITMAP
3C
3C
66
C3
ENDCHAR
STARTCHAR 0303
ENCODING 771
SWIDTH 500 0
DWIDTH 14 0
BBX 10 3 2 17
BITMAP
3800
7FC0
C780
ENDCHAR
STARTCHAR 0304
ENCODING 772
SWIDTH 500 0
DWIDTH 14 0
BBX 8 2 3 17
BITMAP
FF
FF
ENDCHAR
STARTCHAR 0305
ENCODING 773
SWIDTH 500 0
DWIDTH 14 0
BBX 8 2 3 17
BITMAP
FF
FF
ENDCHAR
STARTCHAR 0306
ENCODING 774
SWIDTH 500 0
DWIDTH 14 0
BBX 8 3 3 17
BITMAP
C3
7E
3C
ENDCHAR
STARTCHAR 0308
ENCODING 776
SWIDTH 500 0
DWIDTH 14 0
BBX 8 3 3 17
BITMAP
E7
E7
E7
ENDCHAR
STARTCHAR 030B
ENCODING 779
SWIDTH 500 0
DWIDTH 14 0
BBX 8 4 4 16
BITMAP
67
66
4C
C8
ENDCHAR
STARTCHAR 030C
ENCODING 780
SWIDTH 500 0
DWIDTH 14 0
BBX 6 3 4 17
BITMAP
CC
FC
78
ENDCHAR
STARTCHAR 030F
ENCODING 783
SWIDTH 500 0
DWIDTH 14 0
BBX 8 4 2 16
BITMAP
E6
66
32
13
ENDCHAR
STARTCHAR 0318
ENCODING 792
SWIDTH 500 0
DWIDTH 14 0
BBX 5 7 4 -8
BITMAP
18
18
18
F8
18
18
18
ENDCHAR
STARTCHAR 0319
ENCODING 793
SWIDTH 500 0
DWIDTH 14 0
BBX 5 7 5 -8
BITMAP
C0
C0
C0
F8
C0
C0
C0
ENDCHAR
STARTCHAR 031A
ENCODING 794
SWIDTH 500 0
DWIDTH 14 0
BBX 6 7 2 13
BITMAP
FC
0C
0C
0C
0C
0C
0C
ENDCHAR
STARTCHAR 031C
ENCODING 796
SWIDTH 500 0
DWIDTH 14 0
BBX 3 6 5 -7
BITMAP
20
60
C0
80
C0
60
ENDCHAR
STARTCHAR 031D
ENCODING 797
SWIDTH 500 0
DWIDTH 14 0
BBX 8 4 3 -5
BITMAP
18
18
18
FF
ENDCHAR
STARTCHAR 031E
ENCODING 798
SWIDTH 500 0
DWIDTH 14 0
BBX 8 4 3 -6
BITMAP
FF
18
18
18
ENDCHAR
STARTCHAR 031F
ENCODING 799
SWIDTH 500 0
DWIDTH 14 0
BBX 8 7 3 -8
BITMAP
18
18
18
FF
18
18
18
ENDCHAR
STARTCHAR 0320
ENCODING 800
SWIDTH 500 0
DWIDTH 14 0
BBX 8 1 3 -3
BITMAP
FF
ENDCHAR
STARTCHAR 0324
ENCODING 804
SWIDTH 500 0
DWIDTH 14 0
BBX 8 3 3 -4
BITMAP
E7
E7
E7
ENDCHAR
STARTCHAR 0325
ENCODING 805
SWIDTH 500 0
DWIDTH 14 0
BBX 4 4 5 -5
BITMAP
F0
90
90
F0
ENDCHAR
STARTCHAR 0327
ENCODING 807
SWIDTH 500 0
DWIDTH 14 0
BBX 6 6 4 -6
BITMAP
20
70
7C
0C
1C
F8
ENDCHAR
STARTCHAR 0329
ENCODING 809
SWIDTH 500 0
DWIDTH 14 0
BBX 2 7 6 -8
BITMAP
C0
C0
C0
C0
C0
C0
C0
ENDCHAR
STARTCHAR 032A
ENCODING 810
SWIDTH 500 0
DWIDTH 14 0
BBX 8 4 3 -6
BITMAP
FF
C3
C3
C3
ENDCHAR
STARTCHAR 032C
ENCODING 812
SWIDTH 500 0
DWIDTH 14 0
BBX 6 3 4 -4
BITMAP
CC
78
78
ENDCHAR
STARTCHAR 032F
ENCODING 815
SWIDTH 500 0
DWIDTH 14 0
BBX 8 3 3 -4
BITMAP
3C
7E
C3
ENDCHAR
STARTCHAR 0330
ENCODING 816
SWIDTH 500 0
DWIDTH 14 0
BBX 9 3 3 -4
BITMAP
7100
FF80
8F00
ENDCHAR
STARTCHAR 0332
ENCODING 818
SWIDTH 500 0
DWIDTH 14 0
BBX 14 1 0 -3
BITMAP
FFFC
ENDCHAR
STARTCHAR 0334
ENCODING 820
SWIDTH 500 0
DWIDTH 14 0
BBX 9 3 3 7
BITMAP
7100
FF80
8F00
ENDCHAR
STARTCHAR 0336
ENCODING 822
SWIDTH 964 0
DWIDTH 27 0
BBX 23 2 2 10
BITMAP
FFFFFE
FFFFFE
ENDCHAR
STARTCHAR 0339
ENCODING 825
SWIDTH 500 0
DWIDTH 14 0
BBX 3 6 6 -7
BITMAP
80
E0
60
20
60
C0
ENDCHAR
STARTCHAR 033A
ENCODING 826
SWIDTH 500 0
DWIDTH 14 0
BBX 8 4 3 -6
BITMAP
C3
C3
C3
FF
ENDCHAR
STARTCHAR 033B
ENCODING 827
SWIDTH 500 0
DWIDTH 14 0
BBX 8 4 3 -6
BITMAP
FF
C3
C3
FF
ENDCHAR
STARTCHAR 033C
ENCODING 828
SWIDTH 500 0
DWIDTH 14 0
BBX 8 3 3 -4
BITMAP
66
FF
81
ENDCHAR
STARTCHAR 033D
ENCODING 829
SWIDTH 500 0
DWIDTH 14 0
BBX 6 5 4 15
BITMAP
CC
78
30
78
CC
ENDCHAR
STARTCHAR 0361
ENCODING 865
SWIDTH 0 0
DWIDTH 0 0
BBX 14 4 -7 22
BITMAP
0FC0
7FF8
F03C
8004
ENDCHAR
STARTCHAR 0391
ENCODING 913
SWIDTH 1000 0
DWIDTH 28 0
BBX 18 20 5 1
BITMAP
01E000
01E000
03F000
033000
033000
073800
061800
0E1C00
0E1C00
0C0C00
1C0E00
1FFE00
1FFE00
380700
300300
700380
700380
600180
E001C0
E001C0
ENDCHAR
STARTCHAR 0392
ENCODING 914
SWIDTH 1000 0
DWIDTH 28 0
BBX 16 20 7 1
BITMAP
FFE0
FFF8
C01C
C00E
C00E
C00E
C00C
C018
FFF0
FFF8
C01C
C00E
C006
C007
C007
C006
C00E
C01E
FFFC
FFF0
ENDCHAR
STARTCHAR 0393
ENCODING 915
SWIDTH 1000 0
DWIDTH 28 0
BBX 15 20 7 1
BITMAP
FFFE
FFFE
E000
E000
E000
E000
E000
E000
E000
E000
E000
E000
E000
E000
E000
E000
E000
E000
E000
E000
ENDCHAR
STARTCHAR 0394
ENCODING 916
SWIDTH 1000 0
DWIDTH 28 0
BBX 20 20 4 1
BITMAP
00F000
00F000
01F800
01F800
019800
039C00
030C00
070E00
070E00
0E0700
0E0700
0C0300
1C0380
1C0380
3801C0
3801C0
3000C0
7000E0
7FFFE0
FFFFF0
ENDCHAR
STARTCHAR 0395
ENCODING 917
SWIDTH 1000 0
DWIDTH 28 0
BBX 15 20 7 1
BITMAP
FFFC
FFFC
C000
C000
C000
C000
C000
C000
FFF8
FFF8
C000
C000
C000
C000
C000
C000
C000
C000
FFFE
FFFE
ENDCHAR
STARTCHAR 0396
ENCODING 918
SWIDTH 1000 0
DWIDTH 28 0
BBX 16 20 6 1
BITMAP
7FFE
7FFE
000E
001C
0038
0038
0070
00E0
01C0
0380
0380
0700
0E00
1C00
1C00
3800
7000
E000
FFFF
FFFF
ENDCHAR
STARTCHAR 0397
ENCODING 919
SWIDTH 1000 0
DWIDTH 28 0
BBX 16 19 6 2
BITMAP
E007
E007
E007
E007
E007
E007
E007
E007
FFFF
FFFF
E007
E007
E007
E007
E007
E007
E007
E007
E007
ENDCHAR
STARTCHAR 0398
ENCODING 920
SWIDTH 1000 0
DWIDTH 28 0
BBX 18 21 5 0
BITMAP
03F000
0FFC00
1E1E00
380700
700380
700380
600180
E001C0
E001C0
EFFDC0
EFFDC0
E001C0
E001C0
E001C0
E00180
700380
700380
380700
1E1E00
0FFC00
03F000
ENDCHAR
STARTCHAR 0399
ENCODING 921
SWIDTH 1000 0
DWIDTH 28 0
BBX 2 20 13 1
BITMAP
C0
C0
C0
C0
C0
C0
C0
C0
C0
C0
C0
C0
C0
C0
C0
C0
C0
C0
C0
C0
ENDCHAR
STARTCHAR 039A
ENCODING 922
SWIDTH 1000 0
DWIDTH 28 0
BBX 17 20 6 1
BITMAP
E00E00
E01C00
E03800
E07000
E0E000
E1C000
E38000
E70000
EF0000
FF8000
F9C000
F0E000
E07000
E07000
E03800
E01C00
E00E00
E00F00
E00700
E00380
ENDCHAR
STARTCHAR 039B
ENCODING 923
SWIDTH 1000 0
DWIDTH 28 0
BBX 18 20 5 1
BITMAP
01E000
01E000
01E000
03F000
033000
073800
073800
061800
0E1C00
0E1C00
0C0C00
1C0E00
180600
380700
380700
300300
700380
700380
E001C0
E001C0
ENDCHAR
STARTCHAR 039C
ENCODING 924
SWIDTH 1000 0
DWIDTH 28 0
BBX 20 20 4 1
BITMAP
F000F0
F000F0
F801F0
F801B0
F801B0
EC03B0
EC0330
EC0730
E60630
E60630
E70E30
E30C30
E30C30
E39C30
E19830
E19830
E1F830
E0F030
E0F030
E0F030
ENDCHAR
STARTCHAR 039D
ENCODING 925
SWIDTH 1000 0
DWIDTH 28 0
BBX 16 20 6 1
BITMAP
F003
F003
D803
DC03
CC03
CE03
C703
C303
C383
C183
C1C3
C0E3
C063
C073
C033
C03B
C01F
C00F
C00F
C007
ENDCHAR
STARTCHAR 039E
ENCODING 926
SWIDTH 1000 0
DWIDTH 28 0
BBX 16 20 6 1
BITMAP
FFFF
FFFF
0000
0000
0000
0000
0000
0000
7FFE
7FFE
0000
0000
0000
0000
0000
0000
0000
0000
FFFF
FFFF
ENDCHAR
STARTCHAR 039F
ENCODING 927
SWIDTH 1000 0
DWIDTH 28 0
BBX 18 21 5 0
BITMAP
03F000
0FFC00
1E1E00
380700
700380
700380
600180
E001C0
E001C0
E001C0
E001C0
E001C0
E001C0
E001C0
E00180
700380
700380
380700
1E1E00
0FFC00
03F000
ENDCHAR
STARTCHAR 03A0
ENCODING 928
SWIDTH 1000 0
DWIDTH 28 0
BBX 16 20 6 1
BITMAP
FFFF
FFFF
E007
E007
E007
E007
E007
E007
E007
E007
E007
E007
E007
E007
E007
E007
E007
E007
E007
E007
ENDCHAR
STARTCHAR 03A1
ENCODING 929
SWIDTH 1000 0
DWIDTH 28 0
BBX 15 20 7 1
BITMAP
FFE0
FFFC
E01C
E00E
E006
E006
E006
E00E
E01C
FFF8
FFE0
E000
E000
E000
E000
E000
E000
E000
E000
E000
ENDCHAR
STARTCHAR 03A3
ENCODING 931
SWIDTH 1000 0
DWIDTH 28 0
BBX 16 20 6 1
BITMAP
FFFF
FFFF
E000
7000
3800
1C00
0F00
0780
01C0
00E0
01C0
0380
0700
0E00
1C00
3800
7000
E000
FFFF
FFFF
ENDCHAR
STARTCHAR 03A4
ENCODING 932
SWIDTH 1000 0
DWIDTH 28 0
BBX 18 20 5 1
BITMAP
FFFFC0
FFFFC0
00C000
00C000
00C000
00C000
00C000
00C000
00C000
00C000
00C000
00C000
00C000
00C000
00C000
00C000
00C000
00C000
00C000
00C000
ENDCHAR
STARTCHAR 03A5
ENCODING 933
SWIDTH 1000 0
DWIDTH 28 0
BBX 18 20 5 1
BITMAP
E001C0
700380
380780
380700
1C0E00
0E1C00
0E1C00
073800
033000
03F000
01E000
00C000
00C000
00C000
00C000
00C000
00C000
00C000
00C000
00C000
ENDCHAR
STARTCHAR 03A6
ENCODING 934
SWIDTH 1000 0
DWIDTH 28 0
BBX 20 20 4 1
BITMAP
006000
006000
006000
07FE00
1FFF80
3C63C0
7060E0
606060
606060
E06070
E06070
606060
7060E0
3861C0
3E67C0
0FFF00
01F800
006000
006000
006000
ENDCHAR
STARTCHAR 03A7
ENCODING 935
SWIDTH 1000 0
DWIDTH 28 0
BBX 18 20 5 1
BITMAP
700380
380700
3C0F00
1C0E00
0E1C00
073800
073800
03F000
01E000
00C000
01E000
03F000
073800
0F3C00
0E1C00
1C0E00
380700
780780
F00380
E001C0
ENDCHAR
STARTCHAR 03A8
ENCODING 936
SWIDTH 1000 0
DWIDTH 28 0
BBX 16 20 6 1
BITMAP
C183
C183
C183
C183
C183
C183
C183
C183
C183
C187
E187
718E
7DBE
1FF8
07E0
0180
0180
0180
0180
0180
ENDCHAR
STARTCHAR 03A9
ENCODING 937
SWIDTH 1000 0
DWIDTH 28 0
BBX 20 20 4 1
BITMAP
01F800
07FE00
0F0700
1C0380
3801C0
3000C0
7000E0
7000E0
7000E0
7000E0
7000E0
7000E0
3000C0
3801C0
1C0380
0E0F00
039C00
039C00
FF9FF0
FF9FF0
ENDCHAR
STARTCHAR 03B1
ENCODING 945
SWIDTH 1000 0
DWIDTH 28 0
BBX 18 15 5 0
BITMAP
03C380
07E300
0E7300
1C3600
383E00
303C00
703C00
603800
603000
E031C0
E07980
60D980
739B80
7F1F00
3C0E00
ENDCHAR
STARTCHAR 03B2
ENCODING 946
SWIDTH 1000 0
DWIDTH 28 0
BBX 16 24 5 -3
BITMAP
007C
01FE
01C7
0303
0703
0603
0C03
0C07
0DCE
19F8
19F8
181C
300C
3006
3006
3006
7006
780E
6E1C
67F8
61F0
6000
6000
E000
ENDCHAR
STARTCHAR 03B3
ENCODING 947
SWIDTH 1000 0
DWIDTH 28 0
BBX 16 18 6 -3
BITMAP
1E02
7F07
E30E
C31C
0198
01B0
01E0
01E0
01C0
0180
0180
0380
0300
0700
0700
0700
0700
0600
ENDCHAR
STARTCHAR 03B4
ENCODING 948
SWIDTH 1000 0
DWIDTH 28 0
BBX 14 21 7 0
BITMAP
0780
0FF0
1C78
1C1C
0C0C
0600
0300
0180
0FE0
1C60
3830
7030
6030
6030
E030
E030
E070
60E0
71C0
3FC0
1F00
ENDCHAR
STARTCHAR 03B5
ENCODING 949
SWIDTH 1000 0
DWIDTH 28 0
BBX 12 15 8 0
BITMAP
1F80
3FF0
7070
6000
7000
3F80
3F80
7780
E000
C000
C020
C070
E1E0
7F80
3E00
ENDCHAR
STARTCHAR 03B6
ENCODING 950
SWIDTH 1000 0
DWIDTH 28 0
BBX 14 24 8 -3
BITMAP
1C1C
187C
30F8
3BE0
1F80
0E00
0C00
1800
3800
3000
6000
6000
E000
C000
C000
C000
FE00
1FC0
00C0
00E0
20E0
70C0
3FC0
0F00
ENDCHAR
STARTCHAR 03B7
ENCODING 951
SWIDTH 1000 0
DWIDTH 28 0
BBX 15 18 6 -3
BITMAP
3C78
7CFC
E78E
C70E
060E
060E
0E0C
0C0C
0C0C
1C1C
181C
1818
3818
3038
0038
0038
0030
0030
ENDCHAR
STARTCHAR 03B8
ENCODING 952
SWIDTH 1000 0
DWIDTH 28 0
BBX 14 21 7 0
BITMAP
03E0
07F0
0E38
1818
301C
300C
600C
600C
7FFC
FFFC
C01C
C01C
C018
C038
C038
C070
E070
60E0
71C0
3F80
1F00
ENDCHAR
STARTCHAR 03B9
ENCODING 953
SWIDTH 1000 0
DWIDTH 28 0
BBX 9 15 9 0
BITMAP
0E00
1C00
1800
3800
3000
3000
7000
6000
E000
C180
C180
C380
E700
7E00
3C00
ENDCHAR
STARTCHAR 03BA
ENCODING 954
SWIDTH 1000 0
DWIDTH 28 0
BBX 14 15 7 0
BITMAP
0004
1C1C
187C
19E0
3B80
3F00
3E00
3F00
7300
6300
630C
E18C
E198
C1F0
00E0
ENDCHAR
STARTCHAR 03BB
ENCODING 955
SWIDTH 1000 0
DWIDTH 28 0
BBX 15 20 6 1
BITMAP
0780
1FC0
38E0
1060
0060
0060
0060
00E0
00E0
01E0
03F0
0330
0730
0E30
1C30
1818
3818
701C
E00C
E00E
ENDCHAR
STARTCHAR 03BC
ENCODING 956
SWIDTH 1000 0
DWIDTH 28 0
BBX 19 17 5 -3
BITMAP
0E0600
0C0600
0C0600
0C0E00
1C0C00
1C0C00
180C00
181C00
381C40
381C60
3C38E0
346CC0
77CF80
638700
600000
600000
E00000
ENDCHAR
STARTCHAR 03BD
ENCODING 957
SWIDTH 1000 0
DWIDTH 28 0
BBX 13 14 8 2
BITMAP
E038
6038
7038
7038
3030
3070
3070
30E0
30C0
73C0
6780
7E00
F800
C000
ENDCHAR
STARTCHAR 03BE
ENCODING 958
SWIDTH 1000 0
DWIDTH 28 0
BBX 13 25 7 -3
BITMAP
0400
0EF8
07F0
0700
1C00
1800
3800
3800
1800
0FF0
07F0
1C00
7000
6000
E000
E000
7000
7E00
1FC0
01F0
0070
0030
3070
7FE0
0FC0
ENDCHAR
STARTCHAR 03BF
ENCODING 959
SWIDTH 1000 0
DWIDTH 28 0
BBX 12 15 8 0
BITMAP
07C0
1FE0
3870
7070
6030
E030
C030
C030
C030
C070
C060
C0E0
E1C0
7F80
1E00
ENDCHAR
STARTCHAR 03C0
ENCODING 960
SWIDTH 1000 0
DWIDTH 28 0
BBX 16 16 7 0
BITMAP
0002
7FFF
FFFC
CC60
9C60
18C0
18C0
38C0
30C0
31C0
7182
6186
6186
E18C
C1F8
00F0
ENDCHAR
STARTCHAR 03C1
ENCODING 961
SWIDTH 1000 0
DWIDTH 28 0
BBX 14 18 6 -3
BITMAP
01E0
07F8
0E18
1C1C
180C
380C
300C
300C
700C
701C
7838
6C70
6FF0
67C0
6000
E000
E000
E000
ENDCHAR
STARTCHAR 03C2
ENCODING 962
SWIDTH 571 0
DWIDTH 16 0
BBX 14 21 1 -6
BITMAP
07C0
1FE0
3C70
3038
301C
701C
7008
7000
3000
3800
1C00
0E00
0700
0380
01C0
00C0
00C0
40C0
F1C0
7F80
1F00
ENDCHAR
STARTCHAR 03C3
ENCODING 963
SWIDTH 1000 0
DWIDTH 28 0
BBX 15 15 8 0
BITMAP
07FE
1FFC
3860
7070
6030
E030
C030
C030
C030
C070
C060
C0E0
E1C0
7F80
1E00
ENDCHAR
STARTCHAR 03C4
ENCODING 964
SWIDTH 1000 0
DWIDTH 28 0
BBX 15 16 7 0
BITMAP
0004
3FFE
FFF8
6300
0700
0600
0600
0E00
0C00
0C00
1C00
1830
1870
1CE0
0FC0
0780
ENDCHAR
STARTCHAR 03C5
ENCODING 965
SWIDTH 1000 0
DWIDTH 28 0
BBX 15 15 6 1
BITMAP
1C1C
7E1C
E60C
C60E
0C0E
0C0E
1C0E
180E
380C
300C
301C
3038
3870
1FE0
0F80
ENDCHAR
STARTCHAR 03C6
ENCODING 966
SWIDTH 1000 0
DWIDTH 28 0
BBX 16 23 6 -3
BITMAP
0030
0070
0060
0060
0060
07F0
1FFC
38CE
70C6
6187
E187
E187
C187
E307
E306
731E
3B7C
1FF0
0700
0600
0E00
0C00
0C00
ENDCHAR
STARTCHAR 03C7
ENCODING 967
SWIDTH 1000 0
DWIDTH 28 0
BBX 15 18 6 -3
BITMAP
1E0E
3E1C
7718
2338
0370
0360
01E0
01C0
0380
0380
0780
0F80
0C80
1CC4
38C6
30CE
707C
E078
ENDCHAR
STARTCHAR 03C8
ENCODING 968
SWIDTH 1000 0
DWIDTH 28 0
BBX 16 22 6 -2
BITMAP
0070
0060
0060
0060
00E0
1CC4
3CCE
70C6
E1C7
C183
C183
C183
C383
C307
E30E
731C
3FF8
1FE0
0600
0E00
0C00
0C00
ENDCHAR
STARTCHAR 03C9
ENCODING 969
SWIDTH 1000 0
DWIDTH 28 0
BBX 18 15 5 0
BITMAP
040100
0E0700
1C0380
380180
7041C0
60E1C0
E0C0C0
C0C0C0
C0C1C0
C0C1C0
C1C180
C1C380
E76700
7E7E00
3C3C00
ENDCHAR
STARTCHAR 0401
ENCODING 1025
SWIDTH 1000 0
DWIDTH 28 0
BBX 15 23 7 1
BITMAP
3870
3870
0000
FFFC
FFFC
C000
C000
C000
C000
C000
C000
FFF8
FFF8
C000
C000
C000
C000
C000
C000
C000
C000
FFFE
FFFE
ENDCHAR
STARTCHAR 0410
ENCODING 1040
SWIDTH 1000 0
DWIDTH 28 0
BBX 18 20 5 1
BITMAP
01E000
01E000
03F000
033000
033000
073800
061800
0E1C00
0E1C00
0C0C00
1C0E00
1FFE00
1FFE00
380700
300300
700380
700380
600180
E001C0
E001C0
ENDCHAR
STARTCHAR 0411
ENCODING 1041
SWIDTH 1000 0
DWIDTH 28 0
BBX 16 20 7 1
BITMAP
FFFE
FFFE
C000
C000
C000
C000
C000
C000
FFE0
FFF8
C01C
C00E
C006
C007
C007
C006
C00E
C01E
FFFC
FFF0
ENDCHAR
STARTCHAR 0412
ENCODING 1042
SWIDTH 1000 0
DWIDTH 28 0
BBX 16 20 7 1
BITMAP
FFE0
FFF8
C01C
C00E
C00E
C00E
C00C
C018
FFF0
FFF8
C01C
C00E
C006
C007
C007
C006
C00E
C01E
FFFC
FFF0
ENDCHAR
STARTCHAR 0413
ENCODING 1043
SWIDTH 1000 0
DWIDTH 28 0
BBX 15 20 7 1
BITMAP
FFFE
FFFE
E000
E000
E000
E000
E000
E000
E000
E000
E000
E000
E000
E000
E000
E000
E000
E000
E000
E000
ENDCHAR
STARTCHAR 0414
ENCODING 1044
SWIDTH 1000 0
DWIDTH 28 0
BBX 19 23 4 -2
BITMAP
03FF80
03FF80
030180
030180
030180
030180
070180
070180
070180
060180
060180
060180
0E0180
0E0180
0C0180
1C0180
1C0180
180180
FFFFE0
FFFFE0
E00060
E00060
E00060
ENDCHAR
STARTCHAR 0415
ENCODING 1045
SWIDTH 1000 0
DWIDTH 28 0
BBX 15 20 7 1
BITMAP
FFFC
FFFC
C000
C000
C000
C000
C000
C000
FFF8
FFF8
C000
C000
C000
C000
C000
C000
C000
C000
FFFE
FFFE
ENDCHAR
STARTCHAR 0416
ENCODING 1046
SWIDTH 1000 0
DWIDTH 28 0
BBX 22 20 3 1
BITMAP
603018
703038
703030
303030
383070
183060
1C30E0
0E31C0
07FFC0
03FF00
073380
063180
0E31C0
0C30C0
1C30E0
383070
303030
703038
E0301C
E0301C
ENDCHAR
STARTCHAR 0417
ENCODING 1047
SWIDTH 1000 0
DWIDTH 28 0
BBX 16 21 6 0
BITMAP
07E0
3FF8
781C
600C
000E
000E
000C
001C
03F0
03F8
003C
000E
0006
0007
0007
C007
E006
F00E
781C
3FF8
0FE0
ENDCHAR
STARTCHAR 0418
ENCODING 1048
SWIDTH 1000 0
DWIDTH 28 0
BBX 16 20 6 1
BITMAP
C003
C003
C003
C007
C00F
C01F
C03B
C073
C0E3
C1C3
C383
C703
CE03
DC03
F803
F003
E003
C003
C003
C003
ENDCHAR
STARTCHAR 0419
ENCODING 1049
SWIDTH 1000 0
DWIDTH 28 0
BBX 16 23 6 1
BITMAP
1C38
0FF0
07E0
C003
C003
C003
C007
C00F
C01F
C03B
C073
C0E3
C1C3
C383
C703
CE03
DC03
F803
F003
E003
C003
C003
C003
ENDCHAR
STARTCHAR 041A
ENCODING 1050
SWIDTH 1000 0
DWIDTH 28 0
BBX 17 20 6 1
BITMAP
E00700
E00600
E00600
E00E00
E00C00
E01C00
E03800
E07000
E3E000
FFC000
FEC000
E0E000
E07000
E03800
E03800
E01C00
E00E00
E00700
E00700
E00380
ENDCHAR
STARTCHAR 041B
ENCODING 1051
SWIDTH 1000 0
DWIDTH 28 0
BBX 19 21 3 0
BITMAP
00FFE0
00FFE0
00C0E0
00C0E0
00C0E0
00C0E0
00C0E0
00C0E0
00C0E0
00C0E0
01C0E0
01C0E0
01C0E0
01C0E0
0180E0
C180E0
E380E0
E380E0
6700E0
7E00E0
1C0000
ENDCHAR
STARTCHAR 041C
ENCODING 1052
SWIDTH 1000 0
DWIDTH 28 0
BBX 20 20 4 1
BITMAP
F000F0
F000F0
F801F0
F801B0
F801B0
EC03B0
EC0330
EC0730
E60630
E60630
E70E30
E30C30
E30C30
E39C30
E19830
E19830
E1F830
E0F030
E0F030
E0F030
ENDCHAR
STARTCHAR 041D
ENCODING 1053
SWIDTH 1000 0
DWIDTH 28 0
BBX 16 19 6 2
BITMAP
E007
E007
E007
E007
E007
E007
E007
E007
FFFF
FFFF
E007
E007
E007
E007
E007
E007
E007
E007
E007
ENDCHAR
STARTCHAR 041E
ENCODING 1054
SWIDTH 1000 0
DWIDTH 28 0
BBX 18 21 5 0
BITMAP
03F000
0FFC00
1E1E00
380700
700380
700380
600180
E001C0
E001C0
E001C0
E001C0
E001C0
E001C0
E001C0
E00180
700380
700380
380700
1E1E00
0FFC00
03F000
ENDCHAR
STARTCHAR 041F
ENCODING 1055
SWIDTH 1000 0
DWIDTH 28 0
BBX 16 20 6 1
BITMAP
FFFF
FFFF
E007
E007
E007
E007
E007
E007
E007
E007
E007
E007
E007
E007
E007
E007
E007
E007
E007
E007
ENDCHAR
STARTCHAR 0420
ENCODING 1056
SWIDTH 1000 0
DWIDTH 28 0
BBX 15 20 7 1
BITMAP
FFE0
FFFC
E01C
E00E
E006
E006
E006
E00E
E01C
FFF8
FFE0
E000
E000
E000
E000
E000
E000
E000
E000
E000
ENDCHAR
STARTCHAR 0421
ENCODING 1057
SWIDTH 1000 0
DWIDTH 28 0
BBX 18 21 5 0
BITMAP
03F000
0FFC00
1C0E00
380700
700380
600180
E00000
E00000
C00000
C00000
C00000
C00000
C00000
E001C0
E001C0
600380
700380
380700
1C1E00
0FFC00
03F000
ENDCHAR
STARTCHAR 0422
ENCODING 1058
SWIDTH 1000 0
DWIDTH 28 0
BBX 18 20 5 1
BITMAP
FFFFC0
FFFFC0
00C000
00C000
00C000
00C000
00C000
00C000
00C000
00C000
00C000
00C000
00C000
00C000
00C000
00C000
00C000
00C000
00C000
00C000
ENDCHAR
STARTCHAR 0423
ENCODING 1059
SWIDTH 1000 0
DWIDTH 28 0
BBX 16 20 7 1
BITMAP
C007
E006
600E
700C
301C
381C
1818
1C38
0C30
0E70
0660
0760
03E0
03C0
01C0
0180
0380
3F00
FF00
FC00
ENDCHAR
STARTCHAR 0424
ENCODING 1060
SWIDTH 1000 0
DWIDTH 28 0
BBX 20 20 4 1
BITMAP
006000
006000
006000
07FE00
1FFF80
3C63C0
7060E0
606060
606060
E06070
E06070
606060
7060E0
3861C0
3E67C0
0FFF00
01F800
006000
006000
006000
ENDCHAR
STARTCHAR 0425
ENCODING 1061
SWIDTH 1000 0
DWIDTH 28 0
BBX 18 20 5 1
BITMAP
700380
380700
3C0F00
1C0E00
0E1C00
073800
073800
03F000
01E000
00C000
01E000
03F000
073800
0F3C00
0E1C00
1C0E00
380700
780780
F00380
E001C0
ENDCHAR
STARTCHAR 0426
ENCODING 1062
SWIDTH 1000 0
DWIDTH 28 0
BBX 18 22 6 -2
BITMAP
E00600
E00600
E00600
E00600
E00600
E00600
E00600
E00600
E00600
E00600
E00600
E00600
E00600
E00600
E00600
E00600
E00600
FFFFC0
FFFFC0
0000C0
0000C0
0000C0
ENDCHAR
STARTCHAR 0427
ENCODING 1063
SWIDTH 1000 0
DWIDTH 28 0
BBX 14 20 7 1
BITMAP
C00C
C00C
C00C
C00C
C00C
C00C
C00C
C00C
C00C
E01C
F07C
7FEC
1F8C
000C
000C
000C
000C
000C
000C
000C
ENDCHAR
STARTCHAR 0428
ENCODING 1064
SWIDTH 1000 0
DWIDTH 28 0
BBX 20 19 4 1
BITMAP
C06030
C06030
C06030
C06030
C06030
C06030
C06030
C06030
C06030
C06030
C06030
C06030
C06030
C06030
C06030
C06030
C06030
FFFFF0
FFFFF0
ENDCHAR
STARTCHAR 0429
ENCODING 1065
SWIDTH 1000 0
DWIDTH 28 0
BBX 22 22 4 -2
BITMAP
C0E060
C0E060
C0E060
C0E060
C0E060
C0E060
C0E060
C0E060
C0E060
C0E060
C0E060
C0E060
C0E060
C0E060
C0E060
C0E060
C0E060
FFFFFC
FFFFFC
00001C
00001C
00001C
ENDCHAR
STARTCHAR 042A
ENCODING 1066
SWIDTH 1000 0
DWIDTH 28 0
BBX 19 20 4 1
BITMAP
FE0000
FE0000
060000
060000
060000
060000
060000
060000
07FE00
07FF80
0601C0
0600E0
060060
060060
060060
0600E0
0600E0
0601C0
07FF80
07FE00
ENDCHAR
STARTCHAR 042B
ENCODING 1067
SWIDTH 1000 0
DWIDTH 28 0
BBX 18 20 5 1
BITMAP
C000C0
C000C0
C000C0
C000C0
C000C0
C000C0
C000C0
C000C0
FF80C0
FFE0C0
C070C0
C038C0
C018C0
C018C0
C018C0
C018C0
C038C0
C070C0
FFE0C0
FF80C0
ENDCHAR
STARTCHAR 042C
ENCODING 1068
SWIDTH 1000 0
DWIDTH 28 0
BBX 16 20 7 1
BITMAP
C000
C000
C000
C000
C000
C000
C000
C000
FFE0
FFF8
C01C
C00E
C006
C007
C007
C006
C00E
C01E
FFFC
FFF0
ENDCHAR
STARTCHAR 042D
ENCODING 1069
SWIDTH 1000 0
DWIDTH 28 0
BBX 18 21 5 0
BITMAP
03F000
1FFC00
3C1E00
700700
600380
000180
0001C0
0001C0
1F04C0
1FFCC0
10FCC0
0000C0
0000C0
0001C0
E001C0
600180
700380
380700
1C0E00
0FFC00
03F000
ENDCHAR
STARTCHAR 042E
ENCODING 1070
SWIDTH 1000 0
DWIDTH 28 0
BBX 21 21 4 0
BITMAP
E03F00
E07FC0
E0E0E0
E1C060
E18070
E38030
E38038
E30038
FF0018
FF0018
E30018
E30018
E30038
E30038
E38038
E18070
E18070
E0C0E0
E0E1E0
E07FC0
001F00
ENDCHAR
STARTCHAR 042F
ENCODING 1071
SWIDTH 1000 0
DWIDTH 28 0
BBX 15 20 6 1
BITMAP
0FFE
3FFE
7006
6006
6006
6006
6006
7006
3FFE
0FFE
0706
0706
0E06
0E06
1C06
1C06
3806
7006
7006
E006
ENDCHAR
STARTCHAR 0430
ENCODING 1072
SWIDTH 1000 0
DWIDTH 28 0
BBX 14 15 7 0
BITMAP
0FC0
3FE0
7870
7030
0038
03F8
1FF8
7C38
7038
E038
E038
6078
60D8
3F9C
1E1C
ENDCHAR
STARTCHAR 0431
ENCODING 1073
SWIDTH 1000 0
DWIDTH 28 0
BBX 13 21 7 0
BITMAP
0038
00F0
07E0
0F00
1C00
3800
3000
67C0
6FE0
7870
7038
F018
E018
E018
6018
6018
7038
7038
3870
1FE0
0FC0
ENDCHAR
STARTCHAR 0432
ENCODING 1074
SWIDTH 1000 0
DWIDTH 28 0
BBX 12 14 8 1
BITMAP
FF80
FFC0
E0E0
E060
E060
E0E0
FF80
FFC0
E060
E070
E070
E070
FFE0
FF80
ENDCHAR
STARTCHAR 0433
ENCODING 1075
SWIDTH 1000 0
DWIDTH 28 0
BBX 11 14 9 1
BITMAP
FFE0
FFE0
C000
C000
C000
C000
C000
C000
C000
C000
C000
C000
C000
C000
ENDCHAR
STARTCHAR 0434
ENCODING 1076
SWIDTH 1000 0
DWIDTH 28 0
BBX 15 17 6 -2
BITMAP
07F8
07F8
0618
0618
0E18
0E18
0C18
0C18
1C18
1818
3818
3818
FFFE
FFFE
C006
C006
C006
ENDCHAR
STARTCHAR 0435
ENCODING 1077
SWIDTH 1000 0
DWIDTH 28 0
BBX 14 15 7 0
BITMAP
0FC0
1FE0
3870
6018
E018
FFFC
FFFC
C000
C000
E01C
E018
7038
3870
1FE0
0FC0
ENDCHAR
STARTCHAR 0436
ENCODING 1078
SWIDTH 1000 0
DWIDTH 28 0
BBX 18 13 5 1
BITMAP
60C180
70C380
30C300
38C700
1CCE00
0FFC00
0FFC00
1CCE00
18C600
38C700
70C380
70C180
E0C1C0
ENDCHAR
STARTCHAR 0437
ENCODING 1079
SWIDTH 1000 0
DWIDTH 28 0
BBX 12 15 8 0
BITMAP
1F80
7FC0
E0E0
0060
00E0
0FC0
0F80
00E0
0060
0070
E070
E060
70E0
7FC0
1F80
ENDCHAR
STARTCHAR 0438
ENCODING 1080
SWIDTH 1000 0
DWIDTH 28 0
BBX 12 14 8 1
BITMAP
C030
C030
C070
C0F0
C1F0
C3B0
C730
CE30
DC30
F830
F030
E030
C030
C030
ENDCHAR
STARTCHAR 0439
ENCODING 1081
SWIDTH 1000 0
DWIDTH 28 0
BBX 12 19 8 1
BITMAP
6060
70C0
3FC0
0F80
0000
C030
C030
C070
C0F0
C1F0
C3B0
C730
CE30
DC30
F830
F030
E030
C030
C030
ENDCHAR
STARTCHAR 043A
ENCODING 1082
SWIDTH 1000 0
DWIDTH 28 0
BBX 13 13 8 1
BITMAP
C060
C060
C0E0
C1C0
C380
FF00
FF00
C380
C1C0
C0C0
C0E0
C070
C038
ENDCHAR
STARTCHAR 043B
ENCODING 1083
SWIDTH 1000 0
DWIDTH 28 0
BBX 15 15 5 0
BITMAP
03FE
03FE
030E
030E
030E
030E
030E
030E
030E
070E
C60E
C60E
EE0E
7C0E
3800
ENDCHAR
STARTCHAR 043C
ENCODING 1084
SWIDTH 1000 0
DWIDTH 28 0
BBX 14 14 7 1
BITMAP
F03C
F03C
F87C
D86C
D86C
D86C
CCCC
CCCC
CCCC
C78C
C78C
C78C
C30C
C30C
ENDCHAR
STARTCHAR 043D
ENCODING 1085
SWIDTH 1000 0
DWIDTH 28 0
BBX 12 13 8 2
BITMAP
C030
C030
C030
C030
C030
FFF0
FFF0
C030
C030
C030
C030
C030
C030
ENDCHAR
STARTCHAR 043E
ENCODING 1086
SWIDTH 1000 0
DWIDTH 28 0
BBX 14 15 7 0
BITMAP
0FC0
1FE0
3870
7038
E01C
E01C
C00C
C00C
C00C
E01C
601C
7038
3870
1FE0
07C0
ENDCHAR
STARTCHAR 043F
ENCODING 1087
SWIDTH 1000 0
DWIDTH 28 0
BBX 12 14 8 1
BITMAP
FFF0
FFF0
C030
C030
C030
C030
C030
C030
C030
C030
C030
C030
C030
C030
ENDCHAR
STARTCHAR 0440
ENCODING 1088
SWIDTH 1000 0
DWIDTH 28 0
BBX 14 18 8 -3
BITMAP
C7C0
DFE0
F870
F038
E018
E018
E01C
C01C
E018
E018
F038
F870
FFE0
E7C0
E000
E000
E000
E000
ENDCHAR
STARTCHAR 0441
ENCODING 1089
SWIDTH 1000 0
DWIDTH 28 0
BBX 14 15 7 0
BITMAP
0FC0
1FF0
3870
6038
E000
E000
C000
C000
C000
E01C
E018
7038
3870
1FE0
0FC0
ENDCHAR
STARTCHAR 0442
ENCODING 1090
SWIDTH 1000 0
DWIDTH 28 0
BBX 12 14 8 1
BITMAP
FFF0
FFF0
0600
0600
0600
0600
0600
0600
0600
0600
0600
0600
0600
0600
ENDCHAR
STARTCHAR 0443
ENCODING 1091
SWIDTH 1000 0
DWIDTH 28 0
BBX 14 18 7 -3
BITMAP
E00C
601C
7018
3038
3838
1830
1C70
0C60
0EE0
06C0
07C0
0380
0380
0300
0700
0E00
7E00
7800
ENDCHAR
STARTCHAR 0444
ENCODING 1092
SWIDTH 1000 0
DWIDTH 28 0
BBX 18 24 5 -3
BITMAP
00C000
00C000
00C000
00C000
00C000
00C000
1EDE00
3FFF00
71E380
60C180
E0C1C0
C0C0C0
C0C0C0
C0C0C0
C0C0C0
E0C1C0
60C180
71E380
3FFF00
1EDE00
00C000
00C000
00C000
00C000
ENDCHAR
STARTCHAR 0445
ENCODING 1093
SWIDTH 1000 0
DWIDTH 28 0
BBX 16 14 6 1
BITMAP
700E
381C
1C38
0E70
07E0
03C0
03C0
03C0
07E0
0E70
1C38
381C
780E
F00F
ENDCHAR
STARTCHAR 0446
ENCODING 1094
SWIDTH 1000 0
DWIDTH 28 0
BBX 14 16 8 -2
BITMAP
C070
C070
C070
C070
C070
C070
C070
C070
C070
C070
C070
FFFC
FFFC
000C
000C
000C
ENDCHAR
STARTCHAR 0447
ENCODING 1095
SWIDTH 1000 0
DWIDTH 28 0
BBX 12 14 8 1
BITMAP
C070
C070
C070
C070
C070
C070
E1F0
7FF0
3E70
0070
0070
0070
0070
0070
ENDCHAR
STARTCHAR 0448
ENCODING 1096
SWIDTH 1000 0
DWIDTH 28 0
BBX 18 13 5 1
BITMAP
E0C1C0
E0C1C0
E0C1C0
E0C1C0
E0C1C0
E0C1C0
E0C1C0
E0C1C0
E0C1C0
E0C1C0
E0C1C0
FFFFC0
FFFFC0
ENDCHAR
STARTCHAR 0449
ENCODING 1097
SWIDTH 1000 0
DWIDTH 28 0
BBX 20 16 5 -2
BITMAP
E0C180
E0C180
E0C180
E0C180
E0C180
E0C180
E0C180
E0C180
E0C180
E0C180
E0C180
FFFFF0
FFFFF0
000070
000070
000070
ENDCHAR
STARTCHAR 044A
ENCODING 1098
SWIDTH 1000 0
DWIDTH 28 0
BBX 16 14 6 1
BITMAP
FC00
FC00
1C00
1C00
1FF8
1FFC
1C0E
1C06
1C07
1C07
1C06
1C0E
1FFC
1FF8
ENDCHAR
STARTCHAR 044B
ENCODING 1099
SWIDTH 1000 0
DWIDTH 28 0
BBX 16 14 6 1
BITMAP
C003
C003
C003
C003
FF03
FFC3
C0E3
C063
C073
C073
C063
C0E3
FFC3
FF83
ENDCHAR
STARTCHAR 044C
ENCODING 1100
SWIDTH 1000 0
DWIDTH 28 0
BBX 12 14 8 1
BITMAP
C000
C000
C000
C000
FF80
FFE0
C070
C030
C030
C030
C030
C070
FFE0
FFC0
ENDCHAR
STARTCHAR 044D
ENCODING 1101
SWIDTH 1000 0
DWIDTH 28 0
BBX 14 15 7 0
BITMAP
0FC0
3FF0
7878
6018
001C
1C1C
1FCC
038C
000C
E01C
6018
7038
3870
1FE0
0FC0
ENDCHAR
STARTCHAR 044E
ENCODING 1102
SWIDTH 1000 0
DWIDTH 28 0
BBX 19 15 5 0
BITMAP
E07E00
E0FF00
E1C380
E381C0
E300C0
FF00E0
FF00E0
E700E0
E300E0
E300E0
E300C0
E181C0
E1C380
E0FF00
003E00
ENDCHAR
STARTCHAR 044F
ENCODING 1103
SWIDTH 1000 0
DWIDTH 28 0
BBX 13 14 7 1
BITMAP
0FF8
3FF8
7038
7038
7038
3038
3FF8
0FF8
0C38
1C38
1838
3838
7038
E038
ENDCHAR
STARTCHAR 0451
ENCODING 1105
SWIDTH 1000 0
DWIDTH 28 0
BBX 14 19 7 0
BITMAP
3870
3870
0000
0000
0FC0
1FE0
3870
6018
E018
FFFC
FFFC
C000
C000
E01C
E018
7038
3870
1FE0
0FC0
ENDCHAR
STARTCHAR 1E3E
ENCODING 7742
SWIDTH 892 0
DWIDTH 25 0
BBX 19 25 3 0
BITMAP
003000
007000
006000
00C000
000000
E000E0
F001E0
F001E0
F803E0
D80360
D80360
DC0760
CC0660
CE0E60
C60C60
C60C60
C71C60
C31860
C3B860
C1B060
C1B060
C1F060
C0E060
C0E060
C00060
ENDCHAR
STARTCHAR 1E3F
ENCODING 7743
SWIDTH 857 0
DWIDTH 24 0
BBX 20 20 2 0
BITMAP
001C00
001800
003000
006000
000000
000000
E787C0
FFCFE0
F8F8F0
F07070
E07070
E06030
E06030
E06030
E06030
E06030
E06030
E06030
E06030
E06030
ENDCHAR
STARTCHAR 1F70
ENCODING 8048
SWIDTH 607 0
DWIDTH 17 0
BBX 14 20 1 0
BITMAP
0E00
0600
0300
0300
0000
0000
0FCC
1FEC
383C
701C
601C
E00C
E00C
E00C
E00C
601C
703C
387C
3FEC
0F8C
ENDCHAR
STARTCHAR 1F71
ENCODING 8049
SWIDTH 607 0
DWIDTH 17 0
BBX 14 20 1 0
BITMAP
00C0
01C0
0180
0300
0000
0000
0FCC
1FEC
383C
701C
601C
E00C
E00C
E00C
E00C
601C
703C
387C
3FEC
0F8C
ENDCHAR
STARTCHAR 1F72
ENCODING 8050
SWIDTH 500 0
DWIDTH 14 0
BBX 12 20 1 0
BITMAP
0C00
0600
0600
0300
0000
0000
0FF0
3FF0
7000
7000
7000
3F80
0FC0
3E00
7000
E000
E000
7010
7FF0
1FE0
ENDCHAR
STARTCHAR 1F73
ENCODING 8051
SWIDTH 500 0
DWIDTH 14 0
BBX 12 20 1 0
BITMAP
01C0
0180
0300
0300
0000
0000
0FF0
3FF0
7000
7000
7000
3F80
0FC0
3E00
7000
E000
E000
7010
7FF0
1FE0
ENDCHAR
STARTCHAR 2002
ENCODING 8194
SWIDTH 500 0
DWIDTH 14 0
BBX 0 0 0 0
BITMAP
ENDCHAR
STARTCHAR 2003
ENCODING 8195
SWIDTH 1000 0
DWIDTH 28 0
BBX 0 0 0 0
BITMAP
ENDCHAR
STARTCHAR 2010
ENCODING 8208
SWIDTH 357 0
DWIDTH 10 0
BBX 8 2 1 8
BITMAP
FF
FF
ENDCHAR
STARTCHAR 2011
ENCODING 8209
SWIDTH 357 0
DWIDTH 10 0
BBX 8 2 1 8
BITMAP
FF
FF
ENDCHAR
STARTCHAR 2012
ENCODING 8210
SWIDTH 357 0
DWIDTH 10 0
BBX 8 2 1 8
BITMAP
FF
FF
ENDCHAR
STARTCHAR 2013
ENCODING 8211
SWIDTH 535 0
DWIDTH 15 0
BBX 13 2 1 7
BITMAP
FFF8
FFF8
ENDCHAR
STARTCHAR 2014
ENCODING 8212
SWIDTH 964 0
DWIDTH 27 0
BBX 23 2 2 10
BITMAP
FFFFFE
FFFFFE
ENDCHAR
STARTCHAR 2015
ENCODING 8213
SWIDTH 1000 0
DWIDTH 28 0
BBX 24 2 2 10
BITMAP
FFFFFF
FFFFFF
ENDCHAR
STARTCHAR 2016
ENCODING 8214
SWIDTH 1000 0
DWIDTH 28 0
BBX 8 28 10 -3
BITMAP
C3
C3
C3
C3
C3
C3
C3
C3
C3
C3
C3
C3
C3
C3
C3
C3
C3
C3
C3
C3
C3
C3
C3
C3
C3
C3
C3
C3
ENDCHAR
STARTCHAR 2018
ENCODING 8216
SWIDTH 1000 0
DWIDTH 28 0
BBX 4 8 22 16
BITMAP
10
30
60
60
C0
F0
F0
F0
ENDCHAR
STARTCHAR 2019
ENCODING 8217
SWIDTH 1000 0
DWIDTH 28 0
BBX 4 8 2 15
BITMAP
F0
F0
F0
30
60
60
C0
80
ENDCHAR
STARTCHAR 201C
ENCODING 8220
SWIDTH 1000 0
DWIDTH 28 0
BBX 9 8 17 16
BITMAP
3080
6180
4300
C300
C600
E780
E780
E780
ENDCHAR
STARTCHAR 201D
ENCODING 8221
SWIDTH 1000 0
DWIDTH 28 0
BBX 9 8 2 15
BITMAP
F380
F380
F380
3180
6180
6100
C300
8600
ENDCHAR
STARTCHAR 2020
ENCODING 8224
SWIDTH 1000 0
DWIDTH 28 0
BBX 12 25 8 -2
BITMAP
0600
0F00
0F00
0600
0600
F6F0
FFF0
F6F0
0600
0600
0F00
0E00
0600
0600
0600
0600
0600
0600
0600
0600
0600
0600
0600
0600
0600
ENDCHAR
STARTCHAR 2021
ENCODING 8225
SWIDTH 1000 0
DWIDTH 28 0
BBX 12 27 8 -3
BITMAP
0600
0F00
0600
0600
E670
FFF0
F6F0
0600
0F00
0600
0600
0600
0600
0600
0600
0600
0600
0600
0600
E670
FFF0
FFF0
E670
0600
0600
0F00
0600
ENDCHAR
STARTCHAR 2022
ENCODING 8226
SWIDTH 357 0
DWIDTH 10 0
BBX 6 7 2 7
BITMAP
78
FC
FC
FC
FC
FC
78
ENDCHAR
STARTCHAR 2025
ENCODING 8229
SWIDTH 1000 0
DWIDTH 28 0
BBX 18 3 5 9
BITMAP
F003C0
F003C0
F003C0
ENDCHAR
STARTCHAR 2026
ENCODING 8230
SWIDTH 1000 0
DWIDTH 28 0
BBX 22 3 3 9
BITMAP
E0781C
E0781C
E0781C
ENDCHAR
STARTCHAR 2030
ENCODING 8240
SWIDTH 1000 0
DWIDTH 28 0
BBX 25 25 1 -2
BITMAP
00018000
3C018000
7E030000
66060000
62060000
630C0000
430C0000
43180000
63300000
66300000
7E600000
3CC00000
00C00000
019E0F00
01BF1F80
03331980
0631B180
0631B180
0C21B080
0C31B180
1831B180
30331980
303F1F80
601E0F00
C0000000
ENDCHAR
STARTCHAR 2032
ENCODING 8242
SWIDTH 285 0
DWIDTH 8 0
BBX 3 7 2 16
BITMAP
60
60
60
40
C0
C0
80
ENDCHAR
STARTCHAR 2033
ENCODING 8243
SWIDTH 464 0
DWIDTH 13 0
BBX 8 7 2 16
BITMAP
63
66
66
46
C4
C4
8C
ENDCHAR
STARTCHAR 203B
ENCODING 8251
SWIDTH 1000 0
DWIDTH 28 0
BBX 22 23 3 -1
BITMAP
803004
C0780C
607818
303030
180060
0C00C0
060180
030300
018600
00CC00
60781C
F0303C
F0783C
60CC18
018600
030300
060180
0C00C0
183060
307830
607818
C0300C
800004
ENDCHAR
STARTCHAR 203C
ENCODING 8252
SWIDTH 500 0
DWIDTH 14 0
BBX 8 20 3 0
BITMAP
E7
E7
C7
C7
C3
C3
C3
C3
C3
C3
C3
C3
C3
C3
C3
00
00
E7
E7
E7
ENDCHAR
STARTCHAR 203E
ENCODING 8254
SWIDTH 500 0
DWIDTH 14 0
BBX 8 2 3 17
BITMAP
FF
FF
ENDCHAR
STARTCHAR 203F
ENCODING 8255
SWIDTH 464 0
DWIDTH 13 0
BBX 12 3 0 -4
BITMAP
E030
7FF0
1FC0
ENDCHAR
STARTCHAR 2042
ENCODING 8258
SWIDTH 1000 0
DWIDTH 28 0
BBX 20 21 4 0
BITMAP
006000
006000
026C00
03DC00
00F000
00F000
03DC00
036C00
006000
006000
000000
180180
180180
D909B0
EB0F70
3403C0
3C03C0
EF0F70
D909B0
180180
180180
ENDCHAR
STARTCHAR 2047
ENCODING 8263
SWIDTH 1000 0
DWIDTH 28 0
BBX 26 20 1 0
BITMAP
0F807E00
3FE1FF00
70F3C380
E07301C0
C03701C0
403101C0
003001C0
00700380
00E00700
01C00E00
03801C00
07001800
06001800
06003000
06003000
00000000
00000000
06003800
06003800
06003800
ENDCHAR
STARTCHAR 2048
ENCODING 8264
SWIDTH 785 0
DWIDTH 22 0
BBX 18 20 1 0
BITMAP
0F81C0
3FE1C0
7071C0
6031C0
E039C0
4039C0
0031C0
0071C0
00E180
01C180
038180
030180
070180
060180
060180
000000
000000
0701C0
0701C0
0701C0
ENDCHAR
STARTCHAR 2049
ENCODING 8265
SWIDTH 785 0
DWIDTH 22 0
BBX 17 20 3 0
BITMAP
E0FC00
E3FE00
C78700
C70380
CE0380
C60180
C00380
C00300
C00700
C00E00
C01800
C03000
C03000
C03000
C07000
000000
000000
E07000
E07000
E07000
ENDCHAR
STARTCHAR 2051
ENCODING 8273
SWIDTH 1000 0
DWIDTH 28 0
BBX 8 21 10 0
BITMAP
18
98
DB
76
18
F7
DB
18
18
00
00
00
18
18
DB
F7
38
3C
FF
9B
18
ENDCHAR
STARTCHAR 205A
ENCODING 8282
SWIDTH 1000 0
DWIDTH 28 0
BBX 4 17 12 2
BITMAP
F0
F0
F0
00
00
00
00
00
00
00
00
00
00
00
F0
F0
F0
ENDCHAR
STARTCHAR 205D
ENCODING 8285
SWIDTH 1000 0
DWIDTH 28 0
BBX 4 22 12 0
BITMAP
F0
F0
F0
00
00
00
00
00
00
00
F0
F0
F0
00
00
00
00
00
00
F0
F0
F0
ENDCHAR
STARTCHAR 20AC
ENCODING 8364
SWIDTH 642 0
DWIDTH 18 0
BBX 15 20 1 0
BITMAP
01F8
07FC
0F0E
1C04
1800
3800
3800
FFFC
3000
3000
3000
FFFC
FFFC
3000
3800
3800
1C00
0E0E
07FE
01F8
ENDCHAR
STARTCHAR 2103
ENCODING 8451
SWIDTH 1000 0
DWIDTH 28 0
BBX 24 22 1 1
BITMAP
380000
440000
C60FC0
C63FF0
447038
38E01C
01C00E
018006
038000
038000
030000
030000
030000
030000
038000
038007
038007
01C00E
00E01C
00F03C
003FF0
000FC0
ENDCHAR
STARTCHAR 210F
ENCODING 8463
SWIDTH 571 0
DWIDTH 16 0
BBX 13 21 1 0
BITMAP
0C00
0C00
0C00
1FC0
7E00
1800
1800
38F0
3BF8
3638
3C18
3818
7838
7038
6030
6030
6030
E070
C070
C060
C060
ENDCHAR
STARTCHAR 2113
ENCODING 8467
SWIDTH 1000 0
DWIDTH 28 0
BBX 14 20 6 0
BITMAP
00F0
01F8
0398
0718
0618
0E18
0C18
0C18
0C38
1C30
1830
1860
18E0
18C0
1D80
0F04
1E0C
FE1C
77F8
01E0
ENDCHAR
STARTCHAR 2116
ENCODING 8470
SWIDTH 1000 0
DWIDTH 28 0
BBX 25 21 2 0
BITMAP
E0600000
F0600000
F0600000
F0600000
D8600000
D8600000
D861E000
CC63F000
CC673800
C6661800
C6661800
C66E1800
C36C1800
C36C1800
C3EC1800
C1EC1800
C1E61800
C0E61B80
C0E73380
C0E3F380
0001E000
ENDCHAR
STARTCHAR 2121
ENCODING 8481
SWIDTH 1000 0
DWIDTH 28 0
BBX 26 20 1 1
BITMAP
FFC00000
FFC00000
0C000000
0C000000
0C000000
0C3F1800
0C3F1800
0C301800
0C301800
0C301800
0C301800
0C3F1800
0C3F1800
0C301800
0C301800
0C301800
0C301800
0C301800
0C3F9FC0
0C3F9FC0
ENDCHAR
STARTCHAR 2127
ENCODING 8487
SWIDTH 857 0
DWIDTH 24 0
BBX 19 20 2 0
BITMAP
FE0FE0
FE0FE0
060C00
0E0600
1C0700
180380
380180
3001C0
7001C0
7000C0
7000C0
7000C0
7001C0
7001C0
3801C0
380380
1C0380
0E0F00
07FE00
01F800
ENDCHAR
STARTCHAR 212B
ENCODING 8491
SWIDTH 1000 0
DWIDTH 28 0
BBX 18 23 5 1
BITMAP
01E000
033000
021000
033000
01E000
000000
01E000
01E000
03F000
033000
073800
061800
061800
0C0C00
0C0C00
1FFE00
1FFE00
380300
300300
700380
600180
E001C0
E001C0
ENDCHAR
STARTCHAR 2135
ENCODING 8501
SWIDTH 678 0
DWIDTH 19 0
BBX 17 20 1 0
BITMAP
100400
300C00
700C00
600600
700F00
700D80
3C1900
1E3000
1FB000
33E000
71F000
707C00
303E00
300E00
380700
380700
380300
380700
780600
E00C00
ENDCHAR
STARTCHAR 2153
ENCODING 8531
SWIDTH 857 0
DWIDTH 24 0
BBX 20 22 2 -1
BITMAP
180080
7800C0
F80180
180300
180200
180600
180C00
181800
181800
183000
1863C0
0047E0
00CE30
018030
030070
0201C0
060070
0C0030
080430
1807F0
3003E0
200000
ENDCHAR
STARTCHAR 2154
ENCODING 8532
SWIDTH 857 0
DWIDTH 24 0
BBX 20 22 2 -1
BITMAP
000080
7C00C0
FE0180
C60300
060300
0E0600
380C00
601800
C01800
FF3000
FF63E0
0047F0
00CE30
018030
030060
0301C0
060030
0C0030
080430
1807F0
3003C0
200000
ENDCHAR
STARTCHAR 2155
ENCODING 8533
SWIDTH 857 0
DWIDTH 24 0
BBX 20 22 2 -1
BITMAP
180080
7800C0
F80180
180300
180200
180600
180C00
181800
181800
183000
1863F0
0047F0
00C600
018600
0307E0
020630
060010
0C0010
080030
1807F0
3003E0
200000
ENDCHAR
STARTCHAR 2160
ENCODING 8544
SWIDTH 1000 0
DWIDTH 28 0
BBX 2 20 13 1
BITMAP
C0
C0
C0
C0
C0
C0
C0
C0
C0
C0
C0
C0
C0
C0
C0
C0
C0
C0
C0
C0
ENDCHAR
STARTCHAR 2161
ENCODING 8545
SWIDTH 1000 0
DWIDTH 28 0
BBX 10 20 9 1
BITMAP
E1C0
E1C0
E1C0
E1C0
E1C0
E1C0
E1C0
E1C0
E1C0
E1C0
E1C0
E1C0
E1C0
E1C0
E1C0
E1C0
E1C0
E1C0
E1C0
E1C0
ENDCHAR
STARTCHAR 2162
ENCODING 8546
SWIDTH 1000 0
DWIDTH 28 0
BBX 16 20 6 1
BITMAP
C183
C183
C183
C183
C183
C183
C183
C183
C183
C183
C183
C183
C183
C183
C183
C183
C183
C183
C183
C183
ENDCHAR
STARTCHAR 2163
ENCODING 8547
SWIDTH 1000 0
DWIDTH 28 0
BBX 21 20 4 1
BITMAP
E70018
E70038
E70038
E38030
E38070
E18070
E1C060
E1C0E0
E0C0E0
E0E0C0
E0E1C0
E06180
E07380
E07380
E03300
E03F00
E03F00
E01E00
E01E00
E00E00
ENDCHAR
STARTCHAR 2164
ENCODING 8548
SWIDTH 1000 0
DWIDTH 28 0
BBX 18 20 5 1
BITMAP
E001C0
E001C0
700380
700380
300300
380700
380700
180E00
1C0E00
0C0C00
0E1C00
0E1C00
061800
073800
073800
033000
03F000
01E000
01E000
01E000
ENDCHAR
STARTCHAR 2165
ENCODING 8549
SWIDTH 1000 0
DWIDTH 28 0
BBX 21 20 3 1
BITMAP
C00738
E00738
E00738
600E38
700E38
700C38
301C38
381C38
181838
183838
1C3838
0C3038
0E7038
0E7038
066038
07E038
07E038
03C038
03C038
038038
ENDCHAR
STARTCHAR 2166
ENCODING 8550
SWIDTH 1000 0
DWIDTH 28 0
BBX 23 20 2 1
BITMAP
C01CC6
E01CC6
E018C6
6038C6
7038C6
7030C6
3030C6
3070C6
3870C6
3860C6
1860C6
18E0C6
1CC0C6
0CC0C6
0DC0C6
0FC0C6
0F80C6
0780C6
0780C6
0700C6
ENDCHAR
STARTCHAR 2167
ENCODING 8551
SWIDTH 1000 0
DWIDTH 28 0
BBX 24 20 2 1
BITMAP
C07777
C07777
C06777
E06777
606777
60E777
60C777
70C777
30C777
31C777
318777
398777
198777
1B8777
1B0777
1B0777
1F0777
0F0777
0E0777
0E0777
ENDCHAR
STARTCHAR 2168
ENCODING 8552
SWIDTH 1000 0
DWIDTH 28 0
BBX 21 20 4 1
BITMAP
E38070
E1C070
E0C0E0
E0E0C0
E071C0
E07380
E03B80
E01F00
E01E00
E00E00
E01E00
E01F00
E03B80
E07380
E071C0
E0E0E0
E1C0E0
E1C070
E38038
E70038
ENDCHAR
STARTCHAR 2169
ENCODING 8553
SWIDTH 1000 0
DWIDTH 28 0
BBX 18 20 5 1
BITMAP
700380
380700
3C0F00
1C0E00
0E1C00
073800
073800
03F000
01E000
00C000
01E000
03F000
073800
0F3C00
0E1C00
1C0E00
380700
780780
F00380
E001C0
ENDCHAR
STARTCHAR 216A
ENCODING 8554
SWIDTH 1000 0
DWIDTH 28 0
BBX 21 20 3 1
BITMAP
700E38
701C38
383838
183838
1C7038
0E7038
0EE038
07C038
03C038
038038
03C038
07C038
0EE038
0E7038
1C7038
383838
381C38
701C38
E00E38
E00738
ENDCHAR
STARTCHAR 216B
ENCODING 8555
SWIDTH 1000 0
DWIDTH 28 0
BBX 23 20 2 1
BITMAP
6039C6
7031C6
3071C6
3861C6
18E1C6
1CC1C6
0DC1C6
0F81C6
0781C6
0701C6
0781C6
0F81C6
0DC1C6
1CC1C6
18E1C6
3861C6
3071C6
7039C6
6039C6
E01DC6
ENDCHAR
STARTCHAR 2170
ENCODING 8560
SWIDTH 1000 0
DWIDTH 28 0
BBX 2 20 13 1
BITMAP
C0
C0
C0
00
00
00
C0
C0
C0
C0
C0
C0
C0
C0
C0
C0
C0
C0
C0
C0
ENDCHAR
STARTCHAR 2171
ENCODING 8561
SWIDTH 1000 0
DWIDTH 28 0
BBX 10 20 9 1
BITMAP
E1C0
E1C0
E1C0
0000
0000
0000
E1C0
E1C0
E1C0
E1C0
E1C0
E1C0
E1C0
E1C0
E1C0
E1C0
E1C0
E1C0
E1C0
E1C0
ENDCHAR
STARTCHAR 2172
ENCODING 8562
SWIDTH 1000 0
DWIDTH 28 0
BBX 16 20 6 1
BITMAP
E187
E187
E187
0000
0000
0000
6186
6186
6186
6186
6186
6186
6186
6186
6186
6186
6186
6186
6186
6186
ENDCHAR
STARTCHAR 2173
ENCODING 8563
SWIDTH 1000 0
DWIDTH 28 0
BBX 18 20 6 1
BITMAP
E00000
E00000
E00000
000000
000000
000000
C601C0
C701C0
C70180
C30380
C38300
C18700
C1C600
C0C600
C0CE00
C0EC00
C07C00
C07800
C03800
C03800
ENDCHAR
STARTCHAR 2174
ENCODING 8564
SWIDTH 1000 0
DWIDTH 28 0
BBX 14 14 7 1
BITMAP
C00C
E01C
6018
7038
7038
3070
3870
1860
1CE0
0CC0
0FC0
0FC0
0780
0780
ENDCHAR
STARTCHAR 2175
ENCODING 8565
SWIDTH 1000 0
DWIDTH 28 0
BBX 18 20 4 1
BITMAP
0001C0
0001C0
0001C0
000000
000000
000000
E018C0
E038C0
6038C0
7030C0
3070C0
3860C0
18E0C0
18C0C0
1CC0C0
0DC0C0
0F80C0
0780C0
0700C0
0700C0
ENDCHAR
STARTCHAR 2176
ENCODING 8566
SWIDTH 1000 0
DWIDTH 28 0
BBX 21 20 3 1
BITMAP
000718
000718
000718
000000
000000
000000
C07718
E06718
606718
60E718
70C718
30C718
318718
398718
1B8718
1B0718
0F0718
0F0718
0E0718
060718
ENDCHAR
STARTCHAR 2177
ENCODING 8567
SWIDTH 1000 0
DWIDTH 28 0
BBX 23 20 2 1
BITMAP
000776
000776
000776
000000
000000
000000
E03766
607766
606766
706766
30C766
30C766
39C766
198766
198766
1F8766
0F0766
0F0766
070766
060766
ENDCHAR
STARTCHAR 2178
ENCODING 8568
SWIDTH 1000 0
DWIDTH 28 0
BBX 19 20 5 1
BITMAP
E00000
E00000
E00000
000000
000000
000000
E381C0
E381C0
E1C380
E0E700
E07E00
E03C00
E03C00
E03C00
E07E00
E0E700
E1C380
E1C380
E381C0
E700E0
ENDCHAR
STARTCHAR 2179
ENCODING 8569
SWIDTH 1000 0
DWIDTH 28 0
BBX 16 14 6 1
BITMAP
700E
381C
1C38
0E70
07E0
03C0
03C0
03C0
07E0
0E70
1C38
381C
780E
F00F
ENDCHAR
STARTCHAR 217A
ENCODING 8570
SWIDTH 1000 0
DWIDTH 28 0
BBX 19 20 4 1
BITMAP
0000E0
0000E0
0000E0
000000
000000
000000
7038E0
7038E0
3870E0
1CE0E0
0FC0E0
0780E0
0780E0
0780E0
0FC0E0
1CE0E0
3870E0
3870E0
7038E0
E01CE0
ENDCHAR
STARTCHAR 217B
ENCODING 8571
SWIDTH 1000 0
DWIDTH 28 0
BBX 21 20 3 1
BITMAP
000398
000398
000398
000000
000000
000000
606318
70E318
39C318
198318
1F8318
0F0318
0E0318
0F0318
1F8318
198318
39C318
70E318
606318
E07318
ENDCHAR
STARTCHAR 2190
ENCODING 8592
SWIDTH 1000 0
DWIDTH 28 0
BBX 24 10 2 6
BITMAP
070000
0E0000
1C0000
700000
FFFFFF
FFFFFF
700000
1C0000
0E0000
070000
ENDCHAR
STARTCHAR 2191
ENCODING 8593
SWIDTH 1000 0
DWIDTH 28 0
BBX 10 24 9 -1
BITMAP
0C00
0C00
1E00
3F00
7F80
EDC0
CCC0
8C40
0C00
0C00
0C00
0C00
0C00
0C00
0C00
0C00
0C00
0C00
0C00
0C00
0C00
0C00
0C00
0C00
ENDCHAR
STARTCHAR 2192
ENCODING 8594
SWIDTH 1000 0
DWIDTH 28 0
BBX 24 10 2 6
BITMAP
0000E0
000070
000038
00000E
FFFFFF
FFFFFF
00000E
000038
000070
0000E0
ENDCHAR
STARTCHAR 2193
ENCODING 8595
SWIDTH 1000 0
DWIDTH 28 0
BBX 10 24 9 -2
BITMAP
0C00
0C00
0C00
0C00
0C00
0C00
0C00
0C00
0C00
0C00
0C00
0C00
0C00
0C00
0C00
0C00
8C40
8CC0
CCC0
6D80
7F80
3F00
1E00
0C00
ENDCHAR
STARTCHAR 2194
ENCODING 8596
SWIDTH 750 0
DWIDTH 21 0
BBX 17 12 2 3
BITMAP
0C1800
181800
300C00
300600
600300
FFFF80
FFFF80
600300
200600
300C00
181800
0C1800
ENDCHAR
STARTCHAR 2196
ENCODING 8598
SWIDTH 1000 0
DWIDTH 28 0
BBX 20 19 4 0
BITMAP
FC0000
FF8000
71C000
780000
6C0000
660000
630000
618000
20C000
006000
003000
001800
000C00
000600
000300
000180
0000C0
000060
000030
ENDCHAR
STARTCHAR 2197
ENCODING 8599
SWIDTH 1000 0
DWIDTH 28 0
BBX 20 19 4 0
BITMAP
0003F0
001FF0
0038E0
0001E0
000360
000660
000C60
001860
003040
006000
00C000
018000
030000
060000
0C0000
180000
300000
600000
C00000
ENDCHAR
STARTCHAR 2198
ENCODING 8600
SWIDTH 1000 0
DWIDTH 28 0
BBX 20 19 4 2
BITMAP
C00000
600000
300000
180000
0C0000
060000
030000
018000
00C000
006000
003040
001860
000C60
000660
000360
0001E0
0038E0
001FE0
0003F0
ENDCHAR
STARTCHAR 2199
ENCODING 8601
SWIDTH 1000 0
DWIDTH 28 0
BBX 20 19 4 2
BITMAP
000030
000060
0000C0
000180
000300
000600
000C00
001800
003000
006000
20C000
618000
630000
660000
6C0000
780000
71C000
FF8000
FC0000
ENDCHAR
STARTCHAR 21C4
ENCODING 8644
SWIDTH 1000 0
DWIDTH 28 0
BBX 24 21 2 0
BITMAP
0000E0
000070
000038
00000E
FFFFFF
FFFFFF
00000E
000038
000070
0000E0
000000
070000
0E0000
1C0000
700000
FFFFFF
FFFFFF
700000
1C0000
0E0000
070000
ENDCHAR
STARTCHAR 21D2
ENCODING 8658
SWIDTH 750 0
DWIDTH 21 0
BBX 17 12 2 4
BITMAP
003000
001800
000C00
FFFE00
FFFF00
000180
000180
FFFF00
FFFE00
000C00
001800
003000
ENDCHAR
STARTCHAR 21D4
ENCODING 8660
SWIDTH 750 0
DWIDTH 21 0
BBX 17 12 2 3
BITMAP
0C3000
1C1800
180C00
3FFE00
7FFF00
C00180
C00180
7FFF00
3FFE00
180C00
1C1800
0C3000
ENDCHAR
STARTCHAR 21E6
ENCODING 8678
SWIDTH 1000 0
DWIDTH 28 0
BBX 23 9 2 6
BITMAP
010000
070000
190000
31FFFE
C00002
31FFFE
190000
070000
010000
ENDCHAR
STARTCHAR 21E7
ENCODING 8679
SWIDTH 1000 0
DWIDTH 28 0
BBX 10 23 9 0
BITMAP
0C00
1E00
1200
2100
2100
4080
F3C0
1200
1200
1200
1200
1200
1200
1200
1200
1200
1200
1200
1200
1200
1200
1200
1E00
ENDCHAR
STARTCHAR 21E8
ENCODING 8680
SWIDTH 1000 0
DWIDTH 28 0
BBX 23 9 3 6
BITMAP
000100
0001C0
000130
FFFF18
800006
FFFF18
000130
0001C0
000100
ENDCHAR
STARTCHAR 21E9
ENCODING 8681
SWIDTH 1000 0
DWIDTH 28 0
BBX 10 23 9 -2
BITMAP
1E00
1200
1200
1200
1200
1200
1200
1200
1200
1200
1200
1200
1200
1200
1200
F3C0
4080
6180
2100
1200
1200
0C00
0C00
ENDCHAR
STARTCHAR 2200
ENCODING 8704
SWIDTH 750 0
DWIDTH 21 0
BBX 19 21 1 -1
BITMAP
000040
C00060
C000C0
6000C0
600180
300180
300300
1FFF00
1FFF00
080600
0C0600
040C00
060C00
021800
031800
031000
01B000
01A000
00E000
00C000
004000
ENDCHAR
STARTCHAR 2202
ENCODING 8706
SWIDTH 571 0
DWIDTH 16 0
BBX 14 22 1 -1
BITMAP
07C0
1FE0
1C70
0038
0018
0018
0018
001C
078C
1FEC
387C
703C
6038
6038
E038
E038
E030
6030
6060
70E0
3FC0
0F00
ENDCHAR
STARTCHAR 2203
ENCODING 8707
SWIDTH 750 0
DWIDTH 21 0
BBX 15 20 2 0
BITMAP
FFFE
FFFE
0006
0006
0006
0006
0006
0006
0006
FFFE
FFFE
0006
0006
0006
0006
0006
0006
0006
FFFE
FFFE
ENDCHAR
STARTCHAR 2205
ENCODING 8709
SWIDTH 785 0
DWIDTH 22 0
BBX 18 19 2 1
BITMAP
03F000
0C1880
180780
200300
600700
400D80
C01880
8030C0
8060C0
80C0C0
8180C0
C300C0
C600C0
4C0080
780180
300300
780600
CE0C00
03F000
ENDCHAR
STARTCHAR 2207
ENCODING 8711
SWIDTH 750 0
DWIDTH 21 0
BBX 19 20 1 -1
BITMAP
FFFFE0
7FFFC0
7000C0
300180
380180
380100
180300
1C0200
0C0600
0E0400
060C00
070C00
031800
039800
039000
01B000
01E000
00E000
00C000
004000
ENDCHAR
STARTCHAR 2208
ENCODING 8712
SWIDTH 678 0
DWIDTH 19 0
BBX 15 14 2 2
BITMAP
07FE
1FFE
3000
6000
C000
C000
FFFE
FFFE
8000
C000
E000
7000
3FFE
0FFE
ENDCHAR
STARTCHAR 2209
ENCODING 8713
SWIDTH 678 0
DWIDTH 19 0
BBX 15 18 2 -1
BITMAP
0010
0030
07FE
1FFE
3060
6040
C0C0
8080
FFFE
FFFE
8100
C300
E200
7600
3FFE
0FFE
0C00
0C00
ENDCHAR
STARTCHAR 220B
ENCODING 8715
SWIDTH 678 0
DWIDTH 19 0
BBX 15 14 2 2
BITMAP
FFE0
FFF8
001C
000C
0006
0006
FFFE
FFFE
0006
0006
000E
001C
FFF8
FFE0
ENDCHAR
STARTCHAR 2212
ENCODING 8722
SWIDTH 678 0
DWIDTH 19 0
BBX 15 2 2 8
BITMAP
FFFE
FFFE
ENDCHAR
STARTCHAR 2213
ENCODING 8723
SWIDTH 678 0
DWIDTH 19 0
BBX 15 17 2 0
BITMAP
FFFE
FFFE
0000
0100
0100
0100
0100
0100
0100
FFFE
FFFE
0100
0100
0100
0100
0100
0100
ENDCHAR
STARTCHAR 2219
ENCODING 8729
SWIDTH 250 0
DWIDTH 7 0
BBX 3 3 2 7
BITMAP
E0
E0
E0
ENDCHAR
STARTCHAR 221A
ENCODING 8730
SWIDTH 607 0
DWIDTH 17 0
BBX 17 27 1 -2
BITMAP
000180
000300
000300
000300
000600
000600
000600
000C00
000C00
000C00
001800
001800
001800
103000
183000
183000
3C6000
3C6000
6C4000
66C000
46C000
C78000
438000
038000
010000
010000
010000
ENDCHAR
STARTCHAR 221D
ENCODING 8733
SWIDTH 678 0
DWIDTH 19 0
BBX 15 8 2 5
BITMAP
3E1E
7F22
63E0
C1C0
C0C0
41E0
637E
3E1E
ENDCHAR
STARTCHAR 221E
ENCODING 8734
SWIDTH 678 0
DWIDTH 19 0
BBX 17 8 1 5
BITMAP
3C1E00
7F6300
E34100
C1C180
C1C180
C1E300
637F00
3C3E00
ENDCHAR
STARTCHAR 221F
ENCODING 8735
SWIDTH 678 0
DWIDTH 19 0
BBX 15 17 2 2
BITMAP
C000
C000
C000
C000
C000
C000
C000
C000
C000
C000
C000
C000
C000
C000
C000
FFFE
FFFE
ENDCHAR
STARTCHAR 2220
ENCODING 8736
SWIDTH 678 0
DWIDTH 19 0
BBX 17 18 1 2
BITMAP
004000
006000
00C000
008000
018000
010000
030000
060000
060000
0C0000
0C0000
180000
180000
300000
200000
600000
7FFF80
FFFF80
ENDCHAR
STARTCHAR 2225
ENCODING 8741
SWIDTH 678 0
DWIDTH 19 0
BBX 15 25 2 -2
BITMAP
00C6
00C6
0186
018C
018C
030C
0318
0318
0630
0630
0630
0C60
0C60
0C60
18C0
18C0
30C0
3180
3180
6180
6300
6300
C600
C600
4200
ENDCHAR
STARTCHAR 2226
ENCODING 8742
SWIDTH 678 0
DWIDTH 19 0
BBX 15 25 2 -2
BITMAP
0084
00C6
00C6
018C
018C
030C
8318
E318
7618
3E30
0E30
0F60
0FE0
0DE0
18E0
18F8
18DC
318E
3186
6180
6300
6300
C300
C600
C600
ENDCHAR
STARTCHAR 2227
ENCODING 8743
SWIDTH 678 0
DWIDTH 19 0
BBX 15 15 2 1
BITMAP
0380
0380
0680
06C0
0440
0C60
0820
1830
1010
3018
2008
600C
400C
C006
C006
ENDCHAR
STARTCHAR 2228
ENCODING 8744
SWIDTH 678 0
DWIDTH 19 0
BBX 15 15 2 2
BITMAP
C006
C006
600C
600C
3018
3018
1830
1830
0C60
0C60
04C0
06C0
0280
0380
0100
ENDCHAR
STARTCHAR 2229
ENCODING 8745
SWIDTH 678 0
DWIDTH 19 0
BBX 13 17 3 1
BITMAP
0F80
3FE0
7070
6030
C018
C018
8008
8008
8008
8008
8008
8008
8008
8008
8008
8008
8008
ENDCHAR
STARTCHAR 222A
ENCODING 8746
SWIDTH 678 0
DWIDTH 19 0
BBX 13 17 3 0
BITMAP
8008
8008
8008
8008
8008
8008
8008
8008
8008
8008
8018
C018
C018
6030
7070
3FE0
0F80
ENDCHAR
STARTCHAR 222B
ENCODING 8747
SWIDTH 571 0
DWIDTH 16 0
BBX 14 25 1 -5
BITMAP
0070
00F8
019C
018C
0180
0180
0300
0300
0300
0300
0300
0300
0300
0300
0300
0300
0300
0200
0600
0600
C600
C600
CE00
7C00
3800
ENDCHAR
STARTCHAR 222C
ENCODING 8748
SWIDTH 892 0
DWIDTH 25 0
BBX 23 25 1 -5
BITMAP
00703C
00F87E
019C66
018CC6
0180C0
0180C0
0300C0
0300C0
0300C0
0300C0
0300C0
030080
030180
030180
030180
030180
030180
020180
060180
060180
C66180
C63300
CE3300
7C3F00
381E00
ENDCHAR
STARTCHAR 222E
ENCODING 8750
SWIDTH 571 0
DWIDTH 16 0
BBX 14 25 1 -5
BITMAP
0070
00F8
019C
018C
0180
0100
0300
0300
0300
0FC0
1320
1320
1320
1320
1360
0FC0
0300
0600
0600
0600
C600
C600
C600
7C00
3800
ENDCHAR
STARTCHAR 2234
ENCODING 8756
SWIDTH 678 0
DWIDTH 19 0
BBX 15 14 2 2
BITMAP
0380
0380
0380
0380
0000
0000
0000
0000
0000
0000
600C
E01E
F01E
600C
ENDCHAR
STARTCHAR 2235
ENCODING 8757
SWIDTH 678 0
DWIDTH 19 0
BBX 15 14 2 2
BITMAP
600C
E01E
F01E
600C
0000
0000
0000
0000
0000
0000
0380
0380
0380
0380
ENDCHAR
STARTCHAR 223C
ENCODING 8764
SWIDTH 500 0
DWIDTH 14 0
BBX 10 3 2 17
BITMAP
3800
7FC0
C780
ENDCHAR
STARTCHAR 223D
ENCODING 8765
SWIDTH 678 0
DWIDTH 19 0
BBX 17 8 1 5
BITMAP
383E00
607F00
C0E300
C0C180
C18180
E38180
7F0300
3E0E00
ENDCHAR
STARTCHAR 2243
ENCODING 8771
SWIDTH 678 0
DWIDTH 19 0
BBX 15 8 2 5
BITMAP
3F06
FFFE
C1F8
0000
0000
0000
FFFE
FFFE
ENDCHAR
STARTCHAR 2245
ENCODING 8773
SWIDTH 678 0
DWIDTH 19 0
BBX 15 11 2 3
BITMAP
3C02
7F86
C3FC
8078
0000
0000
FFFE
FFFE
0000
FFFE
FFFE
ENDCHAR
STARTCHAR 2248
ENCODING 8776
SWIDTH 678 0
DWIDTH 19 0
BBX 15 9 2 4
BITMAP
3C02
7F86
C3FC
8078
0000
3C02
7F86
C3FC
8078
ENDCHAR
STARTCHAR 2252
ENCODING 8786
SWIDTH 678 0
DWIDTH 19 0
BBX 15 18 2 0
BITMAP
3000
7800
7800
3000
0000
0000
FFFE
FFFE
0000
0000
FFFE
FFFE
0000
0000
0018
003C
003C
0018
ENDCHAR
STARTCHAR 2260
ENCODING 8800
SWIDTH 678 0
DWIDTH 19 0
BBX 15 17 2 0
BITMAP
0060
0060
0040
00C0
00C0
FFFE
FFFE
0180
0300
FFFE
FFFE
0600
0600
0400
0C00
0C00
0400
ENDCHAR
STARTCHAR 2261
ENCODING 8801
SWIDTH 678 0
DWIDTH 19 0
BBX 15 10 2 4
BITMAP
FFFE
FFFE
0000
0000
FFFE
FFFE
0000
0000
FFFE
FFFE
ENDCHAR
STARTCHAR 2262
ENCODING 8802
SWIDTH 678 0
DWIDTH 19 0
BBX 15 17 2 0
BITMAP
0060
0060
0040
FFFE
FFFE
0080
0180
FFFE
FFFE
0300
0200
FFFE
FFFE
0400
0C00
0C00
0400
ENDCHAR
STARTCHAR 2266
ENCODING 8806
SWIDTH 678 0
DWIDTH 19 0
BBX 15 17 2 1
BITMAP
000E
007C
03E0
1F00
F000
E000
7C00
0F80
00F8
001E
0002
0000
FFFE
FFFE
0000
FFFE
FFFE
ENDCHAR
STARTCHAR 2267
ENCODING 8807
SWIDTH 678 0
DWIDTH 19 0
BBX 15 17 2 1
BITMAP
E000
7C00
0F80
01F0
001E
000E
007C
03C0
3E00
F000
8000
0000
FFFE
FFFE
0000
FFFE
FFFE
ENDCHAR
STARTCHAR 226A
ENCODING 8810
SWIDTH 678 0
DWIDTH 19 0
BBX 17 16 1 1
BITMAP
000100
00E380
01C600
031C00
0E3800
1C6000
31C000
E38000
E38000
31C000
186000
0E3000
071C00
018600
00E300
004100
ENDCHAR
STARTCHAR 226B
ENCODING 8811
SWIDTH 678 0
DWIDTH 19 0
BBX 17 16 1 1
BITMAP
400000
E38000
31C000
1C6000
0E3800
031C00
018600
00E300
00E380
01C600
030C00
0E3800
1C6000
30C000
638000
410000
ENDCHAR
STARTCHAR 2276
ENCODING 8822
SWIDTH 678 0
DWIDTH 19 0
BBX 17 19 1 0
BITMAP
000100
001F80
00F800
0F8000
7C0000
700000
1F0000
03F000
003E00
700700
3E0000
03E000
007C00
000700
001F00
01F000
1F8000
F80000
400000
ENDCHAR
STARTCHAR 2277
ENCODING 8823
SWIDTH 678 0
DWIDTH 19 0
BBX 17 19 1 0
BITMAP
400000
FC0000
0F8000
00F800
001F00
000700
007C00
07E000
7E0000
700700
003E00
03E000
1F0000
700000
7C0000
07C000
00F800
001F80
000100
ENDCHAR
STARTCHAR 2282
ENCODING 8834
SWIDTH 678 0
DWIDTH 19 0
BBX 15 14 2 2
BITMAP
07FE
1FFE
3800
6000
C000
C000
8000
8000
C000
C000
E000
7000
3FFE
0FFE
ENDCHAR
STARTCHAR 2283
ENCODING 8835
SWIDTH 678 0
DWIDTH 19 0
BBX 15 14 2 2
BITMAP
FFE0
FFF8
003C
000C
0006
0006
0002
0002
0006
0006
000E
001C
FFF8
FFE0
ENDCHAR
STARTCHAR 2284
ENCODING 8836
SWIDTH 678 0
DWIDTH 19 0
BBX 15 18 2 -1
BITMAP
0018
0018
07FE
1FFE
3830
6060
C060
C040
80C0
8080
C180
C180
E300
7300
3FFE
0FFE
0600
0400
ENDCHAR
STARTCHAR 2285
ENCODING 8837
SWIDTH 678 0
DWIDTH 19 0
BBX 15 18 2 -1
BITMAP
0040
00C0
FFE0
FFF8
019C
018C
0306
0306
0202
0602
0406
0C06
080C
1838
FFF0
FFC0
3000
3000
ENDCHAR
STARTCHAR 2286
ENCODING 8838
SWIDTH 678 0
DWIDTH 19 0
BBX 15 16 2 2
BITMAP
1FFE
3FFE
7000
C000
C000
8000
8000
C000
C000
6000
7FFE
1FFE
0000
0000
FFFE
FFFE
ENDCHAR
STARTCHAR 2287
ENCODING 8839
SWIDTH 678 0
DWIDTH 19 0
BBX 15 16 2 2
BITMAP
FFF0
FFF8
001C
0006
0006
0002
0002
0006
0006
001C
FFFC
FFF0
0000
0000
FFFE
FFFE
ENDCHAR
STARTCHAR 228A
ENCODING 8842
SWIDTH 678 0
DWIDTH 19 0
BBX 15 20 2 -1
BITMAP
1FFE
3FFE
7000
C000
C000
8000
8000
8000
C000
C000
7000
3FFE
1FFE
0000
00C0
FFFE
FFFE
0300
0200
0200
ENDCHAR
STARTCHAR 228B
ENCODING 8843
SWIDTH 678 0
DWIDTH 19 0
BBX 15 20 2 -1
BITMAP
FFE0
FFF8
001C
0006
0006
0002
0002
0002
0006
0006
001C
FFF8
FFF0
0000
00C0
FFFE
FFFE
0300
0600
0200
ENDCHAR
STARTCHAR 2295
ENCODING 8853
SWIDTH 857 0
DWIDTH 24 0
BBX 21 20 1 0
BITMAP
00FC00
07FF00
0F03C0
1C30E0
303070
203030
603018
403018
C03008
CFFFC8
CFFFC8
C03008
403018
603018
603030
303070
1C30E0
0F03C0
07FF80
00FC00
ENDCHAR
STARTCHAR 2296
ENCODING 8854
SWIDTH 857 0
DWIDTH 24 0
BBX 21 20 1 0
BITMAP
00FC00
07FF00
0F03C0
1C00E0
300070
200030
600018
400018
C00008
CFFFC8
CFFFC8
C00008
400018
600018
600030
300070
1C00E0
0F03C0
07FF80
00FC00
ENDCHAR
STARTCHAR 2297
ENCODING 8855
SWIDTH 857 0
DWIDTH 24 0
BBX 21 20 1 0
BITMAP
00FC00
07FF00
0F03C0
1C00E0
3601F0
2703B0
638718
41CE18
C0FC08
C07808
C07808
C0DC08
418E18
630718
6603B0
340170
1C00E0
0F03C0
07FF80
00FC00
ENDCHAR
STARTCHAR 22A5
ENCODING 8869
SWIDTH 678 0
DWIDTH 19 0
BBX 17 18 1 2
BITMAP
008000
008000
008000
008000
008000
008000
008000
008000
008000
008000
008000
008000
008000
008000
008000
008000
FFFF80
FFFF80
ENDCHAR
STARTCHAR 22BF
ENCODING 8895
SWIDTH 678 0
DWIDTH 19 0
BBX 17 17 1 3
BITMAP
000080
000180
000380
000780
000D80
001980
003180
006180
00C180
018180
030180
060180
0C0180
180180
300180
7FFF80
FFFF80
ENDCHAR
STARTCHAR 22DA
ENCODING 8922
SWIDTH 678 0
DWIDTH 19 0
BBX 15 20 2 0
BITMAP
0002
007E
0FE0
FC00
F000
1FC0
00FE
0006
0000
FFFE
FFFE
0000
C000
FC00
0FE0
003E
001E
07F0
FE00
E000
ENDCHAR
STARTCHAR 22DB
ENCODING 8923
SWIDTH 678 0
DWIDTH 19 0
BBX 15 19 2 1
BITMAP
FC00
0FE0
007E
001E
07F0
FE00
C000
0000
FFFE
FFFE
0000
0006
00FE
0FE0
F800
F000
1FC0
00FE
000E
ENDCHAR
STARTCHAR 2305
ENCODING 8965
SWIDTH 678 0
DWIDTH 19 0
BBX 15 13 2 1
BITMAP
FFFE
FFFE
0380
0280
06C0
06C0
0C60
0C60
1830
1830
1010
3018
1010
ENDCHAR
STARTCHAR 2306
ENCODING 8966
SWIDTH 678 0
DWIDTH 19 0
BBX 15 17 2 0
BITMAP
FFFE
FFFE
0000
0000
FFFE
FFFE
0380
0280
06C0
06C0
0C60
0C60
1830
1830
1010
3018
1010
ENDCHAR
STARTCHAR 2312
ENCODING 8978
SWIDTH 1000 0
DWIDTH 28 0
BBX 26 5 1 17
BITMAP
00FFC000
0FFFFC00
3F003F00
F00003C0
C00000C0
ENDCHAR
STARTCHAR 2318
ENCODING 8984
SWIDTH 1000 0
DWIDTH 28 0
BBX 24 24 2 -1
BITMAP
7C003E
C60063
820041
820041
820041
C20043
7FFFFE
020040
020040
020040
020040
020040
020040
020040
020040
020040
020040
7FFFFE
C20043
820041
820041
820041
C60063
7C003E
ENDCHAR
STARTCHAR 23BE
ENCODING 9150
SWIDTH 1000 0
DWIDTH 28 0
BBX 15 28 13 -3
BITMAP
FFFE
C000
C000
C000
C000
C000
C000
C000
C000
C000
C000
C000
C000
C000
C000
C000
C000
C000
C000
C000
C000
C000
C000
C000
C000
C000
C000
C000
ENDCHAR
STARTCHAR 23BF
ENCODING 9151
SWIDTH 1000 0
DWIDTH 28 0
BBX 15 28 13 -3
BITMAP
C000
C000
C000
C000
C000
C000
C000
C000
C000
C000
C000
C000
C000
C000
C000
C000
C000
C000
C000
C000
C000
C000
C000
C000
C000
C000
C000
FFFE
ENDCHAR
STARTCHAR 23C0
ENCODING 9152
SWIDTH 1000 0
DWIDTH 28 0
BBX 22 28 3 -3
BITMAP
003000
003000
003000
003000
01FE00
073180
0C30C0
103020
203030
603010
403008
403008
C03008
C0300C
80300C
C0300C
403008
403008
403008
203010
303030
183060
0C30C0
073380
00FC00
003000
003000
003000
ENDCHAR
STARTCHAR 23C1
ENCODING 9153
SWIDTH 1000 0
DWIDTH 28 0
BBX 28 28 0 -3
BITMAP
FFFFFFF0
00060000
00060000
000F0000
007FE000
01C61800
03060C00
06060600
04060200
08060300
08060100
08060100
18060180
18060180
10060180
18060180
08060100
08060100
0C060300
04060200
02060400
03060800
00C63000
007FE000
00060000
00060000
00060000
00060000
ENDCHAR
STARTCHAR 23C2
ENCODING 9154
SWIDTH 1000 0
DWIDTH 28 0
BBX 28 28 0 -3
BITMAP
00060000
00060000
00060000
00060000
007FC000
00C63000
01060800
02060400
04060200
0C060300
08060100
08060100
18060180
18060180
10060180
18060180
08060100
08060100
0C060300
04060200
06060600
03060C00
01861800
007FE000
000F0000
00060000
00060000
FFFFFFF0
ENDCHAR
STARTCHAR 23C3
ENCODING 9155
SWIDTH 1000 0
DWIDTH 28 0
BBX 24 27 2 -3
BITMAP
001800
001800
001800
001800
001800
003C00
003C00
007A00
005B00
009900
019980
011880
0318C0
021840
041820
0C1830
081810
181818
101808
201804
601806
401802
FFFFFF
001800
001800
001800
001800
ENDCHAR
STARTCHAR 23C4
ENCODING 9156
SWIDTH 1000 0
DWIDTH 28 0
BBX 28 28 0 -3
BITMAP
FFFFFFF0
00060000
00060000
00060000
00060000
00060000
000F0000
001F8000
00168000
0036C000
00264000
00662000
00462000
00861000
01861800
01060800
03060C00
02060400
06060200
04060200
08060100
18060180
10060080
3FFFFFC0
00060000
00060000
00060000
00060000
ENDCHAR
STARTCHAR 23C5
ENCODING 9157
SWIDTH 1000 0
DWIDTH 28 0
BBX 28 27 0 -3
BITMAP
00060000
00060000
00060000
00060000
00060000
000F0000
000F0000
00168000
00368000
00264000
00666000
00462000
00C63000
00861000
01060800
03060C00
02060400
06060600
04060200
08060100
18060180
10060080
3FFFFFC0
00060000
00060000
00060000
FFFFFFF0
ENDCHAR
STARTCHAR 23C6
ENCODING 9158
SWIDTH 1000 0
DWIDTH 28 0
BBX 24 28 2 -3
BITMAP
001800
001800
001800
001800
001800
001800
001800
001800
001800
001800
001800
1F1800
61D800
803800
001800
001E01
001B86
0018F8
001800
001800
001800
001800
001800
001800
001800
001800
001800
001800
ENDCHAR
STARTCHAR 23C7
ENCODING 9159
SWIDTH 1000 0
DWIDTH 28 0
BBX 28 28 0 -3
BITMAP
FFFFFFF0
00060000
00060000
00060000
00060000
00060000
00060000
00060000
00060000
00060000
00060000
0FC60000
303E0000
000E0000
00070040
0006C0C0
00063F00
00060000
00060000
00060000
00060000
00060000
00060000
00060000
00060000
00060000
00060000
00060000
ENDCHAR
STARTCHAR 23C8
ENCODING 9160
SWIDTH 1000 0
DWIDTH 28 0
BBX 28 28 0 -3
BITMAP
00060000
00060000
00060000
00060000
00060000
00060000
00060000
00060000
00060000
00060000
00060000
0FC60000
38360000
200E0000
00070000
0007C0C0
00063F00
00060000
00060000
00060000
00060000
00060000
00060000
00060000
00060000
00060000
00060000
FFFFFFF0
ENDCHAR
STARTCHAR 23C9
ENCODING 9161
SWIDTH 1000 0
DWIDTH 28 0
BBX 28 28 0 -3
BITMAP
FFFFFFF0
00060000
00060000
00060000
00060000
00060000
00060000
00060000
00060000
00060000
00060000
00060000
00060000
00060000
00060000
00060000
00060000
00060000
00060000
00060000
00060000
00060000
00060000
00060000
00060000
00060000
00060000
00060000
ENDCHAR
STARTCHAR 23CA
ENCODING 9162
SWIDTH 1000 0
DWIDTH 28 0
BBX 28 28 0 -3
BITMAP
00060000
00060000
00060000
00060000
00060000
00060000
00060000
00060000
00060000
00060000
00060000
00060000
00060000
00060000
00060000
00060000
00060000
00060000
00060000
00060000
00060000
00060000
00060000
00060000
00060000
00060000
00060000
FFFFFFF0
ENDCHAR
STARTCHAR 23CB
ENCODING 9163
SWIDTH 1000 0
DWIDTH 28 0
BBX 15 28 0 -3
BITMAP
FFFE
0006
0006
0006
0006
0006
0006
0006
0006
0006
0006
0006
0006
0006
0006
0006
0006
0006
0006
0006
0006
0006
0006
0006
0006
0006
0006
0006
ENDCHAR
STARTCHAR 23CC
ENCODING 9164
SWIDTH 1000 0
DWIDTH 28 0
BBX 15 28 0 -3
BITMAP
0006
0006
0006
0006
0006
0006
0006
0006
0006
0006
0006
0006
0006
0006
0006
0006
0006
0006
0006
0006
0006
0006
0006
0006
0006
0006
0006
FFFE
ENDCHAR
STARTCHAR 23CE
ENCODING 9166
SWIDTH 1000 0
DWIDTH 28 0
BBX 23 23 2 -2
BITMAP
0001FE
000102
000102
000102
000102
000102
000102
008102
018102
038102
068102
1CFF02
300002
600002
C00006
C00006
60000C
30001C
0CFFF0
068000
038000
018000
008000
ENDCHAR
STARTCHAR 2423
ENCODING 9251
SWIDTH 1000 0
DWIDTH 28 0
BBX 22 5 3 -1
BITMAP
C0000C
C0000C
C0000C
C0000C
FFFFFC
ENDCHAR
STARTCHAR 2460
ENCODING 9312
SWIDTH 1000 0
DWIDTH 28 0
BBX 26 27 1 -3
BITMAP
007F0000
01C0E000
06001800
0C000C00
18060600
301E0300
207E0100
607E0180
400E0080
C00E00C0
800E0040
800E0040
800E0040
800E0040
800E0040
800E0040
800E0040
C00E00C0
400E0080
600E0180
200E0100
300E0300
18000600
0C000C00
06001800
01C0E000
007F0000
ENDCHAR
STARTCHAR 2461
ENCODING 9313
SWIDTH 1000 0
DWIDTH 28 0
BBX 26 26 1 -3
BITMAP
007F8000
03C0E000
06001800
0C1F0C00
187F8600
30F1C300
60E0E100
40C06080
C1C06080
C1C0E0C0
8000E040
8001C040
80078040
800F0040
801C0040
80380040
C06000C0
40E00080
40C00080
21FFE100
31FFE300
18000600
0C000C00
06001800
01C0E000
007F0000
ENDCHAR
STARTCHAR 2462
ENCODING 9314
SWIDTH 1000 0
DWIDTH 28 0
BBX 26 27 1 -3
BITMAP
007F0000
01C0E000
06001800
0C000C00
183F0600
307F8300
20E1C100
61C0E180
41C0E080
C000E0C0
8000C040
8001C040
803F0040
803F8040
8000E040
80006040
80006040
C18070C0
41806080
61C06180
20E1E100
307FC300
183F0600
0C000C00
06001800
01C0E000
007F0000
ENDCHAR
STARTCHAR 2463
ENCODING 9315
SWIDTH 1000 0
DWIDTH 28 0
BBX 26 27 1 -3
BITMAP
007F0000
01C0E000
06001800
0C000C00
18030600
30070300
200F0100
600F0180
401B0080
C03B00C0
80730040
80630040
80E30040
81C30040
81830040
83030040
83FFF040
C3FFF0C0
40030080
60030180
20030100
30030300
18000600
0C000C00
06001800
01C0E000
007F0000
ENDCHAR
STARTCHAR 2464
ENCODING 9316
SWIDTH 1000 0
DWIDTH 28 0
BBX 26 27 1 -3
BITMAP
003F0000
01C0E000
02001800
04000C00
08000600
10FFC300
20FFC100
60C00180
40C00080
C0C000C0
80C00040
80DF8040
80FFC040
80E1E040
80C0E040
80006040
80006040
C00060C0
41C06080
60C0E180
20E1C100
307F8300
181F0600
0C000C00
06001800
01C0E000
007F0000
ENDCHAR
STARTCHAR 2465
ENCODING 9317
SWIDTH 1000 0
DWIDTH 28 0
BBX 26 27 1 -3
BITMAP
007F0000
01C0E000
06001800
0C000C00
181F0600
303F8300
2071C100
60E0E180
40C0E080
C1C000C0
81800040
819F0040
81BF8040
81E1C040
81C0E040
81C06040
81806040
C18060C0
40C06080
60C0E180
20E1C100
307F8300
181F0600
0C000C00
06001800
01C0E000
007F0000
ENDCHAR
STARTCHAR 2466
ENCODING 9318
SWIDTH 1000 0
DWIDTH 28 0
BBX 26 27 1 -3
BITMAP
007F0000
01C0E000
06001800
0C000C00
18000600
31FFE300
21FFE100
6000E180
4000C080
C001C0C0
80018040
80018040
80038040
80030040
80070040
80060040
80060040
C00E00C0
400C0080
601C0180
201C0100
30180300
18380600
0C000C00
06001800
01C0E000
007F0000
ENDCHAR
STARTCHAR 2467
ENCODING 9319
SWIDTH 1000 0
DWIDTH 28 0
BBX 26 27 1 -3
BITMAP
007F0000
01C0E000
06001800
0C000C00
183F0600
307F8300
20E1C100
61C0E180
41806080
C18060C0
81C0E040
80E1C040
807F8040
807F8040
80E1C040
81C0E040
81806040
C38070C0
43806080
61806180
21E1E100
30FFC300
183F0600
0C000C00
06001800
01C0E000
007F0000
ENDCHAR
STARTCHAR 2468
ENCODING 9320
SWIDTH 1000 0
DWIDTH 28 0
BBX 26 27 1 -3
BITMAP
007F0000
01C0E000
06001800
0C000C00
181F0600
307F8300
20E1C100
60C0C180
40C0E080
C1C060C0
81C06040
81C0E040
80C0E040
80E1E040
807FE040
801E6040
80006040
C00060C0
40C0E080
60E0C180
2061C100
307F8300
181F0600
0C000C00
06001800
01C0E000
007F0000
ENDCHAR
STARTCHAR 2469
ENCODING 9321
SWIDTH 1000 0
DWIDTH 28 0
BBX 26 27 1 -3
BITMAP
007F0000
01C0E000
06001800
0C000C00
1803C600
3387F300
278E3100
678C3980
438C1880
C39C18C0
839C1840
83981C40
83981C40
83981C40
83981C40
839C1840
839C1840
C38C18C0
438C3880
638E3180
2387F100
3383C300
18000600
0C000C00
06001800
01C0E000
007F0000
ENDCHAR
STARTCHAR 246A
ENCODING 9322
SWIDTH 1000 0
DWIDTH 28 0
BBX 26 27 1 -3
BITMAP
007F0000
01C0E000
06001800
0C000C00
18000600
31C06300
27C1E100
67C1E180
45C06080
C1C060C0
81C06040
81C06040
81C06040
81C06040
81C06040
81C06040
81C06040
C1C060C0
41C06080
61C06180
21C06100
31C06300
18000600
0C000C00
06001800
01C0E000
007F0000
ENDCHAR
STARTCHAR 246B
ENCODING 9323
SWIDTH 1000 0
DWIDTH 28 0
BBX 26 27 1 -3
BITMAP
007F0000
01C0E000
06001800
0C000C00
1803C600
3387F300
278E3100
678C3980
438C1880
C39C18C0
83803840
83803040
83807040
8380E040
8381C040
83838040
83870040
C38600C0
438C0080
638C0180
239FF900
339FFB00
18000600
0C000C00
06001800
01C0E000
007F0000
ENDCHAR
STARTCHAR 246C
ENCODING 9324
SWIDTH 1000 0
DWIDTH 28 0
BBX 26 27 1 -3
BITMAP
007F0000
01C0E000
06001800
0C000C00
1803C600
3387E300
278C7100
678C3180
43983880
C38038C0
83803040
83807040
8383C040
8383F040
83803840
83801840
83801840
C39818C0
43981880
638C3980
238FF100
3383C300
18000600
0C000C00
06001800
01C0E000
007F0000
ENDCHAR
STARTCHAR 246D
ENCODING 9325
SWIDTH 1000 0
DWIDTH 28 0
BBX 26 27 1 -3
BITMAP
003F0000
01C0E000
02001800
0C000C00
18000600
13806300
2780E100
6781E180
4381E080
C383E0C0
83836040
83866040
838E6040
838C6040
839C6040
83986040
83BFFC40
C3BFFCC0
43806080
63806180
23806100
33806300
18000600
0C000C00
06001800
01C0E000
007F0000
ENDCHAR
STARTCHAR 246E
ENCODING 9326
SWIDTH 1000 0
DWIDTH 28 0
BBX 26 27 1 -3
BITMAP
003F0000
01C0E000
02001800
04000C00
08000600
118FF300
278FF100
678C0180
4B8C0080
C38C00C0
838C0040
838FC040
838FF040
838C3040
83803840
83801840
83801840
C38018C0
43981880
639C3980
238C7100
3387E300
1803C600
0C000C00
06001800
01C0E000
007F0000
ENDCHAR
STARTCHAR 246F
ENCODING 9327
SWIDTH 1000 0
DWIDTH 28 0
BBX 26 27 1 -3
BITMAP
007F0000
01C0E000
06001800
0C000C00
1803C600
3387E300
27863100
678C3980
438C1880
C39C00C0
83980040
8399E040
839FF040
839E3040
839C3840
83981840
83981840
C39C18C0
438C3880
638E3180
2387F100
3383C300
18000600
0C000C00
06001800
01C0E000
007F0000
ENDCHAR
STARTCHAR 2470
ENCODING 9328
SWIDTH 1000 0
DWIDTH 28 0
BBX 26 27 1 -3
BITMAP
003F0000
01C0E000
02001800
04000C00
08000600
119FFB00
279FF900
67803180
41803080
C18060C0
81806040
81806040
8180C040
8180C040
8181C040
81818040
81818040
C18180C0
41838080
61830180
21830100
31870300
18000600
0C000C00
06001800
01C0E000
007F0000
ENDCHAR
STARTCHAR 2471
ENCODING 9329
SWIDTH 1000 0
DWIDTH 28 0
BBX 26 27 1 -3
BITMAP
007F0000
01C0E000
06001800
0C000C00
1803C600
3387E300
278C7100
679C3180
43981880
C39838C0
839C3040
838C7040
8387C040
838FF040
839C3840
83981840
83981840
C39818C0
43981880
639C3980
238FF100
3387C300
18000600
0C000C00
06001800
01C0E000
007F0000
ENDCHAR
STARTCHAR 2472
ENCODING 9330
SWIDTH 1000 0
DWIDTH 28 0
BBX 26 27 1 -3
BITMAP
007F0000
01C0E000
06001800
0C000C00
1803C600
3387E300
278E7100
678C3980
439C1880
C39818C0
83981840
839C1840
839C3840
838E7840
8387F840
83839840
83801840
C38038C0
438C3080
638C7180
238FE100
3383C300
18000600
0C000C00
06001800
01C0E000
007F0000
ENDCHAR
STARTCHAR 2473
ENCODING 9331
SWIDTH 1000 0
DWIDTH 28 0
BBX 26 27 1 -3
BITMAP
003F0000
01C0E000
02001800
0C000C00
18000600
31E0F300
23F1F900
63399980
461B0C80
C61B0CC0
801B0C40
80330C40
80330C40
80630C40
80C30C40
81C30C40
81830C40
C3030CC0
43031C80
66019980
27F9F900
37F8F300
18000600
0C000C00
06001800
01C0E000
007F0000
ENDCHAR
STARTCHAR 24D0
ENCODING 9424
SWIDTH 1000 0
DWIDTH 28 0
BBX 26 27 1 -3
BITMAP
007F0000
01C0E000
06001800
0C000C00
18000600
30000300
20000100
603E0180
407F8080
C0E180C0
80C18040
8000C040
800FC040
807FC040
80C0C040
80C0C040
80C3C040
C0FFE0C0
407CE080
60000180
20000100
30000300
18000600
0C000C00
06001800
01C0E000
007F0000
ENDCHAR
STARTCHAR 24D1
ENCODING 9425
SWIDTH 1000 0
DWIDTH 28 0
BBX 26 27 1 -3
BITMAP
007F0000
01C0E000
06001800
0C000C00
18000600
30C00300
20C00100
60C00180
40C00080
C0CF80C0
80D8C040
80E06040
80E06040
80E06040
80C06040
80C06040
80E06040
C0E060C0
40E0E080
60D1C180
20CF0100
30000300
18000600
0C000C00
06001800
01C0E000
007F0000
ENDCHAR
STARTCHAR 24D2
ENCODING 9426
SWIDTH 1000 0
DWIDTH 28 0
BBX 26 27 1 -3
BITMAP
007F0000
01C0E000
06001800
0C000C00
18000600
30000300
20000100
601E0180
407F8080
C0E180C0
80C0C040
80C0C040
81C00040
81C00040
80C00040
80C0C040
80E1C040
C07F80C0
401F0080
60000180
20000100
30000300
18000600
0C000C00
06001800
01C0E000
007F0000
ENDCHAR
STARTCHAR 24D3
ENCODING 9427
SWIDTH 1000 0
DWIDTH 28 0
BBX 26 27 1 -3
BITMAP
007F0000
01C0E000
06001800
0C000C00
18000600
3000C300
2000C100
6000C180
4000C080
C078C0C0
80C6C040
8181C040
8181C040
8181C040
8380C040
8180C040
8181C040
C181C0C0
4183C080
60C6C180
203CC100
30000300
18000600
0C000C00
06001800
01C0E000
007F0000
ENDCHAR
STARTCHAR 24D4
ENCODING 9428
SWIDTH 1000 0
DWIDTH 28 0
BBX 26 27 1 -3
BITMAP
007F0000
01C0E000
06001800
0C000C00
18000600
30000300
20000100
601E0180
407F8080
C06180C0
80C0C040
80C0C040
81FFC040
81FFE040
81800040
80C0E040
80C0C040
C061C0C0
407F8080
601F0180
20000100
30000300
18000600
0C000C00
06001800
01C0E000
007F0000
ENDCHAR
STARTCHAR 24D5
ENCODING 9429
SWIDTH 1000 0
DWIDTH 28 0
BBX 26 27 1 -3
BITMAP
007F0000
01C0E000
06001800
0C000C00
18000600
300F8300
601F8100
60180180
40180080
C01800C0
80180040
80FF8040
80FF8040
80180040
80180040
80180040
80180040
C01800C0
40180080
60180180
20180100
30180300
18000600
0C000C00
06001800
01C0E000
007F0000
ENDCHAR
STARTCHAR 24D6
ENCODING 9430
SWIDTH 1000 0
DWIDTH 28 0
BBX 26 27 1 -3
BITMAP
007F0000
01C0E000
06001800
0C000C00
18000600
30000300
201E4100
6063C180
4041C080
C0C0C0C0
80C0C040
80C0C040
80C0C040
80C1C040
8063C040
803EC040
8000C040
C0C0C0C0
40408080
60618180
203F0100
30000300
18000600
0C000C00
06001800
01C0E000
007F0000
ENDCHAR
STARTCHAR 24D7
ENCODING 9431
SWIDTH 1000 0
DWIDTH 28 0
BBX 26 27 1 -3
BITMAP
007F0000
01C0E000
06001800
0C000C00
18000600
30600300
20600100
60600180
40600080
C06000C0
806F8040
807FC040
8078C040
8060E040
80606040
80606040
80606040
C06060C0
40606080
60606180
20606100
30000300
18000600
0C000C00
06001800
01C0E000
007F0000
ENDCHAR
STARTCHAR 24D8
ENCODING 9432
SWIDTH 1000 0
DWIDTH 28 0
BBX 26 27 1 -3
BITMAP
007F0000
01C0E000
06001800
0C000C00
18000600
300C0300
200C0100
600C0180
40000080
C00000C0
800C0040
800C0040
800C0040
800C0040
800C0040
800C0040
800C0040
C00C00C0
400C0080
600C0180
200C0100
300C0300
18000600
0C000C00
06001800
01C0E000
007F0000
ENDCHAR
STARTCHAR 24D9
ENCODING 9433
SWIDTH 1000 0
DWIDTH 28 0
BBX 26 27 1 -3
BITMAP
007F0000
01C0E000
06001800
0C060C00
18060600
30060300
20000100
60000180
40060080
C00600C0
80060040
80060040
80060040
80060040
80060040
80060040
80060040
C00600C0
40060080
60060180
20060100
307E0300
187C0600
0C000C00
06001800
01C0E000
007F0000
ENDCHAR
STARTCHAR 24DA
ENCODING 9434
SWIDTH 1000 0
DWIDTH 28 0
BBX 26 26 1 -2
BITMAP
007F8000
01C0E000
06001800
0C000C00
18000600
30600300
60600100
40600080
40600080
C06000C0
8061C040
80638040
80670040
806E0040
807C0040
80760040
C06300C0
40638080
4061C080
2060C100
30606300
18000600
0C000C00
06001800
01C0E000
007F0000
ENDCHAR
STARTCHAR 24DB
ENCODING 9435
SWIDTH 1000 0
DWIDTH 28 0
BBX 26 27 1 -3
BITMAP
007F0000
01C0E000
06001800
0C000C00
18000600
300C0300
200C0100
600C0180
400C0080
C00C00C0
800C0040
800C0040
800C0040
800C0040
800C0040
800C0040
800C0040
C00C00C0
400C0080
600C0180
200C0100
300C0300
18000600
0C000C00
06001800
01C0E000
007F0000
ENDCHAR
STARTCHAR 24DC
ENCODING 9436
SWIDTH 1000 0
DWIDTH 28 0
BBX 26 27 1 -3
BITMAP
007F0000
01C0E000
06001800
0C000C00
18000600
30000300
20000100
6071E180
43FBF080
C39E30C0
830C3040
830C3040
830C3040
830C3040
830C3040
830C3040
830C3040
C30C30C0
430C3080
60000180
20000100
30000300
18000600
0C000C00
06001800
01C0E000
007F0000
ENDCHAR
STARTCHAR 24DD
ENCODING 9437
SWIDTH 1000 0
DWIDTH 28 0
BBX 26 27 1 -3
BITMAP
007F0000
01C0E000
06001800
0C000C00
18000600
30000300
20000100
600F0180
40DF8080
C0F1C0C0
80E0C040
80C0C040
80C0C040
80C0C040
80C0C040
80C0C040
80C0C040
C0C0C0C0
40C0C080
60000180
20000100
30000300
18000600
0C000C00
06001800
01C0E000
007F0000
ENDCHAR
STARTCHAR 24DE
ENCODING 9438
SWIDTH 1000 0
DWIDTH 28 0
BBX 26 27 1 -3
BITMAP
007F0000
01C0E000
06001800
0C000C00
18000600
30000300
20000100
601E0180
407F8080
C0E1C0C0
80C0C040
80C0C040
81C0E040
81C0E040
80C0C040
80C0C040
80E1C040
C07F80C0
401E0080
60000180
20000100
30000300
18000600
0C000C00
06001800
01C0E000
007F0000
ENDCHAR
STARTCHAR 24DF
ENCODING 9439
SWIDTH 1000 0
DWIDTH 28 0
BBX 26 27 1 -3
BITMAP
007F0000
01C0E000
06001800
0C000C00
18000600
30000300
20000100
60CF8180
40F0C080
C0E060C0
80E06040
80C03040
80C03040
80C03040
80E06040
80E06040
80D0C040
C0CF80C0
40C00080
60C00180
20C00100
30000300
18000600
0C000C00
06001800
01C0E000
007F0000
ENDCHAR
STARTCHAR 24E0
ENCODING 9440
SWIDTH 1000 0
DWIDTH 28 0
BBX 26 27 1 -3
BITMAP
007F0000
01C0E000
06001800
0C000C00
18000600
30000300
20000100
607CC180
40C3C080
C181C0C0
8181C040
8300C040
8300C040
8300C040
8181C040
8181C040
80C2C040
C07CC0C0
4000C080
6000C180
2000C100
30000300
18000600
0C000C00
06001800
01C0E000
007F0000
ENDCHAR
STARTCHAR 24E1
ENCODING 9441
SWIDTH 1000 0
DWIDTH 28 0
BBX 26 27 1 -3
BITMAP
007F0000
01C0E000
06001800
0C000C00
18000600
30000300
20000100
60000180
4018C080
C01BC0C0
801F8040
801E0040
80180040
80180040
80180040
80180040
80180040
C01800C0
40180080
60180180
20000100
30000300
18000600
0C000C00
06001800
01C0E000
007F0000
ENDCHAR
STARTCHAR 24E2
ENCODING 9442
SWIDTH 1000 0
DWIDTH 28 0
BBX 26 27 1 -3
BITMAP
007F0000
01C0E000
06001800
0C000C00
18000600
30000300
20000100
603E0180
40630080
C04180C0
80618040
80780040
803F0040
800F8040
8003C040
80C0C040
80C0C040
C06180C0
403F0080
60000180
20000100
30000300
18000600
0C000C00
06001800
01C0E000
007F0000
ENDCHAR
STARTCHAR 24E3
ENCODING 9443
SWIDTH 1000 0
DWIDTH 28 0
BBX 26 27 1 -3
BITMAP
007F0000
01C0E000
06001800
0C000C00
18000600
30000300
60180100
60180180
40180080
C0FF00C0
80FF0040
80180040
80180040
80180040
80180040
80180040
80180040
C01800C0
40180080
601F8180
200F8100
30000300
18000600
0C000C00
06001800
01C0E000
007F0000
ENDCHAR
STARTCHAR 24E4
ENCODING 9444
SWIDTH 1000 0
DWIDTH 28 0
BBX 26 27 1 -3
BITMAP
007F0000
01C0E000
06001800
0C000C00
18000600
30000300
20000100
60000180
40C0C080
C0C0C0C0
80C0C040
80C0C040
80C0C040
80C0C040
80C0C040
80C1C040
80E3C040
C07FC0C0
403CC080
60000180
20000100
30000300
18000600
0C000C00
06001800
01C0E000
007F0000
ENDCHAR
STARTCHAR 24E5
ENCODING 9445
SWIDTH 1000 0
DWIDTH 28 0
BBX 26 27 1 -3
BITMAP
007F0000
01C0E000
06001800
0C000C00
18000600
30000300
20000100
60000180
40000080
C18060C0
80C0C040
80C0C040
80E1C040
80618040
80738040
80330040
80370040
C01E00C0
401E0080
600C0180
20000100
30000300
18000600
0C000C00
06001800
01C0E000
007F0000
ENDCHAR
STARTCHAR 24E6
ENCODING 9446
SWIDTH 1000 0
DWIDTH 28 0
BBX 26 27 1 -3
BITMAP
007F0000
01C0E000
06001800
0C000C00
18000600
30000300
20000100
60000180
40000080
C60C18C0
861E1840
861E1840
831E3040
83333040
83333040
81B36040
81A16040
C0E1C0C0
40E1C080
60C1C180
20000100
30000300
18000600
0C000C00
06001800
01C0E000
007F0000
ENDCHAR
STARTCHAR 24E7
ENCODING 9447
SWIDTH 1000 0
DWIDTH 28 0
BBX 26 27 1 -3
BITMAP
003F0000
01C0E000
02001800
04000C00
18000600
10000300
20000100
60000180
41C0E080
C0E1C0C0
80738040
80330040
801E0040
801C0040
801E0040
80330040
80618040
C0C0C0C0
41C0E080
60000180
20000100
30000300
18000600
0C000C00
06001800
01C0E000
007F0000
ENDCHAR
STARTCHAR 24E8
ENCODING 9448
SWIDTH 1000 0
DWIDTH 28 0
BBX 26 27 1 -3
BITMAP
007F0000
01C0E000
06001800
0C000C00
18000600
30000300
20000100
60C06180
40C06080
C060C0C0
8060C040
80318040
80318040
801B8040
801B0040
800F0040
800E0040
C00E00C0
400C0080
601C0180
20F80100
30000300
18000600
0C000C00
06001800
01C0E000
007F0000
ENDCHAR
STARTCHAR 24E9
ENCODING 9449
SWIDTH 1000 0
DWIDTH 28 0
BBX 26 27 1 -3
BITMAP
003F0000
01C0E000
02001800
04000C00
18000600
10000300
20000100
60000180
40FFC080
C0FFC0C0
80018040
80070040
800E0040
801C0040
80380040
80700040
80E00040
C0FFC0C0
40FFC080
60000180
20000100
30000300
18000600
0C000C00
06001800
01C0E000
007F0000
ENDCHAR
STARTCHAR 24EB
ENCODING 9451
SWIDTH 1000 0
DWIDTH 28 0
BBX 26 27 1 -3
BITMAP
007F0000
01FFE000
07FFF800
0FFFFC00
1FFFFE00
3C7F8F00
387F0F00
787F4F80
7E7FCF80
FE7FCFC0
FE7FCFC0
FE7FCFC0
FE7FCFC0
FE7FCFC0
FE7FCFC0
FE7FCFC0
FE7FCFC0
FE7FCFC0
7E7FCF80
7E7FCF80
3E7FCF00
3E7FCF00
1FFFFE00
0FFFFC00
07FFF800
01FFE000
007F0000
ENDCHAR
STARTCHAR 24EC
ENCODING 9452
SWIDTH 1000 0
DWIDTH 28 0
BBX 26 27 1 -3
BITMAP
007F0000
01FFE000
07FFF800
0FFFFC00
1FFE1E00
3CF80F00
30F9C700
70F3E780
74F3E780
FCF3E7C0
FCFFE7C0
FCFFC7C0
FCFF8FC0
FCFF1FC0
FCFE3FC0
FCFC7FC0
FCF8FFC0
FCF9FFC0
7CF1FF80
7CF3FF80
3CF00700
3CE00700
1FFFFE00
0FFFFC00
07FFF800
01FFE000
007F0000
ENDCHAR
STARTCHAR 24ED
ENCODING 9453
SWIDTH 1000 0
DWIDTH 28 0
BBX 26 27 1 -3
BITMAP
007F0000
01FFE000
07FFF800
0FFFFC00
1FFC3E00
3CF81F00
30F1CF00
70F3C780
74F3E780
FCFFE7C0
FCFFC7C0
FCFFCFC0
FCFC1FC0
FCFC0FC0
FCFFC7C0
FCFFE7C0
FCFFE7C0
FCE3E7C0
7CE3E780
7CF1C780
3CF00F00
3CFC1F00
1FFFFE00
0FFFFC00
07FFF800
01FFE000
007F0000
ENDCHAR
STARTCHAR 24EE
ENCODING 9454
SWIDTH 1000 0
DWIDTH 28 0
BBX 26 27 1 -3
BITMAP
003F0000
01FFE000
03FFF800
0FFFFC00
1FFFFE00
1CFF8F00
38FF0F00
70FF0F80
74FE0F80
FCFE4FC0
FCFCCFC0
FCF8CFC0
FCF9CFC0
FCF3CFC0
FCF3CFC0
FCE7CFC0
FCE003C0
FCE003C0
7CFFCF80
7CFFCF80
3CFFCF00
3CFFCF00
1FFFFE00
0FFFFC00
07FFF800
01FFE000
007F0000
ENDCHAR
STARTCHAR 24EF
ENCODING 9455
SWIDTH 1000 0
DWIDTH 28 0
BBX 26 27 1 -3
BITMAP
003F0000
01FFE000
03FFF800
07FFFC00
0FFFFE00
1CF00F00
38F00F00
70F3FF80
74F3FF80
FCF3FFC0
FCF3FFC0
FCF21FC0
FCF00FC0
FCF3C7C0
FCFFE7C0
FCFFE7C0
FCFFE7C0
FCFFE7C0
7CE3E780
7CF3E780
3CF1CF00
3CF80F00
1FFC3E00
0FFFFC00
07FFF800
01FFE000
007F0000
ENDCHAR
STARTCHAR 24F0
ENCODING 9456
SWIDTH 1000 0
DWIDTH 28 0
BBX 26 27 1 -3
BITMAP
007F0000
01FFE000
07FFF800
0FFFFC00
1FFE1E00
3CFC0F00
30F9C700
70F1E780
74F3E780
FCF3FFC0
FCF3FFC0
FCE21FC0
FCE40FC0
FCE1C7C0
FCE3E7C0
FCE3E7C0
FCF3E7C0
FCF3E7C0
7CF3E780
7CF1C780
3CF80F00
3CFC1F00
1FFFFE00
0FFFFC00
07FFF800
01FFE000
007F0000
ENDCHAR
STARTCHAR 24F1
ENCODING 9457
SWIDTH 1000 0
DWIDTH 28 0
BBX 26 27 1 -3
BITMAP
003F0000
01FFE000
03FFF800
07FFFC00
0FFFFE00
1E600700
38600700
707FC780
747FCF80
FC7FCFC0
FC7F9FC0
FC7F9FC0
FC7F1FC0
FC7F3FC0
FC7F3FC0
FC7E3FC0
FC7E7FC0
FC7E7FC0
7C7E7F80
7C7C7F80
3C7CFF00
3C7CFF00
1FFFFE00
0FFFFC00
07FFF800
01FFE000
007F0000
ENDCHAR
STARTCHAR 24F2
ENCODING 9458
SWIDTH 1000 0
DWIDTH 28 0
BBX 26 27 1 -3
BITMAP
007F0000
01FFE000
07FFF800
0FFFFC00
1FFC3E00
3CF80F00
30F00F00
70F1C780
74E3E780
FCF3E7C0
FCF3E7C0
FCF1CFC0
FCFC1FC0
FCF00FC0
FCE3C7C0
FCE7E7C0
FCE7E3C0
FCE7E3C0
7CE7E780
7CE3C780
3CF00F00
3CFC1F00
1FFFFE00
0FFFFC00
07FFF800
01FFE000
007F0000
ENDCHAR
STARTCHAR 24F3
ENCODING 9459
SWIDTH 1000 0
DWIDTH 28 0
BBX 26 27 1 -3
BITMAP
007F0000
01FFE000
07FFF800
0FFFFC00
1FFC1E00
3CF80F00
30F1CF00
70F3E780
74F3E780
FCE3E7C0
FCE3E7C0
FCF3E7C0
FCF3E7C0
FCF1C7C0
FCF807C0
FCFC27C0
FCFFE7C0
FCFFE7C0
7CF3CF80
7CF1CF80
3CF81F00
3CFC3F00
1FFFFE00
0FFFFC00
07FFF800
01FFE000
007F0000
ENDCHAR
STARTCHAR 24F4
ENCODING 9460
SWIDTH 1000 0
DWIDTH 28 0
BBX 26 27 1 -3
BITMAP
003F0000
01FFE000
03FFF800
0FFFFC00
1FFFFE00
3E1F8F00
3DCF6700
79CE7380
79CEF380
F3CCF3C0
FFCCF3C0
FF8CF3C0
FF9CF3C0
FF1CF3C0
FE3CF3C0
FE7CF3C0
FCFCF3C0
FCFCF3C0
79FE7380
79FE7380
380F6700
300F8F00
1FFFFE00
0FFFFC00
07FFF800
01FFE000
007F0000
ENDCHAR
STARTCHAR 24F5
ENCODING 9461
SWIDTH 1000 0
DWIDTH 28 0
BBX 26 27 1 -3
BITMAP
003F0000
01C0E000
06001000
0C3F0800
19C0C400
33003200
240C0900
483C0480
587C0680
904C0240
900C0240
A00C0140
A00C0140
A00C0140
A00C0140
A00C0140
900C0240
900C02C0
580C0680
480C0480
240C0900
33003300
19C0E600
0C3F0C00
06001800
01C0E000
007F8000
ENDCHAR
STARTCHAR 24F6
ENCODING 9462
SWIDTH 1000 0
DWIDTH 28 0
BBX 26 27 1 -3
BITMAP
003F8000
01C0E000
063F1800
0CC0CC00
1B003600
361F1B00
2C7F8D80
4861C480
50C0C280
90C0C240
B000C340
A001C140
A0038140
A00F0140
A01C0140
B0300340
90600240
D06002C0
48FFE480
6CFFED80
26001900
33003200
18C0E600
0C3F0C00
07003000
01C0E000
007F0000
ENDCHAR
STARTCHAR 24F7
ENCODING 9463
SWIDTH 1000 0
DWIDTH 28 0
BBX 26 27 1 -3
BITMAP
003F0000
01C0E000
06001000
0C3F0800
19C0C400
33003200
241F0900
487F8480
58E1C680
90C0C240
9000C240
A0018140
A01F0140
A01F0140
A001C140
A000C140
90006240
91C0E2C0
58E1C680
487FC480
243F0900
33003300
19C0E600
0C3F0C00
06001800
01C0E000
007F8000
ENDCHAR
STARTCHAR 24F8
ENCODING 9464
SWIDTH 1000 0
DWIDTH 28 0
BBX 26 27 1 -3
BITMAP
003F0000
01C0E000
06001000
0C3F0C00
19C0C600
33003200
24070900
480F0480
580F0680
901B0240
903B0240
A0730140
A0630140
A0C30140
A1830140
A3830140
93FFE240
D00302C0
58030680
68030580
24030900
33003200
19C0E600
0C3F0C00
06003000
01C0E000
007F0000
ENDCHAR
STARTCHAR 24F9
ENCODING 9465
SWIDTH 1000 0
DWIDTH 28 0
BBX 26 27 1 -3
BITMAP
003F8000
01C0E000
063F1800
0CC0CC00
1B003600
36001B00
2C7FCD00
487FC480
50600280
90600240
B0600340
A04F0140
A07F8140
A061C140
A040C140
B000C340
9000C240
9000C2C0
48E1C480
4C7F8C80
263F1900
33003300
18C0E600
0C3F0C00
06001800
01C0E000
007F8000
ENDCHAR
STARTCHAR 24FA
ENCODING 9466
SWIDTH 1000 0
DWIDTH 28 0
BBX 26 27 1 -3
BITMAP
003F0000
01C0E000
06001000
0C3F0800
19C0C400
33003200
241F0900
483F8480
5871C680
9060C240
90C00240
A0CF0140
A0FF8140
A0E1C140
A0C0C140
A0C0C140
90C0C240
90C0C2C0
5861C680
483F8480
241F0900
33003300
19C0E600
0C3F0C00
06001800
01C0E000
007F8000
ENDCHAR
STARTCHAR 24FB
ENCODING 9467
SWIDTH 1000 0
DWIDTH 28 0
BBX 26 27 1 -3
BITMAP
003F0000
01C0E000
06001000
0C3F0800
19C0C400
33003200
24000900
48FFC480
58FFC680
9000C240
90018240
A0018140
A0030140
A0030140
A0070140
A0060140
900E0240
900C02C0
580C0680
481C0480
24180900
33183300
19C0E600
0C3F0C00
06001800
01C0E000
007F8000
ENDCHAR
STARTCHAR 24FC
ENCODING 9468
SWIDTH 1000 0
DWIDTH 28 0
BBX 26 27 1 -3
BITMAP
003F0000
01C0E000
06001000
0C3F0800
19C0C400
33003200
243E0900
487F8480
58E0C680
90C0C240
90C0C240
A0E0C140
A07F8140
A03F0140
A0E1C140
A0C0C140
91806240
91C0E2C0
58E1C680
48FFC480
243F0900
33003300
19C0E600
0C3F0C00
06001800
01C0E000
007F8000
ENDCHAR
STARTCHAR 24FD
ENCODING 9469
SWIDTH 1000 0
DWIDTH 28 0
BBX 26 27 1 -3
BITMAP
003F0000
01C0E000
06001000
0C3F0800
19C0C400
33003200
241E0900
483F8480
5871C680
90E0C240
90C0C240
A0C0E140
A0C0E140
A061E140
A07F6140
A01EC140
9000C240
90E0C2C0
58618680
487F8480
241E0900
33003300
19C0E600
0C3F0C00
06001800
01C0E000
007F8000
ENDCHAR
STARTCHAR 24FE
ENCODING 9470
SWIDTH 1000 0
DWIDTH 28 0
BBX 26 27 1 -3
BITMAP
003F0000
01C0E000
06001000
0C3F0800
19C0C400
33003200
2403C900
48C7E480
5BCE6680
92CC6240
90CC3240
A0CC3140
A0CC3140
A0CC3140
A0CC3140
A0CC3140
90CC3240
90CC72C0
58CE6680
48C7E480
24C3C900
33003300
19C0E600
0C3F0C00
06001800
01C0E000
007F8000
ENDCHAR
STARTCHAR 2500
ENCODING 9472
SWIDTH 1000 0
DWIDTH 28 0
BBX 28 1 0 10
BITMAP
FFFFFFF0
ENDCHAR
STARTCHAR 2501
ENCODING 9473
SWIDTH 1000 0
DWIDTH 28 0
BBX 28 3 0 9
BITMAP
FFFFFFF0
FFFFFFF0
FFFFFFF0
ENDCHAR
STARTCHAR 2502
ENCODING 9474
SWIDTH 1000 0
DWIDTH 28 0
BBX 2 28 13 -3
BITMAP
C0
C0
C0
C0
C0
C0
C0
C0
C0
C0
C0
C0
C0
C0
C0
C0
C0
C0
C0
C0
C0
C0
C0
C0
C0
C0
C0
C0
ENDCHAR
STARTCHAR 2503
ENCODING 9475
SWIDTH 1000 0
DWIDTH 28 0
BBX 4 28 12 -3
BITMAP
F0
F0
F0
F0
F0
F0
F0
F0
F0
F0
F0
F0
F0
F0
F0
F0
F0
F0
F0
F0
F0
F0
F0
F0
F0
F0
F0
F0
ENDCHAR
STARTCHAR 250C
ENCODING 9484
SWIDTH 1000 0
DWIDTH 28 0
BBX 15 14 13 -3
BITMAP
FFFE
C000
C000
C000
C000
C000
C000
C000
C000
C000
C000
C000
C000
C000
ENDCHAR
STARTCHAR 250F
ENCODING 9487
SWIDTH 1000 0
DWIDTH 28 0
BBX 16 15 12 -3
BITMAP
FFFF
FFFF
FFFF
F000
F000
F000
F000
F000
F000
F000
F000
F000
F000
F000
F000
ENDCHAR
STARTCHAR 2510
ENCODING 9488
SWIDTH 1000 0
DWIDTH 28 0
BBX 15 14 0 -3
BITMAP
FFFE
0006
0006
0006
0006
0006
0006
0006
0006
0006
0006
0006
0006
0006
ENDCHAR
STARTCHAR 2513
ENCODING 9491
SWIDTH 1000 0
DWIDTH 28 0
BBX 16 15 0 -3
BITMAP
FFFF
FFFF
FFFF
000F
000F
000F
000F
000F
000F
000F
000F
000F
000F
000F
000F
ENDCHAR
STARTCHAR 2514
ENCODING 9492
SWIDTH 1000 0
DWIDTH 28 0
BBX 15 14 13 10
BITMAP
C000
C000
C000
C000
C000
C000
C000
C000
C000
C000
C000
C000
C000
FFFE
ENDCHAR
STARTCHAR 2517
ENCODING 9495
SWIDTH 1000 0
DWIDTH 28 0
BBX 16 16 12 9
BITMAP
F000
F000
F000
F000
F000
F000
F000
F000
F000
F000
F000
F000
F000
FFFF
FFFF
FFFF
ENDCHAR
STARTCHAR 2518
ENCODING 9496
SWIDTH 1000 0
DWIDTH 28 0
BBX 15 14 0 10
BITMAP
0006
0006
0006
0006
0006
0006
0006
0006
0006
0006
0006
0006
0006
FFFE
ENDCHAR
STARTCHAR 251B
ENCODING 9499
SWIDTH 1000 0
DWIDTH 28 0
BBX 16 16 0 9
BITMAP
000F
000F
000F
000F
000F
000F
000F
000F
000F
000F
000F
000F
000F
FFFF
FFFF
FFFF
ENDCHAR
STARTCHAR 251C
ENCODING 9500
SWIDTH 1000 0
DWIDTH 28 0
BBX 15 27 13 -3
BITMAP
C000
C000
C000
C000
C000
C000
C000
C000
C000
C000
C000
C000
C000
FFFE
C000
C000
C000
C000
C000
C000
C000
C000
C000
C000
C000
C000
C000
ENDCHAR
STARTCHAR 251D
ENCODING 9501
SWIDTH 1000 0
DWIDTH 28 0
BBX 15 27 13 -3
BITMAP
C000
C000
C000
C000
C000
C000
C000
C000
C000
C000
C000
C000
FFFE
FFFE
FFFE
C000
C000
C000
C000
C000
C000
C000
C000
C000
C000
C000
C000
ENDCHAR
STARTCHAR 2520
ENCODING 9504
SWIDTH 1000 0
DWIDTH 28 0
BBX 16 28 12 -3
BITMAP
F000
F000
F000
F000
F000
F000
F000
F000
F000
F000
F000
F000
F000
F000
FFFF
F000
F000
F000
F000
F000
F000
F000
F000
F000
F000
F000
F000
F000
ENDCHAR
STARTCHAR 2523
ENCODING 9507
SWIDTH 1000 0
DWIDTH 28 0
BBX 16 28 12 -3
BITMAP
F000
F000
F000
F000
F000
F000
F000
F000
F000
F000
F000
F000
F000
FFFF
FFFF
FFFF
F000
F000
F000
F000
F000
F000
F000
F000
F000
F000
F000
F000
ENDCHAR
STARTCHAR 2524
ENCODING 9508
SWIDTH 1000 0
DWIDTH 28 0
BBX 15 27 0 -3
BITMAP
0006
0006
0006
0006
0006
0006
0006
0006
0006
0006
0006
0006
0006
FFFE
0006
0006
0006
0006
0006
0006
0006
0006
0006
0006
0006
0006
0006
ENDCHAR
STARTCHAR 2525
ENCODING 9509
SWIDTH 1000 0
DWIDTH 28 0
BBX 15 27 0 -3
BITMAP
0006
0006
0006
0006
0006
0006
0006
0006
0006
0006
0006
0006
FFFE
FFFE
FFFE
0006
0006
0006
0006
0006
0006
0006
0006
0006
0006
0006
0006
ENDCHAR
STARTCHAR 2528
ENCODING 9512
SWIDTH 1000 0
DWIDTH 28 0
BBX 16 28 0 -3
BITMAP
000F
000F
000F
000F
000F
000F
000F
000F
000F
000F
000F
000F
000F
000F
FFFF
000F
000F
000F
000F
000F
000F
000F
000F
000F
000F
000F
000F
000F
ENDCHAR
STARTCHAR 252B
ENCODING 9515
SWIDTH 1000 0
DWIDTH 28 0
BBX 16 28 0 -3
BITMAP
000F
000F
000F
000F
000F
000F
000F
000F
000F
000F
000F
000F
000F
FFFF
FFFF
FFFF
000F
000F
000F
000F
000F
000F
000F
000F
000F
000F
000F
000F
ENDCHAR
STARTCHAR 252C
ENCODING 9516
SWIDTH 1000 0
DWIDTH 28 0
BBX 28 14 0 -3
BITMAP
FFFFFFF0
00060000
00060000
00060000
00060000
00060000
00060000
00060000
00060000
00060000
00060000
00060000
00060000
00060000
ENDCHAR
STARTCHAR 252F
ENCODING 9519
SWIDTH 1000 0
DWIDTH 28 0
BBX 28 15 0 -3
BITMAP
FFFFFFF0
FFFFFFF0
FFFFFFF0
00060000
00060000
00060000
00060000
00060000
00060000
00060000
00060000
00060000
00060000
00060000
00060000
ENDCHAR
STARTCHAR 2530
ENCODING 9520
SWIDTH 1000 0
DWIDTH 28 0
BBX 28 14 0 -3
BITMAP
FFFFFFF0
000F0000
000F0000
000F0000
000F0000
000F0000
000F0000
000F0000
000F0000
000F0000
000F0000
000F0000
000F0000
000F0000
ENDCHAR
STARTCHAR 2533
ENCODING 9523
SWIDTH 1000 0
DWIDTH 28 0
BBX 28 15 0 -3
BITMAP
FFFFFFF0
FFFFFFF0
FFFFFFF0
000F0000
000F0000
000F0000
000F0000
000F0000
000F0000
000F0000
000F0000
000F0000
000F0000
000F0000
000F0000
ENDCHAR
STARTCHAR 2534
ENCODING 9524
SWIDTH 1000 0
DWIDTH 28 0
BBX 28 14 0 10
BITMAP
00060000
00060000
00060000
00060000
00060000
00060000
00060000
00060000
00060000
00060000
00060000
00060000
00060000
FFFFFFF0
ENDCHAR
STARTCHAR 2537
ENCODING 9527
SWIDTH 1000 0
DWIDTH 28 0
BBX 28 15 0 9
BITMAP
00060000
00060000
00060000
00060000
00060000
00060000
00060000
00060000
00060000
00060000
00060000
00060000
FFFFFFF0
FFFFFFF0
FFFFFFF0
ENDCHAR
STARTCHAR 2538
ENCODING 9528
SWIDTH 1000 0
DWIDTH 28 0
BBX 28 15 0 10
BITMAP
000F0000
000F0000
000F0000
000F0000
000F0000
000F0000
000F0000
000F0000
000F0000
000F0000
000F0000
000F0000
000F0000
000F0000
FFFFFFF0
ENDCHAR
STARTCHAR 253B
ENCODING 9531
SWIDTH 1000 0
DWIDTH 28 0
BBX 28 16 0 9
BITMAP
000F0000
000F0000
000F0000
000F0000
000F0000
000F0000
000F0000
000F0000
000F0000
000F0000
000F0000
000F0000
000F0000
FFFFFFF0
FFFFFFF0
FFFFFFF0
ENDCHAR
STARTCHAR 253C
ENCODING 9532
SWIDTH 1000 0
DWIDTH 28 0
BBX 28 27 0 -3
BITMAP
00060000
00060000
00060000
00060000
00060000
00060000
00060000
00060000
00060000
00060000
00060000
00060000
00060000
FFFFFFF0
00060000
00060000
00060000
00060000
00060000
00060000
00060000
00060000
00060000
00060000
00060000
00060000
00060000
ENDCHAR
STARTCHAR 253F
ENCODING 9535
SWIDTH 1000 0
DWIDTH 28 0
BBX 28 27 0 -3
BITMAP
00060000
00060000
00060000
00060000
00060000
00060000
00060000
00060000
00060000
00060000
00060000
00060000
FFFFFFF0
FFFFFFF0
FFFFFFF0
00060000
00060000
00060000
00060000
00060000
00060000
00060000
00060000
00060000
00060000
00060000
00060000
ENDCHAR
STARTCHAR 2542
ENCODING 9538
SWIDTH 1000 0
DWIDTH 28 0
BBX 28 28 0 -3
BITMAP
000F0000
000F0000
000F0000
000F0000
000F0000
000F0000
000F0000
000F0000
000F0000
000F0000
000F0000
000F0000
000F0000
000F0000
FFFFFFF0
000F0000
000F0000
000F0000
000F0000
000F0000
000F0000
000F0000
000F0000
000F0000
000F0000
000F0000
000F0000
000F0000
ENDCHAR
STARTCHAR 254B
ENCODING 9547
SWIDTH 1000 0
DWIDTH 28 0
BBX 28 28 0 -3
BITMAP
000F0000
000F0000
000F0000
000F0000
000F0000
000F0000
000F0000
000F0000
000F0000
000F0000
000F0000
000F0000
000F0000
FFFFFFF0
FFFFFFF0
FFFFFFF0
000F0000
000F0000
000F0000
000F0000
000F0000
000F0000
000F0000
000F0000
000F0000
000F0000
000F0000
000F0000
ENDCHAR
STARTCHAR 25A0
ENCODING 9632
SWIDTH 1000 0
DWIDTH 28 0
BBX 20 21 4 0
BITMAP
FFFFF0
FFFFF0
FFFFF0
FFFFF0
FFFFF0
FFFFF0
FFFFF0
FFFFF0
FFFFF0
FFFFF0
FFFFF0
FFFFF0
FFFFF0
FFFFF0
FFFFF0
FFFFF0
FFFFF0
FFFFF0
FFFFF0
FFFFF0
FFFFF0
ENDCHAR
STARTCHAR 25A1
ENCODING 9633
SWIDTH 1000 0
DWIDTH 28 0
BBX 20 21 4 0
BITMAP
FFFFF0
FFFFF0
800010
800010
800010
800010
800010
800010
800010
800010
800010
800010
800010
800010
800010
800010
800010
800010
800010
FFFFF0
FFFFF0
ENDCHAR
STARTCHAR 25B1
ENCODING 9649
SWIDTH 1000 0
DWIDTH 28 0
BBX 26 11 1 5
BITMAP
07FFFFC0
04000180
0C000180
0C000300
18000300
18000600
30000600
30000C00
60000C00
60000800
FFFFF800
ENDCHAR
STARTCHAR 25B2
ENCODING 9650
SWIDTH 1000 0
DWIDTH 28 0
BBX 22 21 3 1
BITMAP
003000
003000
007800
007800
00FC00
00FC00
01FE00
01FE00
03FF00
03FF00
07FF80
07FF80
0FFFC0
0FFFC0
1FFFE0
1FFFE0
3FFFF0
3FFFF0
7FFFF8
7FFFF8
FFFFFC
ENDCHAR
STARTCHAR 25B3
ENCODING 9651
SWIDTH 1000 0
DWIDTH 28 0
BBX 22 21 3 1
BITMAP
003000
003000
007800
007800
00CC00
00CC00
018600
018600
030300
030300
060180
060180
0C00C0
0C00C0
180060
180060
300030
300030
600018
7FFFF8
FFFFFC
ENDCHAR
STARTCHAR 25B6
ENCODING 9654
SWIDTH 1000 0
DWIDTH 28 0
BBX 21 21 4 0
BITMAP
C00000
F00000
FC0000
FF0000
FFC000
FFF000
FFFC00
FFFF00
FFFFC0
FFFFF0
FFFFF8
FFFFE0
FFFF80
FFFE00
FFF800
FFE000
FF8000
FE0000
FC0000
F00000
C00000
ENDCHAR
STARTCHAR 25B7
ENCODING 9655
SWIDTH 1000 0
DWIDTH 28 0
BBX 21 21 4 0
BITMAP
C00000
F00000
BC0000
8F0000
83C000
80F000
803C00
800F00
8003C0
8001F0
800078
8001E0
800780
801E00
807800
81E000
878000
9E0000
FC0000
F00000
C00000
ENDCHAR
STARTCHAR 25BC
ENCODING 9660
SWIDTH 1000 0
DWIDTH 28 0
BBX 22 21 3 -1
BITMAP
FFFFFC
7FFFF8
7FFFF8
3FFFF0
3FFFF0
1FFFE0
1FFFE0
0FFFC0
0FFFC0
07FF80
07FF80
03FF00
03FF00
01FE00
01FE00
00FC00
00FC00
007800
007800
003000
003000
ENDCHAR
STARTCHAR 25BD
ENCODING 9661
SWIDTH 1000 0
DWIDTH 28 0
BBX 22 21 3 -1
BITMAP
FFFFFC
7FFFF8
600018
300030
300030
180060
180060
0C00C0
0C00C0
060180
060180
030300
030300
018600
018600
00CC00
00CC00
007800
007800
003000
003000
ENDCHAR
STARTCHAR 25C0
ENCODING 9664
SWIDTH 1000 0
DWIDTH 28 0
BBX 21 21 3 0
BITMAP
000018
000078
0001F8
0007F8
001FF8
007FF8
01FFF8
07FFF8
1FFFF8
7FFFF8
FFFFF8
3FFFF8
0FFFF8
03FFF8
00FFF8
003FF8
000FF8
0003F8
0001F8
000078
000018
ENDCHAR
STARTCHAR 25C1
ENCODING 9665
SWIDTH 1000 0
DWIDTH 28 0
BBX 21 21 3 0
BITMAP
000018
000078
0001E8
000788
001E08
007808
01E008
078008
1F0008
7C0008
F00008
3C0008
0F0008
03C008
00F008
003C08
000F08
0003C8
0001F8
000078
000018
ENDCHAR
STARTCHAR 25C6
ENCODING 9670
SWIDTH 1000 0
DWIDTH 28 0
BBX 24 24 2 -2
BITMAP
001800
003C00
007E00
00FF00
01FF80
03FFC0
07FFE0
0FFFF0
1FFFF8
3FFFFC
7FFFFE
FFFFFF
FFFFFF
7FFFFE
3FFFFC
1FFFF8
0FFFF0
07FFE0
03FFC0
01FF80
00FF00
007E00
003C00
001800
ENDCHAR
STARTCHAR 25C7
ENCODING 9671
SWIDTH 1000 0
DWIDTH 28 0
BBX 24 24 2 -2
BITMAP
001800
003C00
007E00
00E700
01C380
0381C0
0700E0
0E0070
1C0038
38001C
70000E
E00007
C00003
600006
30000C
180018
0C0030
060060
0300C0
018180
00C300
006600
003C00
001800
ENDCHAR
STARTCHAR 25C9
ENCODING 9673
SWIDTH 1000 0
DWIDTH 28 0
BBX 24 23 2 -1
BITMAP
007E00
03FFC0
0781E0
0E0070
187E18
30FF0C
71FF8C
63FFC6
67FFE6
C7FFE3
C7FFE3
C7FFE3
C7FFE3
C7FFE3
63FFC6
61FF86
70FF0E
307E0C
180018
0E0030
0781E0
03FFC0
007E00
ENDCHAR
STARTCHAR 25CB
ENCODING 9675
SWIDTH 1000 0
DWIDTH 28 0
BBX 24 23 2 -1
BITMAP
007E00
03FFC0
0781E0
0E0070
1C0038
38000C
70000E
600006
600006
C00002
C00003
C00003
C00003
400003
600006
600006
70000C
30001C
180038
0E0070
0781E0
03FFC0
007F00
ENDCHAR
STARTCHAR 25CE
ENCODING 9678
SWIDTH 1000 0
DWIDTH 28 0
BBX 24 23 2 -1
BITMAP
007E00
03FFC0
0781E0
0E0070
187E18
30FF0C
71C38C
6300C6
660066
C60063
C60063
C60063
C60063
C60063
6300C6
618386
70FF0E
307E0C
180018
0E0030
0781E0
03FFC0
007E00
ENDCHAR
STARTCHAR 25CF
ENCODING 9679
SWIDTH 1000 0
DWIDTH 28 0
BBX 24 23 2 -1
BITMAP
007E00
03FFC0
07FFE0
0FFFF0
1FFFF8
3FFFFC
7FFFFE
7FFFFE
7FFFFE
FFFFFE
FFFFFF
FFFFFF
FFFFFF
7FFFFF
7FFFFE
7FFFFE
7FFFFC
3FFFFC
1FFFF8
0FFFF0
07FFE0
03FFC0
007F00
ENDCHAR
STARTCHAR 25D0
ENCODING 9680
SWIDTH 1000 0
DWIDTH 28 0
BBX 24 23 2 -1
BITMAP
007E00
03FFC0
07F0E0
0FF030
1FF018
3FF00C
7FF006
7FF006
7FF006
FFF003
FFF003
FFF003
FFF003
FFF003
7FF006
7FF006
7FF00E
3FF00C
1FF018
0FF070
07F0E0
03FFC0
007E00
ENDCHAR
STARTCHAR 25D1
ENCODING 9681
SWIDTH 1000 0
DWIDTH 28 0
BBX 24 23 2 -1
BITMAP
007E00
03FFC0
070FE0
0C0FF0
180FF8
300FFC
600FFE
600FFE
600FFE
C00FFF
C00FFF
C00FFF
C00FFF
C00FFF
600FFE
600FFE
700FFE
300FFC
180FF8
0C0FF0
070FE0
03FFC0
007E00
ENDCHAR
STARTCHAR 25D2
ENCODING 9682
SWIDTH 1000 0
DWIDTH 28 0
BBX 24 24 2 -1
BITMAP
007E00
01FFC0
0781E0
0E0070
1C0038
38001C
30000C
600006
600006
C00002
C00003
C00003
FFFFFF
FFFFFF
7FFFFF
7FFFFE
7FFFFE
3FFFFC
3FFFFC
1FFFF8
0FFFF0
07FFE0
03FFC0
007E00
ENDCHAR
STARTCHAR 25D3
ENCODING 9683
SWIDTH 1000 0
DWIDTH 28 0
BBX 24 24 2 -1
BITMAP
007E00
03FFC0
07FFE0
0FFFF0
1FFFF8
3FFFFC
3FFFFC
7FFFFE
7FFFFE
FFFFFE
FFFFFF
FFFFFF
C00003
C00003
400003
600006
600006
30000C
38001C
1C0038
0E0070
0781E0
03FFC0
007E00
ENDCHAR
STARTCHAR 25E6
ENCODING 9702
SWIDTH 1000 0
DWIDTH 28 0
BBX 10 9 9 6
BITMAP
1E00
7F80
6180
C0C0
C0C0
C0C0
6180
7F80
1E00
ENDCHAR
STARTCHAR 25EF
ENCODING 9711
SWIDTH 1000 0
DWIDTH 28 0
BBX 26 27 1 -3
BITMAP
007F0000
01C0E000
06001800
0C000C00
18000600
30000300
20000100
60000180
40000080
C00000C0
80000040
80000040
80000040
80000040
80000040
80000040
80000040
C00000C0
40000080
60000180
20000100
30000300
18000600
0C000C00
06001800
01C0E000
007F0000
ENDCHAR
STARTCHAR 2600
ENCODING 9728
SWIDTH 1000 0
DWIDTH 28 0
BBX 26 27 1 -3
BITMAP
000C0000
000C0000
000C0000
000C0000
080C0600
0C000C00
063E1800
037FB000
00FFC000
01FFE000
03FFE000
03FFF000
03FFF000
FBFFF7C0
03FFF000
03FFF000
01FFE000
00FFE000
007FC000
033F3000
06001800
0C000C00
080C0400
000C0000
000C0000
000C0000
000C0000
ENDCHAR
STARTCHAR 2601
ENCODING 9729
SWIDTH 1000 0
DWIDTH 28 0
BBX 24 19 2 -1
BITMAP
00F800
03FC00
03FE00
07FF00
07FF80
07FF9E
07FFBF
07FFFF
0FFFFF
7FFFFF
7FFFFF
FFFFFC
FFFFFE
FFFFFF
FFEFFF
FFCFFF
7F87FF
3F03FE
0001F8
ENDCHAR
STARTCHAR 2602
ENCODING 9730
SWIDTH 1000 0
DWIDTH 28 0
BBX 26 25 1 -2
BITMAP
00080000
00080000
007F8000
03FFF000
07FFF800
1FFFFE00
1FFFFE00
3FFFFF00
7FFFFF80
479E7880
830C30C0
82081040
82081040
00080000
00080000
00080000
00080000
00080000
00080000
00080000
00080000
00080000
00480000
00480000
00780000
ENDCHAR
STARTCHAR 2603
ENCODING 9731
SWIDTH 1000 0
DWIDTH 28 0
BBX 26 26 1 -2
BITMAP
C0000000
C0184180
C019A0C0
07011000
03020800
00040400
70080400
50F80980
21060A80
0601F100
04000800
04330800
64330800
64000800
022110C0
031E3140
04000880
C8000400
D0000200
200C0200
200C0200
20000200
100C0200
100C0200
0C000C00
03FFF000
ENDCHAR
STARTCHAR 2605
ENCODING 9733
SWIDTH 1000 0
DWIDTH 28 0
BBX 24 24 2 0
BITMAP
001000
001800
001800
001800
003C00
003C00
003C00
007E00
007E00
FFFFFF
3FFFFC
1FFFF8
0FFFF0
03FFC0
01FF80
01FF80
03FFC0
03FFC0
03FFC0
07C3E0
0781E0
0700E0
0C0030
080010
ENDCHAR
STARTCHAR 2606
ENCODING 9734
SWIDTH 1000 0
DWIDTH 28 0
BBX 24 24 2 0
BITMAP
001000
001800
001800
001800
003C00
003C00
002400
006600
004200
FFC3FF
38001C
1C0038
060060
0381C0
010080
010080
0318C0
023C40
026640
07C3E0
0700E0
060060
0C0030
100010
ENDCHAR
STARTCHAR 260E
ENCODING 9742
SWIDTH 1000 0
DWIDTH 28 0
BBX 26 21 1 0
BITMAP
0FFFF800
3FFFFE00
3FFFFF00
7EE1DF80
78E1C780
F8E1C7C0
F8FFC7C0
01FFE000
03E1F000
03C0F000
07807800
07003800
07003800
0F003C00
1F003E00
3F807F00
3F80FF00
7FE1FF00
7FFFFF80
7FFFFF80
7FFFFF80
ENDCHAR
STARTCHAR 2616
ENCODING 9750
SWIDTH 1000 0
DWIDTH 28 0
BBX 22 22 3 1
BITMAP
007800
01FE00
038700
0F03C0
3C00F0
300030
300030
600010
600018
600018
600018
600018
600018
600018
600018
400008
C00008
C0000C
C0000C
C0000C
FFFFFC
FFFFFC
ENDCHAR
STARTCHAR 2617
ENCODING 9751
SWIDTH 1000 0
DWIDTH 28 0
BBX 22 22 3 0
BITMAP
007800
00FC00
03FF00
0FFFC0
1FFFE0
3FFFF0
3FFFF0
3FFFF0
7FFFF8
7FFFF8
7FFFF8
7FFFF8
7FFFF8
7FFFF8
7FFFF8
7FFFF8
FFFFF8
FFFFFC
FFFFFC
FFFFFC
FFFFFC
FFFFFC
ENDCHAR
STARTCHAR 261E
ENCODING 9758
SWIDTH 1000 0
DWIDTH 28 0
BBX 24 12 2 4
BITMAP
78F9FE
8F0601
8C0101
8812FE
886F20
8F8F10
880AF0
881620
961920
9508C0
88E480
701F00
ENDCHAR
STARTCHAR 2640
ENCODING 9792
SWIDTH 1000 0
DWIDTH 28 0
BBX 16 25 6 -1
BITMAP
03C0
0FF0
1C38
181C
300C
300C
300C
300C
300C
381C
1C38
0FF0
07E0
0180
0180
0180
FFFF
FFFF
0180
0180
0180
0180
0180
0180
0180
ENDCHAR
STARTCHAR 2642
ENCODING 9794
SWIDTH 1000 0
DWIDTH 28 0
BBX 22 23 3 -1
BITMAP
000FFC
000FFC
00003C
00007C
0000EC
0001CC
00038C
00070C
000E0C
000C0C
0F1800
3FF000
70E000
E07000
C03000
C03000
C03000
C03000
C03000
E07000
70E000
3FC000
0F0000
ENDCHAR
STARTCHAR 2660
ENCODING 9824
SWIDTH 1000 0
DWIDTH 28 0
BBX 20 25 4 -1
BITMAP
006000
00F000
01F800
03FC00
03FC00
07FE00
0FFF00
1FFF80
3FFFC0
3FFFC0
7FFFE0
FFFFF0
FFFFF0
FFFFF0
FFFFF0
FFFFF0
FFFFF0
FF6FF0
7F6FE0
3C63C0
006000
00E000
00F000
00F000
01F800
ENDCHAR
STARTCHAR 2661
ENCODING 9825
SWIDTH 1000 0
DWIDTH 28 0
BBX 22 23 3 -2
BITMAP
1F03E0
30CC30
407808
C0300C
803004
800004
800004
800004
C0000C
C0000C
400008
600018
300030
300030
180060
0C00C0
040080
060180
030300
018600
00CC00
007800
003000
ENDCHAR
STARTCHAR 2662
ENCODING 9826
SWIDTH 1000 0
DWIDTH 28 0
BBX 20 27 4 -3
BITMAP
006000
00E000
00B000
019800
030C00
060600
040200
0C0300
180180
3000C0
200040
600060
C00030
C00030
400020
600060
3000C0
180180
080100
0C0300
060600
030C00
010800
019800
00F000
006000
004000
ENDCHAR
STARTCHAR 2663
ENCODING 9827
SWIDTH 1000 0
DWIDTH 28 0
BBX 24 25 2 -2
BITMAP
003C00
00FF00
01FF80
01FF80
01FF80
03FF80
01FF80
01FF80
01FF00
1EFF78
7FBDFE
7FFFFE
FFFFFF
FFFFFF
FFFFFF
FFFFFF
FFFFFF
7FDBFE
7F99FC
1E1878
001800
001800
003C00
003C00
007E00
ENDCHAR
STARTCHAR 2664
ENCODING 9828
SWIDTH 1000 0
DWIDTH 28 0
BBX 22 25 3 -1
BITMAP
003000
007800
00CC00
018600
030300
060180
040080
0C00C0
180060
300030
200010
600018
400008
400008
C0000C
400008
400008
604818
30CE30
1F4BE0
004800
00C800
008400
008400
01FE00
ENDCHAR
STARTCHAR 2665
ENCODING 9829
SWIDTH 1000 0
DWIDTH 28 0
BBX 22 23 3 -1
BITMAP
1F03E0
7F87F8
7FCFF8
FFFFFC
FFFFFC
FFFFFC
FFFFFC
FFFFFC
FFFFFC
7FFFF8
7FFFF8
3FFFF0
3FFFF0
1FFFE0
0FFFC0
0FFFC0
07FF80
03FF00
01FE00
00FC00
00FC00
007800
003000
ENDCHAR
STARTCHAR 2666
ENCODING 9830
SWIDTH 1000 0
DWIDTH 28 0
BBX 20 26 4 -3
BITMAP
006000
006000
00F000
01F800
03FC00
03FC00
07FE00
0FFF00
1FFF80
3FFF80
3FFFC0
7FFFE0
FFFFF0
FFFFF0
7FFFE0
7FFFE0
3FFFC0
1FFF80
0FFF00
0FFF00
07FE00
03FC00
01F800
01F800
00F000
006000
ENDCHAR
STARTCHAR 2667
ENCODING 9831
SWIDTH 1000 0
DWIDTH 28 0
BBX 24 25 2 -2
BITMAP
003E00
00C300
018180
0300C0
0300C0
020040
020040
0300C0
1F00F8
31818C
40C302
C04603
800001
800001
800001
800001
C02403
406602
31A58C
1F24F8
002400
006600
004200
004200
00FF00
ENDCHAR
STARTCHAR 2668
ENCODING 9832
SWIDTH 1000 0
DWIDTH 28 0
BBX 24 23 2 -1
BITMAP
001000
003000
063080
046180
0C6180
0C7180
0C3180
0E3180
0638C0
0618C0
031C60
030C60
030C60
230C64
E30C66
C20843
C618C3
C01003
E00007
70000E
3E007C
1FFFF8
01FF80
ENDCHAR
STARTCHAR 2669
ENCODING 9833
SWIDTH 1000 0
DWIDTH 28 0
BBX 9 23 7 -1
BITMAP
0080
0080
0080
0080
0080
0080
0080
0080
0080
0080
0080
0080
0080
0080
0080
0080
0080
3C80
7F80
FF80
FF80
7F00
3E00
ENDCHAR
STARTCHAR 266A
ENCODING 9834
SWIDTH 1000 0
DWIDTH 28 0
BBX 19 23 5 -1
BITMAP
008000
00C000
00E000
00B800
009C00
008F00
008780
0081C0
0080C0
0080E0
008060
008060
0080C0
0080C0
008180
008100
008200
3C8000
7F8000
FF8000
FF8000
7F0000
3C0000
ENDCHAR
STARTCHAR 266B
ENCODING 9835
SWIDTH 1000 0
DWIDTH 28 0
BBX 22 26 1 -2
BITMAP
000004
0000FC
000FFC
00FFFC
01FFCC
01FC0C
01800C
01800C
01800C
01800C
01800C
01800C
01800C
01800C
01800C
01800C
01800C
0181EC
0183FC
0187FC
0187F8
7F87F8
7F81E0
FF8000
7F0000
3C0000
ENDCHAR
STARTCHAR 266C
ENCODING 9836
SWIDTH 1000 0
DWIDTH 28 0
BBX 22 26 1 -2
BITMAP
000004
0000FC
000FFC
00FFFC
01FF8C
01F80C
01807C
0187FC
01FFFC
01FFCC
01FC0C
01800C
01800C
01800C
01800C
01800C
01800C
0181EC
0183FC
0187FC
0187F8
7F87F0
7F81E0
FF8000
7F0000
3C0000
ENDCHAR
STARTCHAR 266D
ENCODING 9837
SWIDTH 1000 0
DWIDTH 28 0
BBX 11 23 10 -1
BITMAP
C000
C000
C000
C000
C000
C000
C000
C000
C780
DFC0
F8E0
E0E0
C060
C0E0
C0E0
C0C0
C1C0
C380
C700
CE00
F800
F000
8000
ENDCHAR
STARTCHAR 266E
ENCODING 9838
SWIDTH 1000 0
DWIDTH 28 0
BBX 8 23 10 -1
BITMAP
C0
C0
C0
C0
C0
C3
DF
FF
FB
C3
C3
C3
C3
C7
FF
FF
E3
03
03
03
03
03
03
ENDCHAR
STARTCHAR 266F
ENCODING 9839
SWIDTH 1000 0
DWIDTH 28 0
BBX 18 24 5 -1
BITMAP
000C00
0C0C00
0C0C00
0C0C00
0C0C00
0C0C00
0C0FC0
0FFFC0
FFFC00
FC0C00
0C0C00
0C0C00
0C0C00
0C0C00
0C0CC0
0C3FC0
1FFF00
FF8C00
EC0C00
0C0C00
0C0C00
0C0C00
0C0C00
0C0C00
ENDCHAR
STARTCHAR 2713
ENCODING 10003
SWIDTH 1000 0
DWIDTH 28 0
BBX 18 18 6 2
BITMAP
000040
000040
000080
000100
000200
000600
000C00
000800
001000
003000
406000
E0C000
618000
730000
360000
3E0000
1C0000
180000
ENDCHAR
STARTCHAR 2756
ENCODING 10070
SWIDTH 1000 0
DWIDTH 28 0
BBX 26 25 1 -2
BITMAP
000C0000
001E0000
003F0000
007F8000
00FFC000
01FFE000
00FFC000
067F9800
0F3F3C00
1F9E7E00
3FC8FF00
7FE1FF80
FFF3FFC0
7FE1FF80
3FCCFF00
1F9E7E00
0F3F3C00
047F9000
00FFC000
01FFE000
00FFC000
007F8000
003F0000
001E0000
00080000
ENDCHAR
STARTCHAR 2776
ENCODING 10102
SWIDTH 1000 0
DWIDTH 28 0
BBX 26 27 1 -3
BITMAP
007F0000
01FFE000
07FFF800
0FFFFC00
1FF9FE00
3FE1FF00
3F81FF00
7F91FF80
7FF1FF80
FFF1FFC0
FFF1FFC0
FFF1FFC0
FFF1FFC0
FFF1FFC0
FFF1FFC0
FFF1FFC0
FFF1FFC0
FFF1FFC0
7FF1FF80
7FF1FF80
3FF1FF00
3FF1FF00
1FFFFE00
0FFFFC00
07FFF800
01FFE000
007F0000
ENDCHAR
STARTCHAR 2777
ENCODING 10103
SWIDTH 1000 0
DWIDTH 28 0
BBX 26 26 1 -3
BITMAP
007F8000
03FFE000
07FFF800
0FE0FC00
1F807E00
3F0E3F00
7F1F1F00
7F3F9F80
FE3F9F80
FE3F1FC0
FFFF3FC0
FFFE3FC0
FFF87FC0
FFF0FFC0
FFC3FFC0
FFCFFFC0
FF9FFFC0
7F1FFF80
7F3FFF80
3E001F00
3E001F00
1FFFFE00
0FFFFC00
07FFF800
01FFE000
007F0000
ENDCHAR
STARTCHAR 2778
ENCODING 10104
SWIDTH 1000 0
DWIDTH 28 0
BBX 26 27 1 -3
BITMAP
007F0000
01FFE000
07FFF800
0FFFFC00
1FC0FE00
3F807F00
3F1E3F00
7E3F1F80
7E3F1F80
FFFF1FC0
FFFF3FC0
FFFE3FC0
FFE0FFC0
FFE07FC0
FFFF1FC0
FFFF9FC0
FFFF9FC0
FE7F8FC0
7E7F9F80
7E3F9F80
3F1E1F00
3F803F00
1FC0FE00
0FFFFC00
07FFF800
01FFE000
007F0000
ENDCHAR
STARTCHAR 2779
ENCODING 10105
SWIDTH 1000 0
DWIDTH 28 0
BBX 26 27 1 -3
BITMAP
007F0000
01FFE000
07FFF800
0FFFFC00
1FFCFE00
3FF8FF00
3FF0FF00
7FF0FF80
7FE4FF80
FFC4FFC0
FF8CFFC0
FF9CFFC0
FF3CFFC0
FE3CFFC0
FE7CFFC0
FCFCFFC0
FC000FC0
FC000FC0
7FFCFF80
7FFCFF80
3FFCFF00
3FFCFF00
1FFFFE00
0FFFFC00
07FFF800
01FFE000
007F0000
ENDCHAR
STARTCHAR 277A
ENCODING 10106
SWIDTH 1000 0
DWIDTH 28 0
BBX 26 27 1 -3
BITMAP
003F0000
01FFE000
03FFF800
07FFFC00
0FFFFE00
1F003F00
3F003F00
7F3FFF80
7F3FFF80
FF3FFFC0
FF3FFFC0
FF20FFC0
FF003FC0
FF1E3FC0
FF3F1FC0
FFFF9FC0
FFFF9FC0
FFFF9FC0
7E3F9F80
7F3F1F80
3F1E3F00
3F807F00
1FE0FE00
0FFFFC00
07FFF800
01FFE000
007F0000
ENDCHAR
STARTCHAR 277B
ENCODING 10107
SWIDTH 1000 0
DWIDTH 28 0
BBX 26 27 1 -3
BITMAP
007F0000
01FFE000
07FFF800
0FFFFC00
1FE0FE00
3FC07F00
3F8E3F00
7F1F1F80
7F3F1F80
FE3FFFC0
FE7FFFC0
FE60FFC0
FE407FC0
FE1E3FC0
FE3F1FC0
FE3F9FC0
FE7F9FC0
FE7F9FC0
7F3F9F80
7F3F1F80
3F1E3F00
3F807F00
1FE0FE00
0FFFFC00
07FFF800
01FFE000
007F0000
ENDCHAR
STARTCHAR 277C
ENCODING 10108
SWIDTH 1000 0
DWIDTH 28 0
BBX 26 27 1 -3
BITMAP
007F0000
01FFE000
07FFF800
0FFFFC00
1FFFFE00
3E001F00
3E001F00
7FFF1F80
7FFF3F80
FFFE3FC0
FFFE7FC0
FFFE7FC0
FFFCFFC0
FFFCFFC0
FFF8FFC0
FFF9FFC0
FFF9FFC0
FFF1FFC0
7FF3FF80
7FE3FF80
3FE3FF00
3FE7FF00
1FC7FE00
0FFFFC00
07FFF800
01FFE000
007F0000
ENDCHAR
STARTCHAR 277D
ENCODING 10109
SWIDTH 1000 0
DWIDTH 28 0
BBX 26 27 1 -3
BITMAP
007F0000
01FFE000
07FFF800
0FFFFC00
1FC0FE00
3F807F00
3F1E3F00
7E3F1F80
7E7F9F80
FE7F9FC0
FE3F1FC0
FF1E3FC0
FF807FC0
FF807FC0
FF1E3FC0
FE3F1FC0
FE7F9FC0
FC7F8FC0
7E7F9F80
7E7F9F80
3E1E1F00
3F003F00
1FC0FE00
0FFFFC00
07FFF800
01FFE000
007F0000
ENDCHAR
STARTCHAR 277E
ENCODING 10110
SWIDTH 1000 0
DWIDTH 28 0
BBX 26 27 1 -3
BITMAP
007F0000
01FFE000
07FFF800
0FFFFC00
1FE0FE00
3F807F00
3F9E3F00
7F3F3F80
7F3F1F80
FE3F9FC0
FE3F9FC0
FE3F9FC0
FF3F1FC0
FF1E1FC0
FF809FC0
FFE19FC0
FFFF9FC0
FFFF9FC0
7F3F1F80
7F1F3F80
3F1E3F00
3F807F00
1FE1FE00
0FFFFC00
07FFF800
01FFE000
007F0000
ENDCHAR
STARTCHAR 277F
ENCODING 10111
SWIDTH 1000 0
DWIDTH 28 0
BBX 26 27 1 -3
BITMAP
007F0000
01FFE000
07FFF800
0FFFFC00
1FFE3E00
3CF80F00
30F9CF00
70F1E780
74F3E780
FCF3E3C0
FCF3E3C0
FCE3F3C0
FCE3F3C0
FCE3F3C0
FCE3F3C0
FCF3F3C0
FCF3E3C0
FCF3E7C0
7CF1E780
7CF9C780
3CF80F00
3CFE1F00
1FFFFE00
0FFFFC00
07FFF800
01FFE000
007F0000
ENDCHAR
STARTCHAR 2934
ENCODING 10548
SWIDTH 1000 0
DWIDTH 28 0
BBX 23 22 3 0
BITMAP
000040
0000E0
0000F0
0001F0
000378
00076C
00066E
000466
000062
000060
000060
000060
000060
000060
0000E0
0000C0
0000C0
0001C0
000380
000700
FFFE00
FFF800
ENDCHAR
STARTCHAR 2935
ENCODING 10549
SWIDTH 1000 0
DWIDTH 28 0
BBX 23 22 3 -1
BITMAP
FFF800
FFFE00
000700
000380
0001C0
0000C0
0000C0
0000E0
000060
000060
000060
000060
000060
000062
000466
00066E
00066C
000378
0001F0
0000F0
0000E0
000040
ENDCHAR
STARTCHAR 29BF
ENCODING 10687
SWIDTH 1000 0
DWIDTH 28 0
BBX 24 23 2 -1
BITMAP
00FE00
03FFC0
0F81E0
1E0070
380018
30000C
70000E
603C06
607E06
C0FF03
C0FF03
C0FF03
C0FF03
C07E03
603C06
600006
70000E
30000C
180018
0E0070
0781E0
03FFC0
007E00
ENDCHAR
STARTCHAR 29FA
ENCODING 10746
SWIDTH 678 0
DWIDTH 19 0
BBX 15 15 2 2
BITMAP
0C60
0C60
0C60
0C60
0C60
0C60
0C60
FFFE
0C60
0C60
0C60
0C60
0C60
0C60
0C60
ENDCHAR
STARTCHAR 29FB
ENCODING 10747
SWIDTH 678 0
DWIDTH 19 0
BBX 15 15 2 2
BITMAP
1110
1110
1110
1110
1110
1110
1110
FFFE
1110
1110
1110
1110
1110
1110
1110
ENDCHAR
STARTCHAR 2E83
ENCODING 11907
SWIDTH 1000 0
DWIDTH 28 0
BBX 18 21 6 0
BITMAP
E00000
E00000
E00000
E00000
E00000
E00000
E00000
E00000
E00000
E00000
E00000
E00000
E00000
E00000
E000C0
E000C0
E000C0
E000C0
E001C0
7FFFC0
7FFF80
ENDCHAR
STARTCHAR 2E85
ENCODING 11909
SWIDTH 1000 0
DWIDTH 28 0
BBX 14 24 6 -2
BITMAP
001C
0018
0038
0070
0060
00C0
01C0
03C0
07C0
1EC0
3CC0
70C0
E0C0
40C0
00C0
00C0
00C0
00C0
00C0
00C0
00C0
00C0
00C0
00C0
ENDCHAR
STARTCHAR 2E87
ENCODING 11911
SWIDTH 1000 0
DWIDTH 28 0
BBX 25 23 2 -1
BITMAP
1FFFF800
1FFFF800
18001800
18001800
18001800
18001800
18001800
18001800
18001800
18001800
18001800
18001800
30001800
30001800
30001800
30001800
30001980
30001980
60000D80
60000D80
E0000F00
C0000700
C0000200
ENDCHAR
STARTCHAR 2E89
ENCODING 11913
SWIDTH 1000 0
DWIDTH 28 0
BBX 11 24 8 -2
BITMAP
0060
0060
C060
C060
C060
C060
C060
C060
C060
C060
C060
C060
C060
C060
C060
C060
C060
0060
0060
0060
0060
0860
0FE0
07C0
ENDCHAR
STARTCHAR 2E8E
ENCODING 11918
SWIDTH 1000 0
DWIDTH 28 0
BBX 25 22 2 -2
BITMAP
FFFFFF00
FFFFFF00
01838000
01838000
01838000
01838000
01838000
01838000
01838000
01838000
01838000
01838000
03838000
03038000
03038380
07038380
0E038380
1E038300
3C038300
F001FF00
E001FE00
80000000
ENDCHAR
STARTCHAR 2E8F
ENCODING 11919
SWIDTH 1000 0
DWIDTH 28 0
BBX 24 24 2 -2
BITMAP
000100
018380
0301C0
0700E0
060070
0E0038
1C0018
38001C
30830E
608304
408300
018300
018300
018300
018300
018300
018300
038303
030303
070303
1E0307
7C03FE
F001FC
400000
ENDCHAR
STARTCHAR 2E90
ENCODING 11920
SWIDTH 1000 0
DWIDTH 28 0
BBX 24 24 2 -1
BITMAP
003000
003000
003000
003000
003000
003000
7FFFFE
7FFFFE
003E00
003E00
007E00
006E00
006E00
006E00
00EE00
00CE00
01CE00
018E03
038E03
070E03
0E0E07
3C0E06
F807FE
6007FC
ENDCHAR
STARTCHAR 2E92
ENCODING 11922
SWIDTH 1000 0
DWIDTH 28 0
BBX 22 22 4 -1
BITMAP
FFFFE0
FFFFE0
C00060
C00060
C00060
C00060
C00060
C00060
FFFFE0
FFFFE0
C00060
C00060
C00000
C00000
C00000
C0000C
C0000C
C0000C
E0001C
E00018
7FFFF8
3FFFF0
ENDCHAR
STARTCHAR 2E93
ENCODING 11923
SWIDTH 1000 0
DWIDTH 28 0
BBX 22 22 3 0
BITMAP
002000
007000
006000
00E000
01C080
0181C0
7301C0
7E0380
1E0700
0E0600
070C00
039C00
01F800
00F000
00E180
01C0C0
0380E0
030070
060030
1FFFF8
FFFF1C
F8000C
ENDCHAR
STARTCHAR 2E94
ENCODING 11924
SWIDTH 1000 0
DWIDTH 28 0
BBX 25 21 2 1
BITMAP
03000000
03000000
03000000
03000000
03FFF000
07FFF000
06006000
06006000
06006000
06006000
0C006000
0C006000
0FFFE000
0FFFE000
1C00C000
1800C000
0000C000
0000C000
0000C000
FFFFFF80
FFFFFF80
ENDCHAR
STARTCHAR 2E96
ENCODING 11926
SWIDTH 1000 0
DWIDTH 28 0
BBX 12 25 8 -2
BITMAP
0600
0600
0600
0600
0600
0640
66C0
66C0
6660
6660
6660
6670
C600
C600
4600
0600
0600
0600
0600
0600
0600
0600
0600
0600
0600
ENDCHAR
STARTCHAR 2E97
ENCODING 11927
SWIDTH 1000 0
DWIDTH 28 0
BBX 25 23 1 -1
BITMAP
00600000
00600000
00600000
00600000
00600000
00600000
00641800
1C6E1C00
18660C00
18670E00
18630600
18638700
30618300
30618380
7061C380
6060C180
E0608100
20600000
00600000
00600000
00E00000
0FE00000
0FC00000
ENDCHAR
STARTCHAR 2E98
ENCODING 11928
SWIDTH 1000 0
DWIDTH 28 0
BBX 13 24 7 -2
BITMAP
0600
0600
0600
0600
0600
FFF8
FFF8
0600
0600
0600
0600
0608
07F8
3FF0
FE00
C600
0600
0600
0600
0600
0600
0600
3E00
3E00
ENDCHAR
STARTCHAR 2E99
ENCODING 11929
SWIDTH 1000 0
DWIDTH 28 0
BBX 23 25 3 -2
BITMAP
020000
030000
030000
070000
060000
0FFFFC
0FFFFC
1C01C0
1C0180
3E0180
760180
670300
E30300
C18700
01C600
00EC00
007C00
003800
007C00
00EF00
03C3C0
0F01F8
7E007E
F8001C
400000
ENDCHAR
STARTCHAR 2E9B
ENCODING 11931
SWIDTH 1000 0
DWIDTH 28 0
BBX 24 23 2 -2
BITMAP
3FFFFC
3FFFFC
000C00
0C0C00
0C0C00
0C0C00
0C0C00
181C00
1FFFFF
1FFFFF
381800
303800
003600
007600
006600
00E600
01C603
038603
070607
0E0606
3C07FE
F003FC
400000
ENDCHAR
STARTCHAR 2E9E
ENCODING 11934
SWIDTH 1000 0
DWIDTH 28 0
BBX 22 25 4 -2
BITMAP
003000
003000
003000
003FFC
003FFC
003000
03B000
033000
07FFC0
07FFE0
0E00E0
1C00C0
3C01C0
770380
E38300
C0E700
007E00
003C00
003800
007000
01E000
038000
1F0000
FC0000
700000
ENDCHAR
STARTCHAR 2E9F
ENCODING 11935
SWIDTH 1000 0
DWIDTH 28 0
BBX 26 24 1 -2
BITMAP
07FFFC00
07FFFC00
06000C00
0E300C00
0C380C00
0C1E0C00
0C070C00
0C030C00
0C000C00
FFFFFFC0
FFFFFFC0
0C000C00
0C200C00
1C780C00
181C0C00
180F0C00
18031C00
18001C00
1FFFFF80
1FFFFF80
38001800
38001800
0003F800
0003F000
ENDCHAR
STARTCHAR 2EA0
ENCODING 11936
SWIDTH 1000 0
DWIDTH 28 0
BBX 24 23 2 -2
BITMAP
1FFFF8
1FFFF8
180018
180018
180018
1FFFF8
1FFFF8
180C18
180C18
180C00
180C00
1FFFFF
1FFFFF
180600
180600
180300
180302
180183
1839C3
1BF8E7
7FC07E
FC003E
40000C
ENDCHAR
STARTCHAR 2EA1
ENCODING 11937
SWIDTH 1000 0
DWIDTH 28 0
BBX 10 22 9 -1
BITMAP
3000
3C00
0E00
0700
0200
0000
6000
F000
3C00
1E00
0400
0000
0080
01C0
0380
0300
0700
0E00
1C00
3800
7000
6000
ENDCHAR
STARTCHAR 2EA3
ENCODING 11939
SWIDTH 1000 0
DWIDTH 28 0
BBX 23 8 3 5
BITMAP
100460
198C60
398C30
318638
70C618
60C60C
E0C60E
C0C204
ENDCHAR
STARTCHAR 2EA4
ENCODING 11940
SWIDTH 1000 0
DWIDTH 28 0
BBX 20 12 3 6
BITMAP
0003F0
01FFF0
FFFC00
F80020
004030
30C070
306060
1860E0
1870C0
0C31C0
0C3380
080100
ENDCHAR
STARTCHAR 2EA6
ENCODING 11942
SWIDTH 1000 0
DWIDTH 28 0
BBX 10 25 7 -2
BITMAP
00C0
00C0
00C0
00C0
20C0
60C0
30C0
38C0
1CC0
0CC0
08C0
00C0
00C0
01C0
07C0
1EC0
7CC0
F0C0
C0C0
00C0
00C0
00C0
00C0
00C0
00C0
ENDCHAR
STARTCHAR 2EA8
ENCODING 11944
SWIDTH 1000 0
DWIDTH 28 0
BBX 12 25 6 -2
BITMAP
0020
1830
1C60
0EE0
07C0
0380
0380
0F80
1CC0
78C0
20C0
00E0
01E0
0360
0760
0E60
1C60
3860
F060
4060
0060
0060
00E0
0FC0
0F80
ENDCHAR
STARTCHAR 2EAA
ENCODING 11946
SWIDTH 1000 0
DWIDTH 28 0
BBX 15 22 6 -1
BITMAP
7FFC
7FFE
0018
0030
00E0
0180
3180
3180
3180
31FC
31FC
3180
3180
3180
3180
3180
318E
31FE
37F0
7F80
FC00
C000
ENDCHAR
STARTCHAR 2EAB
ENCODING 11947
SWIDTH 1000 0
DWIDTH 28 0
BBX 21 13 3 4
BITMAP
FFFFF8
FFFFF8
C18608
C18608
C18608
C18608
C18608
C18608
C18608
FFFFF8
FFFFF8
C00008
C00008
ENDCHAR
STARTCHAR 2EAD
ENCODING 11949
SWIDTH 1000 0
DWIDTH 28 0
BBX 15 25 7 -2
BITMAP
0300
0300
0300
0300
0300
7FF8
7FF8
0038
0030
0060
00C0
0180
0380
0FE0
1D70
791C
E10E
C104
0100
0100
0100
0100
0100
0100
0100
ENDCHAR
STARTCHAR 2EB2
ENCODING 11954
SWIDTH 1000 0
DWIDTH 28 0
BBX 21 13 3 4
BITMAP
FFFFF8
FFFFF8
C18608
C18608
C18608
C18608
C18608
C18608
C18608
FFFFF8
FFFFF8
C00008
C00008
ENDCHAR
STARTCHAR 2EB9
ENCODING 11961
SWIDTH 1000 0
DWIDTH 28 0
BBX 25 21 1 2
BITMAP
00180000
00180000
00180700
00180E00
0FFFEC00
0FFFFC00
00183800
00187000
0018E000
0019C000
7FFFFF80
7FFFFF80
000E0000
003C0000
00780000
01E00000
03C00000
0F000000
3C000000
F0000000
40000000
ENDCHAR
STARTCHAR 2EBD
ENCODING 11965
SWIDTH 1000 0
DWIDTH 28 0
BBX 20 23 4 -2
BITMAP
010000
0F8000
FE1FF0
F01FF0
C00030
C00030
C00030
C00030
C00030
C00030
FF1FF0
FF1FF0
C00030
C00030
C00030
C00030
C00030
C00030
C00030
FF9FF0
FF9FF0
C00030
C00030
ENDCHAR
STARTCHAR 2EBE
ENCODING 11966
SWIDTH 1000 0
DWIDTH 28 0
BBX 26 9 1 9
BITMAP
00C0C000
00C0C000
00C0C000
00C0C000
FFFFFFC0
FFFFFFC0
00C0C000
00C0C000
00C0C000
ENDCHAR
STARTCHAR 2EBF
ENCODING 11967
SWIDTH 1000 0
DWIDTH 28 0
BBX 26 9 1 9
BITMAP
03003000
03003000
03003000
03003000
FFF7FFC0
FFF7FFC0
03003000
03003000
03003000
ENDCHAR
STARTCHAR 2EC0
ENCODING 11968
SWIDTH 1000 0
DWIDTH 28 0
BBX 24 10 2 8
BITMAP
018180
018180
018180
018180
FF81FF
FF81FF
018180
018180
018180
018180
ENDCHAR
STARTCHAR 2EC1
ENCODING 11969
SWIDTH 1000 0
DWIDTH 28 0
BBX 25 26 2 -3
BITMAP
00300000
00300000
003FF800
003FF800
00300000
3FFFFF00
3FFFFF00
30300300
30300700
303FE200
37FFE000
37F00800
30300C00
30300C00
303FF800
301FF800
30000000
30618000
30618000
30618000
70618000
60618180
60C18180
E3C18300
CF01FF00
0C00FC00
ENDCHAR
STARTCHAR 2EC2
ENCODING 11970
SWIDTH 1000 0
DWIDTH 28 0
BBX 15 25 6 -2
BITMAP
0300
0300
0300
0300
0300
FFFC
FFFC
0018
0038
0030
0060
00C4
018E
079C
0FF8
3DF0
F1BC
E18E
8186
0180
0180
0180
0180
0180
0180
ENDCHAR
STARTCHAR 2EC3
ENCODING 11971
SWIDTH 1000 0
DWIDTH 28 0
BBX 22 15 3 4
BITMAP
FFFFFC
FFFFFC
018600
018600
018600
7FFFF8
7FFFF8
618618
618618
618618
618618
7FFFF8
7FFFF8
600018
600018
ENDCHAR
STARTCHAR 2EC4
ENCODING 11972
SWIDTH 1000 0
DWIDTH 28 0
BBX 24 23 2 -2
BITMAP
FFFFFF
FFFFFF
00C600
00C600
00C600
00C600
3FFFFC
3FFFFC
30C60C
30C60C
30C60C
31862C
31863C
33063C
3707FC
3E03EC
30000C
30000C
30000C
3FFFFC
3FFFFC
30000C
30000C
ENDCHAR
STARTCHAR 2ECA
ENCODING 11978
SWIDTH 1000 0
DWIDTH 28 0
BBX 15 24 6 -2
BITMAP
3FF8
3FF8
3018
3018
3018
3018
3018
3FF8
3FF8
0180
0180
3980
3980
39FC
39FC
3980
3980
3980
3980
398E
39FE
3FF0
FF80
7800
ENDCHAR
STARTCHAR 2ECC
ENCODING 11980
SWIDTH 1000 0
DWIDTH 28 0
BBX 24 23 2 -2
BITMAP
200000
700000
380000
1C0000
0E0000
040000
000000
000000
000000
000000
FE0000
FE0000
060000
060000
060000
060000
060000
060000
0E0000
1F0000
3BC000
F0FFFF
403FFF
ENDCHAR
STARTCHAR 2ECD
ENCODING 11981
SWIDTH 1000 0
DWIDTH 28 0
BBX 25 24 2 -2
BITMAP
10000000
3C000000
0E000000
06000000
00000000
20000000
70000000
3C000000
0C000000
04000000
00000000
00000000
FE000000
FE000000
06000000
06000000
06000000
06000000
06000000
1F000000
3B800000
70FFFF80
E03FFF00
40000000
ENDCHAR
STARTCHAR 2ECF
ENCODING 11983
SWIDTH 1000 0
DWIDTH 28 0
BBX 12 23 10 -2
BITMAP
FFE0
FFE0
C0C0
C0C0
C180
C180
C300
C300
C600
C300
C180
C0C0
C060
C060
C030
C030
C070
DFE0
CFC0
C000
C000
C000
C000
ENDCHAR
STARTCHAR 2ED1
ENCODING 11985
SWIDTH 1000 0
DWIDTH 28 0
BBX 24 24 2 -2
BITMAP
0FFFF8
0FFFF8
0C0000
0C0000
0FFFF0
0FFFF0
0C0000
0C0000
0FFFF0
0FFFF0
0C0000
FFFFFF
FFFFFF
0C1804
0C1C1E
0C0C38
0C0670
0C07E0
0C0380
0C19E0
0DF878
3FC03E
7E000F
600000
ENDCHAR
STARTCHAR 2ED2
ENCODING 11986
SWIDTH 1000 0
DWIDTH 28 0
BBX 24 23 2 -2
BITMAP
07FFFC
07FFFC
060000
060000
07FFF0
07FFF0
060000
060000
07FFF0
07FFF0
060000
060000
FFFFFF
FFFFFF
01C000
0180C0
0380E0
030070
070038
0607F8
7FFFFC
7FF006
000004
ENDCHAR
STARTCHAR 2ED6
ENCODING 11990
SWIDTH 1000 0
DWIDTH 28 0
BBX 12 23 10 -2
BITMAP
FFE0
FFE0
C0C0
C0C0
C180
C180
C300
C300
C600
C300
C180
C0C0
C060
C060
C030
C030
C070
DFE0
CFC0
C000
C000
C000
C000
ENDCHAR
STARTCHAR 2ED8
ENCODING 11992
SWIDTH 1000 0
DWIDTH 28 0
BBX 24 25 2 -2
BITMAP
001800
001800
001800
7FFFFE
7FFFFE
001800
3FFFFC
3FFFFC
001800
FFFFFF
FFFFFF
000000
0FFFF0
0FFFF0
0C0030
0FFFF0
0FFFF0
0C0030
0FFFF0
0FFFF0
0C0030
0C0030
0C03F0
0C03F0
0C0000
ENDCHAR
STARTCHAR 2EDE
ENCODING 11998
SWIDTH 1000 0
DWIDTH 28 0
BBX 14 25 7 -2
BITMAP
0200
0700
0780
0FC0
0CE0
1838
3FDC
7FC8
E000
FFE0
BFE0
3020
3FE0
3FE0
3020
3FE0
3FE0
3000
3FF0
3FF0
3000
3FF0
3FF0
3000
3000
ENDCHAR
STARTCHAR 2EDF
ENCODING 11999
SWIDTH 1000 0
DWIDTH 28 0
BBX 13 25 7 -2
BITMAP
0300
0700
0780
0EE0
0C70
1B38
3B18
7300
FFF0
FFF0
3030
3FF0
3FF0
3030
3030
3FF0
3FF0
3000
30C0
30E0
3060
30F0
3FF0
FE18
6010
ENDCHAR
STARTCHAR 2EE4
ENCODING 12004
SWIDTH 1000 0
DWIDTH 28 0
BBX 24 26 2 -3
BITMAP
003000
007000
006000
1FFFF8
1FFFF8
181818
181818
181818
1FFFF8
1FFFF8
181818
181818
181818
1FFFF8
1FFFF8
00CC00
01CC60
018CD8
018CCC
018C9C
030DFE
070D03
0E0C03
3C0FFF
F007FE
400000
ENDCHAR
STARTCHAR 2EE8
ENCODING 12008
SWIDTH 1000 0
DWIDTH 28 0
BBX 24 25 2 -2
BITMAP
001800
001800
001800
7FFFFE
7FFFFE
001800
001800
1FFFF8
1FFFF8
001800
FFFFFF
FFFFFF
006000
00C000
01FFE0
03FFF0
0F80E0
1CC1C0
787380
603F00
001F00
007FE0
07E1FE
FF803F
780002
ENDCHAR
STARTCHAR 2EE9
ENCODING 12009
SWIDTH 1000 0
DWIDTH 28 0
BBX 26 25 1 -2
BITMAP
00C0C000
00C0C000
00C0C000
3FFFFF00
3FFFFF00
00C0C000
00C0C000
FFFFFFC0
FFFFFFC0
000C0000
000C0000
0FFFFC00
0FFFFC00
0C0C0C00
0C0C0C00
0FFFFC00
0FFFFC00
0C0C0C00
0FFFFC00
0FFFFC00
00C0C000
03C0F800
0F003F00
7C000780
30000100
ENDCHAR
STARTCHAR 2EEB
ENCODING 12011
SWIDTH 1000 0
DWIDTH 28 0
BBX 24 26 2 -3
BITMAP
001800
001800
001800
FFFFFF
FFFFFF
0700C0
038180
01C700
007E00
003E00
01FFC0
3F81FF
FE003F
860030
07FFF0
07FFF0
060030
060030
07FFF0
07FFF0
0C0030
0C0030
1C0030
380030
700030
200000
ENDCHAR
STARTCHAR 2EED
ENCODING 12013
SWIDTH 1000 0
DWIDTH 28 0
BBX 26 26 1 -2
BITMAP
000C0000
000C0000
000C0000
060FFC00
060FFC00
060C0000
060C0000
060C0000
FFFFFFC0
FFFFFFC0
00000000
310C6600
318C6600
30CCC600
304C8600
33FFF600
33FFF600
301C0600
307F0600
30EDC600
338C7600
370C1600
30000600
3FFFFE00
3FFFFE00
30000600
ENDCHAR
STARTCHAR 2EEF
ENCODING 12015
SWIDTH 1000 0
DWIDTH 28 0
BBX 26 25 1 -2
BITMAP
000C0000
000C0000
000C0000
3FFFFF00
3FFFFF00
01806000
0180E000
00C0C000
FFFFFFC0
FFFFFFC0
00000000
0FFFFC00
0FFFFC00
0C0C0C00
0C0C0C00
0FFFFC00
0FFFFC00
0C0C0C00
0FFFFC00
0FFFFC00
0C0C00C0
0C0C00C0
000C0180
000FFF80
0007FF00
ENDCHAR
STARTCHAR 2EF2
ENCODING 12018
SWIDTH 1000 0
DWIDTH 28 0
BBX 25 26 2 -2
BITMAP
02000000
03000000
07FF0000
07FF0000
0C060000
1FFFF800
3FFFF800
78181800
FFFFF800
DFFFF800
18181800
1FFFF800
1FFFF800
00180000
3FFFFC00
3FFFFC00
3FFFFC00
3FFFFC00
30180400
30180400
3FFFFC00
3FFFFD00
30180180
00180180
001FFF80
000FFF00
ENDCHAR
STARTCHAR 2F00
ENCODING 12032
SWIDTH 1000 0
DWIDTH 28 0
BBX 24 2 2 10
BITMAP
FFFFFF
FFFFFF
ENDCHAR
STARTCHAR 2F01
ENCODING 12033
SWIDTH 1000 0
DWIDTH 28 0
BBX 2 24 13 -1
BITMAP
C0
C0
C0
C0
C0
C0
C0
C0
C0
C0
C0
C0
C0
C0
C0
C0
C0
C0
C0
C0
C0
C0
C0
C0
ENDCHAR
STARTCHAR 2F02
ENCODING 12034
SWIDTH 1000 0
DWIDTH 28 0
BBX 13 13 7 4
BITMAP
4000
E000
7800
3C00
1E00
0F00
0780
03C0
01E0
00F0
0078
0038
0010
ENDCHAR
STARTCHAR 2F03
ENCODING 12035
SWIDTH 1000 0
DWIDTH 28 0
BBX 9 24 7 -2
BITMAP
0180
0180
0180
0180
0180
0180
0180
0180
0180
0180
0180
0180
0380
0380
0380
0300
0700
0700
0E00
1E00
3C00
7800
F000
4000
ENDCHAR
STARTCHAR 2F04
ENCODING 12036
SWIDTH 1000 0
DWIDTH 28 0
BBX 21 20 4 0
BITMAP
FFFF00
FFFF80
000700
000C00
001800
007000
00E000
01C000
038000
070000
0E0000
1C0000
380000
300018
600018
E00018
C00018
E00038
FFFFF8
3FFFE0
ENDCHAR
STARTCHAR 2F05
ENCODING 12037
SWIDTH 1000 0
DWIDTH 28 0
BBX 7 23 8 -1
BITMAP
06
06
06
06
06
06
06
06
06
06
06
06
06
06
06
06
06
06
06
06
06
FE
FE
ENDCHAR
STARTCHAR 2F06
ENCODING 12038
SWIDTH 1000 0
DWIDTH 28 0
BBX 24 17 2 2
BITMAP
3FFFFC
3FFFFC
000000
000000
000000
000000
000000
000000
000000
000000
000000
000000
000000
000000
000000
FFFFFF
FFFFFF
ENDCHAR
STARTCHAR 2F07
ENCODING 12039
SWIDTH 1000 0
DWIDTH 28 0
BBX 24 8 2 11
BITMAP
001800
001800
001800
001800
001800
001800
FFFFFF
FFFFFF
ENDCHAR
STARTCHAR 2F08
ENCODING 12040
SWIDTH 1000 0
DWIDTH 28 0
BBX 24 23 2 -1
BITMAP
001800
001800
001800
001800
001800
001800
003800
003C00
003C00
003C00
003600
006600
006600
006300
00C380
01C180
0180C0
0380E0
070078
1E003C
3C001F
F80007
600002
ENDCHAR
STARTCHAR 2F09
ENCODING 12041
SWIDTH 1000 0
DWIDTH 28 0
BBX 24 22 2 -2
BITMAP
000300
038300
038300
038300
038300
038300
038300
038300
038300
030300
030300
030300
030300
030300
030300
070303
060303
0E0307
1C0307
380386
F003FE
E001FC
ENDCHAR
STARTCHAR 2F0A
ENCODING 12042
SWIDTH 1000 0
DWIDTH 28 0
BBX 24 23 2 -1
BITMAP
0FF800
0FF800
001800
001800
001C00
001C00
001C00
001C00
003C00
003400
003600
007600
006300
006300
00C180
01C1C0
0180E0
038070
070078
0E003C
3C000F
F80007
600002
ENDCHAR
STARTCHAR 2F0B
ENCODING 12043
SWIDTH 1000 0
DWIDTH 28 0
BBX 24 23 2 -1
BITMAP
00FF00
00FF00
000300
000380
010180
018180
038180
0381C0
0300C0
0300C0
0300E0
070060
060060
060030
0C0030
0C0038
1C001C
18001C
38000E
700007
E00007
C00003
400000
ENDCHAR
STARTCHAR 2F0C
ENCODING 12044
SWIDTH 1000 0
DWIDTH 28 0
BBX 22 23 3 -2
BITMAP
FFFFFC
FFFFFC
E0001C
E0001C
E0001C
E0001C
E0001C
E0001C
E0001C
E0001C
E0001C
E0001C
E0001C
E0001C
E0001C
E0001C
E0001C
E0001C
E0001C
E0001C
E0001C
E001F8
E001F8
ENDCHAR
STARTCHAR 2F0D
ENCODING 12045
SWIDTH 1000 0
DWIDTH 28 0
BBX 22 7 3 9
BITMAP
FFFFFC
FFFFFC
C0000C
C0000C
C0000C
C0000C
C0000C
ENDCHAR
STARTCHAR 2F0E
ENCODING 12046
SWIDTH 1000 0
DWIDTH 28 0
BBX 13 22 8 -1
BITMAP
4000
E000
7000
3800
1C00
0C00
0800
0010
0038
0070
0060
00E0
01C0
0380
0380
0700
0E00
1C00
3800
7000
E000
4000
ENDCHAR
STARTCHAR 2F0F
ENCODING 12047
SWIDTH 1000 0
DWIDTH 28 0
BBX 24 22 2 -1
BITMAP
07FFC0
07FFC0
0701C0
0701C0
0701C0
0701C0
0701C0
0701C0
0701C0
0701C0
0601C0
0601C0
0601C0
0601C0
0601C0
0E01C3
0C01C3
1C01C3
3801C3
7001C3
F001FF
C000FC
ENDCHAR
STARTCHAR 2F10
ENCODING 12048
SWIDTH 1000 0
DWIDTH 28 0
BBX 20 22 4 -1
BITMAP
C00030
C00030
C00030
C00030
C00030
C00030
C00030
C00030
C00030
C00030
C00030
C00030
C00030
C00030
C00030
C00030
C00030
C00030
FFFFF0
FFFFF0
C00030
C00030
ENDCHAR
STARTCHAR 2F11
ENCODING 12049
SWIDTH 1000 0
DWIDTH 28 0
BBX 21 22 3 -1
BITMAP
FFFFF8
FFFFF8
00E018
00E018
00E018
00C018
00C018
00C018
00C018
00C018
01C018
018018
018018
038018
030018
070018
0E0038
1C0038
3C0030
781FF0
F01FE0
400000
ENDCHAR
STARTCHAR 2F12
ENCODING 12050
SWIDTH 1000 0
DWIDTH 28 0
BBX 22 24 3 -2
BITMAP
006000
006000
006000
006000
006000
FFFFFC
FFFFFC
00601C
00601C
00601C
00601C
00601C
00E01C
00C018
01C018
018018
038018
030018
070018
0E0018
3C0838
780FF0
E00FE0
C00000
ENDCHAR
STARTCHAR 2F13
ENCODING 12051
SWIDTH 1000 0
DWIDTH 28 0
BBX 22 24 2 -1
BITMAP
038000
038000
030000
070000
07FFFC
0FFFFC
0C000C
1C000C
38000C
38000C
70000C
E0000C
00000C
00000C
00000C
00000C
00000C
00000C
00001C
00001C
000018
000018
000FF8
000FF0
ENDCHAR
STARTCHAR 2F14
ENCODING 12052
SWIDTH 1000 0
DWIDTH 28 0
BBX 20 21 5 0
BITMAP
E00000
E00000
E00000
E00000
E00180
E00FC0
E03F00
E1F800
EFC000
FE0000
F00000
E00000
E00000
E00000
E00070
E00070
E00070
E00060
E00060
7FFFE0
3FFF80
ENDCHAR
STARTCHAR 2F15
ENCODING 12053
SWIDTH 1000 0
DWIDTH 28 0
BBX 21 21 4 -1
BITMAP
FFFFF8
FFFFF8
C00000
C00000
C00000
C00000
C00000
C00000
C00000
C00000
C00000
C00000
C00000
C00000
C00000
C00000
C00000
FFFFF8
FFFFF8
C00000
C00000
ENDCHAR
STARTCHAR 2F16
ENCODING 12054
SWIDTH 1000 0
DWIDTH 28 0
BBX 23 20 2 0
BITMAP
FFFFFE
FFFFFE
180000
180000
180000
180000
180000
180000
180000
180000
180000
180000
180000
180000
180000
180000
180000
1C0000
0FFFFC
07FFFC
ENDCHAR
STARTCHAR 2F17
ENCODING 12055
SWIDTH 1000 0
DWIDTH 28 0
BBX 24 25 2 -2
BITMAP
001800
001800
001800
001800
001800
001800
001800
001800
001800
001800
FFFFFF
FFFFFF
001800
001800
001800
001800
001800
001800
001800
001800
001800
001800
001800
001800
001800
ENDCHAR
STARTCHAR 2F18
ENCODING 12056
SWIDTH 1000 0
DWIDTH 28 0
BBX 13 24 10 -1
BITMAP
C000
C000
C000
C000
C000
C000
C000
C000
E000
F800
FE00
CF00
C7C0
C1F0
C078
C038
C000
C000
C000
C000
C000
C000
C000
C000
ENDCHAR
STARTCHAR 2F19
ENCODING 12057
SWIDTH 1000 0
DWIDTH 28 0
BBX 13 23 8 -2
BITMAP
FFF8
FFF8
C038
C038
C038
C038
C038
C038
C038
C038
C038
C038
C038
C038
C038
C238
C3F0
C1F0
C000
C000
C000
C000
C000
ENDCHAR
STARTCHAR 2F1A
ENCODING 12058
SWIDTH 1000 0
DWIDTH 28 0
BBX 23 22 2 -1
BITMAP
1FFFFE
1FFFFE
180000
180000
180000
180000
180000
180000
180000
180000
180000
380000
380000
300000
300000
300000
300000
700000
700000
600000
E00000
400000
ENDCHAR
STARTCHAR 2F1B
ENCODING 12059
SWIDTH 1000 0
DWIDTH 28 0
BBX 23 23 3 -1
BITMAP
004000
007000
006000
006000
00E000
00C000
00C000
01C000
018000
018000
038000
030380
0301C0
0600C0
0600E0
0E0060
0C0070
0C01F8
187FF8
FFFE1C
FFC01C
C0000E
000008
ENDCHAR
STARTCHAR 2F1C
ENCODING 12060
SWIDTH 1000 0
DWIDTH 28 0
BBX 24 22 2 -1
BITMAP
7FFFF8
7FFFF8
0E0038
060030
060030
030060
030060
0380E0
0180C0
00C180
00E380
006300
003600
003E00
001E00
003F00
00F380
01E1E0
0780F8
1F003F
FC000F
E00002
ENDCHAR
STARTCHAR 2F1D
ENCODING 12061
SWIDTH 1000 0
DWIDTH 28 0
BBX 20 20 4 0
BITMAP
FFFFF0
FFFFF0
C00070
C00070
C00070
C00070
C00070
C00070
C00070
C00070
C00070
C00070
C00070
C00070
C00070
C00070
FFFFF0
FFFFF0
C00070
C00070
ENDCHAR
STARTCHAR 2F1E
ENCODING 12062
SWIDTH 1000 0
DWIDTH 28 0
BBX 22 23 3 -2
BITMAP
FFFFFC
FFFFFC
C0000C
C0000C
C0000C
C0000C
C0000C
C0000C
C0000C
C0000C
C0000C
C0000C
C0000C
C0000C
C0000C
C0000C
C0000C
C0000C
C0000C
FFFFFC
FFFFFC
C0000C
C0000C
ENDCHAR
STARTCHAR 2F1F
ENCODING 12063
SWIDTH 1000 0
DWIDTH 28 0
BBX 24 22 2 0
BITMAP
001800
001800
001800
001800
001800
001800
001800
3FFFFC
3FFFFC
001800
001800
001800
001800
001800
001800
001800
001800
001800
001800
001800
FFFFFF
FFFFFF
ENDCHAR
STARTCHAR 2F20
ENCODING 12064
SWIDTH 1000 0
DWIDTH 28 0
BBX 24 22 2 0
BITMAP
001800
001800
001800
001800
001800
001800
001800
FFFFFF
FFFFFF
001800
001800
001800
001800
001800
001800
001800
001800
001800
001800
001800
7FFFFE
7FFFFE
ENDCHAR
STARTCHAR 2F21
ENCODING 12065
SWIDTH 1000 0
DWIDTH 28 0
BBX 23 23 3 -2
BITMAP
00C000
01C000
018000
03FFE0
03FFE0
0700E0
0700C0
0F00C0
1F0180
198180
398380
70C300
E06600
407E00
003C00
001800
007E00
00F700
01C3C0
0781E0
1F0078
FC003E
F00004
ENDCHAR
STARTCHAR 2F22
ENCODING 12066
SWIDTH 1000 0
DWIDTH 28 0
BBX 24 24 2 -1
BITMAP
007000
006000
006000
04FFF0
0CFFF0
0CC030
078060
078060
0300E0
0780C0
0F80C0
1CC180
38E380
707300
E03E00
401E00
001E00
003F00
0073C0
01E0E0
078078
1F001F
7C0007
700000
ENDCHAR
STARTCHAR 2F23
ENCODING 12067
SWIDTH 1000 0
DWIDTH 28 0
BBX 21 24 3 -1
BITMAP
006000
00E000
00C000
00FFF0
01FFF8
018030
038030
070070
060060
0F8060
1DC0C0
38E0C0
707980
E01F80
000F00
000600
000C00
001C00
007800
00E000
03C000
0F8000
3E0000
180000
ENDCHAR
STARTCHAR 2F24
ENCODING 12068
SWIDTH 1000 0
DWIDTH 28 0
BBX 24 24 2 -1
BITMAP
001800
001800
001800
001800
001800
001800
001800
FFFFFF
FFFFFF
001C00
003C00
003C00
003600
003600
006300
006380
00C180
01C0C0
0380E0
070078
0E003C
3C001F
F80007
700002
ENDCHAR
STARTCHAR 2F25
ENCODING 12069
SWIDTH 1000 0
DWIDTH 28 0
BBX 24 24 2 -1
BITMAP
003000
007000
006000
006000
00E000
00C000
FFFFFF
FFFFFF
018060
038060
0300E0
0300C0
0600C0
060180
0F8180
0DF300
187F00
001F00
001FC0
0079F0
01F078
1FC01E
7E000E
600000
ENDCHAR
STARTCHAR 2F26
ENCODING 12070
SWIDTH 1000 0
DWIDTH 28 0
BBX 24 23 2 -2
BITMAP
1FFFF8
1FFFFC
000070
0000E0
000380
000F00
001C00
001800
001800
001800
FFFFFF
FFFFFF
001800
001800
001800
001800
001800
001800
001800
001800
021800
03F800
01F800
ENDCHAR
STARTCHAR 2F27
ENCODING 12071
SWIDTH 1000 0
DWIDTH 28 0
BBX 22 12 3 8
BITMAP
003000
003000
003000
003000
003000
FFFFFC
FFFFFC
C0000C
C0000C
C0000C
C0000C
C0000C
ENDCHAR
STARTCHAR 2F28
ENCODING 12072
SWIDTH 1000 0
DWIDTH 28 0
BBX 24 24 2 -1
BITMAP
0000C0
0000C0
0000C0
0000C0
0000C0
0000C0
FFFFFF
FFFFFF
0000C0
0000C0
0000C0
0E00C0
0700C0
0300C0
0380C0
01C0C0
00C0C0
00C0C0
0000C0
0000C0
0000C0
0000C0
003FC0
003FC0
ENDCHAR
STARTCHAR 2F29
ENCODING 12073
SWIDTH 1000 0
DWIDTH 28 0
BBX 24 23 2 -1
BITMAP
001800
001800
001800
001800
001800
001840
061860
0E1870
0C1830
0C1838
1C1818
18181C
38180C
30180E
701806
601807
E01807
401800
001800
001800
001800
03F800
03F000
ENDCHAR
STARTCHAR 2F2A
ENCODING 12074
SWIDTH 1000 0
DWIDTH 28 0
BBX 24 24 2 -1
BITMAP
003000
003000
003000
003000
003000
003000
7FFFFE
7FFFFE
003E00
003E00
007E00
006E00
006E00
006E00
00EE00
00CE00
01CE00
018E03
038E03
070E03
0E0E07
3C0E06
F807FE
6007FC
ENDCHAR
STARTCHAR 2F2B
ENCODING 12075
SWIDTH 1000 0
DWIDTH 28 0
BBX 21 22 3 -2
BITMAP
3FFFF8
3FFFF8
300018
300018
300018
300018
3FFFF8
3FFFF8
300018
300018
300000
300000
300000
300000
300000
300000
700000
600000
600000
E00000
C00000
C00000
ENDCHAR
STARTCHAR 2F2C
ENCODING 12076
SWIDTH 1000 0
DWIDTH 28 0
BBX 20 25 4 -2
BITMAP
006000
006000
006000
006000
C06030
C06030
C06030
C06030
C06030
C06030
C06030
C06030
C06030
FFFFF0
FFFFF0
C06030
C06030
006000
00E000
00C000
01C000
038000
0F0000
3E0000
180000
ENDCHAR
STARTCHAR 2F2D
ENCODING 12077
SWIDTH 1000 0
DWIDTH 28 0
BBX 22 24 3 -1
BITMAP
003000
003000
003000
003000
003000
E0301C
E0301C
E0301C
E0301C
E0301C
E0301C
E0301C
E0301C
E0301C
E0301C
E0301C
E0301C
E0301C
E0301C
E0301C
FFFFFC
FFFFFC
E0001C
E0001C
ENDCHAR
STARTCHAR 2F2E
ENCODING 12078
SWIDTH 1000 0
DWIDTH 28 0
BBX 23 22 3 -1
BITMAP
0C1818
1C1818
181838
183830
383030
307070
306060
6060E0
60C0C0
C0C1C0
C18180
C1C180
E0C0C0
6060E0
706060
303070
383838
183818
18181C
1C1C1C
0C0C0E
0C0808
ENDCHAR
STARTCHAR 2F2F
ENCODING 12079
SWIDTH 1000 0
DWIDTH 28 0
BBX 24 19 2 1
BITMAP
3FFFFE
3FFFFE
001800
001800
001800
001800
001800
001800
001800
001800
001800
001800
001800
001800
001800
001800
001800
FFFFFF
FFFFFF
ENDCHAR
STARTCHAR 2F30
ENCODING 12080
SWIDTH 1000 0
DWIDTH 28 0
BBX 22 22 4 -1
BITMAP
FFFFC0
FFFFC0
0000C0
0000C0
0000C0
0000C0
0000C0
0000C0
FFFFC0
FFFFC0
C000C0
C000C0
C00000
C00000
C00000
C0000C
C0000C
C0000C
C0001C
E00018
7FFFF8
3FFFF0
ENDCHAR
STARTCHAR 2F31
ENCODING 12081
SWIDTH 1000 0
DWIDTH 28 0
BBX 21 25 4 -2
BITMAP
006000
006000
006000
006000
006000
FFFFF8
FFFFF8
C06038
C06038
C06038
C06038
C06038
C06038
C06038
C06038
C06038
C06038
C06038
C063F8
C063F0
C06000
006000
006000
006000
006000
ENDCHAR
STARTCHAR 2F32
ENCODING 12082
SWIDTH 1000 0
DWIDTH 28 0
BBX 24 23 2 -2
BITMAP
7FFFFE
7FFFFE
001800
001800
001800
001800
001800
001800
001800
FFFFFF
FFFFFF
001800
001800
001800
001800
001800
001800
001800
001800
001800
001800
001800
001800
ENDCHAR
STARTCHAR 2F33
ENCODING 12083
SWIDTH 1000 0
DWIDTH 28 0
BBX 22 22 3 0
BITMAP
002000
007000
006000
00E000
01C080
0181C0
7301C0
7E0380
1E0700
0E0600
070C00
039C00
01F800
00F000
00E180
01C0C0
0380E0
030070
060030
1FFFF8
FFFF1C
F8000C
ENDCHAR
STARTCHAR 2F34
ENCODING 12084
SWIDTH 1000 0
DWIDTH 28 0
BBX 23 24 2 -2
BITMAP
000C00
000C00
000C00
000C00
1FFFFE
1FFFFE
180000
180000
180000
180000
180000
180000
180000
180000
380000
380000
380000
300000
300000
300000
700000
600000
E00000
600000
ENDCHAR
STARTCHAR 2F35
ENCODING 12085
SWIDTH 1000 0
DWIDTH 28 0
BBX 23 23 3 -2
BITMAP
7F8000
7F8000
030000
070000
060000
0C0000
0C0000
1FC000
3FC000
70C000
00C000
118000
318000
198000
1B8000
0F0000
070000
070000
0DC000
1CF000
787FFE
E007FE
400000
ENDCHAR
STARTCHAR 2F36
ENCODING 12086
SWIDTH 1000 0
DWIDTH 28 0
BBX 24 25 2 -2
BITMAP
0000C0
0380C0
0380C0
0380C0
0380C0
0380C0
0380C0
0380C0
0380C0
0380C0
FFFFFF
FFFFFF
0380C0
0380C0
0380C0
0300C0
0300C0
0300C0
0700C0
0600C0
0E00C0
1C00C0
3800C0
F000C0
6000C0
ENDCHAR
STARTCHAR 2F37
ENCODING 12087
SWIDTH 1000 0
DWIDTH 28 0
BBX 24 23 2 -1
BITMAP
006080
0061C0
0060E0
006070
006020
006000
00600E
07FFFE
FFFFC0
F03000
003000
003000
001800
001800
001C00
000C00
000E00
000703
000383
0001C3
0000F7
00003E
00000E
ENDCHAR
STARTCHAR 2F38
ENCODING 12088
SWIDTH 1000 0
DWIDTH 28 0
BBX 20 23 4 -2
BITMAP
FFFFE0
FFFFE0
0000E0
0000E0
0000E0
0000E0
7FFFE0
7FFFE0
6000E0
6000E0
600000
600000
FFFFF0
FFFFF0
C00030
C00070
400070
000060
000060
000060
00C0E0
007FC0
007F80
ENDCHAR
STARTCHAR 2F39
ENCODING 12089
SWIDTH 1000 0
DWIDTH 28 0
BBX 23 20 2 0
BITMAP
3FFFC0
3FFFC0
000040
000040
000040
000040
000040
000040
000040
1FFFC0
000040
000040
000040
000040
000040
000040
000040
000040
000040
FFFFFE
ENDCHAR
STARTCHAR 2F3A
ENCODING 12090
SWIDTH 1000 0
DWIDTH 28 0
BBX 20 23 4 0
BITMAP
000700
001E00
003C00
007000
01E000
07C000
1F0100
FC0380
E00700
000E00
003C00
007800
03E030
0F8070
3E00E0
1003C0
000780
000E00
003C00
00F000
07E000
7F8000
3C0000
ENDCHAR
STARTCHAR 2F3B
ENCODING 12091
SWIDTH 1000 0
DWIDTH 28 0
BBX 14 25 6 -2
BITMAP
0010
0038
0070
00E0
03C0
0700
1E0C
781C
6038
0070
00E0
01C0
03C0
07C0
1EC0
38C0
F0C0
40C0
00C0
00C0
00C0
00C0
00C0
00C0
00C0
ENDCHAR
STARTCHAR 2F3C
ENCODING 12092
SWIDTH 1000 0
DWIDTH 28 0
BBX 25 23 1 -1
BITMAP
00600000
007C0000
001F0000
00078000
00018000
00C00000
00C00000
00C00000
00C01800
1CC01C00
18C00C00
18C00E00
18C00600
38C00700
30C00300
30C02380
70C03B80
60C03180
E0C03000
00C03000
00C07000
00FFF000
003FE000
ENDCHAR
STARTCHAR 2F3D
ENCODING 12093
SWIDTH 1000 0
DWIDTH 28 0
BBX 24 23 2 -2
BITMAP
006180
0061C0
0060F0
006020
006000
006000
0FFFFE
FFFFFE
E03000
003010
003030
003070
0018E0
0019C0
001F80
000F00
000E00
003F03
007383
01E1C3
0F80F3
7E003E
78000E
ENDCHAR
STARTCHAR 2F3E
ENCODING 12094
SWIDTH 1000 0
DWIDTH 28 0
BBX 24 24 2 -2
BITMAP
7FFFFF
7FFFFF
000000
000000
000000
000000
1FFFF8
1FFFF8
180018
180018
180018
180018
1FFFF8
1FFFF8
180018
180018
180000
180000
380000
300000
700000
600000
E00000
400000
ENDCHAR
STARTCHAR 2F3F
ENCODING 12095
SWIDTH 1000 0
DWIDTH 28 0
BBX 26 23 1 -1
BITMAP
0001F800
00FFFC00
1FFE0000
080C0000
000C0000
000C0000
000C0000
3FFFFE00
3FFFFE00
000C0000
000C0000
000C0000
000C0000
FFFFFFC0
FFFFFFC0
000C0000
000C0000
000C0000
000C0000
000C0000
000C0000
01FC0000
01F80000
ENDCHAR
STARTCHAR 2F40
ENCODING 12096
SWIDTH 1000 0
DWIDTH 28 0
BBX 24 25 2 -2
BITMAP
001800
001800
001800
001800
FFFFFF
FFFFFF
001800
001800
001800
001800
3FFFF0
3FFFF0
060070
030060
0180E0
01C1C0
00C380
007700
003E00
001C00
007F00
01E3E0
0F80FF
FE001F
700002
ENDCHAR
STARTCHAR 2F41
ENCODING 12097
SWIDTH 1000 0
DWIDTH 28 0
BBX 24 25 2 -2
BITMAP
003000
003000
003000
003000
003FFC
003FFC
003000
003000
003000
003000
3FFFF0
3FFFF0
060070
030060
0380E0
0181C0
00C380
006700
003E00
001E00
007F80
01E3F0
1F80FF
FE001E
700000
ENDCHAR
STARTCHAR 2F42
ENCODING 12098
SWIDTH 1000 0
DWIDTH 28 0
BBX 24 24 2 -1
BITMAP
001800
001800
001800
001800
001800
FFFFFF
FFFFFF
0600E0
0600C0
0300C0
0301C0
018180
018380
00C300
00E700
007E00
003C00
001C00
007F00
00E780
03C1F0
1F00FC
FC003E
700006
ENDCHAR
STARTCHAR 2F43
ENCODING 12099
SWIDTH 1000 0
DWIDTH 28 0
BBX 24 25 2 -2
BITMAP
0001C0
0001C0
0301C0
03C1C0
01E1C0
0071C0
0039C0
0011C0
0C01C0
1E01C0
0781C0
03C1C0
00E1C0
0041C0
0001C7
000FFF
3FFFFC
FFF1C0
E001C0
0001C0
0001C0
0001C0
0001C0
0001C0
0001C0
ENDCHAR
STARTCHAR 2F44
ENCODING 12100
SWIDTH 1000 0
DWIDTH 28 0
BBX 23 24 3 -3
BITMAP
000060
003FF0
1FFFC0
1FC000
180000
180000
180000
180000
180000
1FFFFE
1FFFFE
180300
180300
180300
180300
180300
180300
380300
300300
300300
700300
600300
E00300
C00300
ENDCHAR
STARTCHAR 2F45
ENCODING 12101
SWIDTH 1000 0
DWIDTH 28 0
BBX 24 24 2 -2
BITMAP
001800
001800
001800
001800
FFFFFF
FFFFFF
006000
006000
006000
006000
00FFF8
00FFF8
00C018
00C018
00C018
01C018
018038
038038
030030
070030
0E0030
1C0870
780FF0
6007E0
ENDCHAR
STARTCHAR 2F46
ENCODING 12102
SWIDTH 1000 0
DWIDTH 28 0
BBX 25 23 1 -2
BITMAP
1FFFFE00
1FFFFE00
000C0000
000C0000
000C0000
000C0000
000C0000
7FFFFF80
7FFFFF80
00180000
00180000
001B0000
001B0000
003B0000
00330000
00730000
00630180
00E30180
01C30180
07830180
1E03FF80
FC03FF00
60000000
ENDCHAR
STARTCHAR 2F47
ENCODING 12103
SWIDTH 1000 0
DWIDTH 28 0
BBX 18 22 5 -1
BITMAP
FFFFC0
FFFFC0
C000C0
C000C0
C000C0
C000C0
C000C0
C000C0
C000C0
FFFFC0
FFFFC0
C000C0
C000C0
C000C0
C000C0
C000C0
C000C0
C000C0
FFFFC0
FFFFC0
C000C0
C000C0
ENDCHAR
STARTCHAR 2F48
ENCODING 12104
SWIDTH 1000 0
DWIDTH 28 0
BBX 19 22 5 -1
BITMAP
FFFFE0
FFFFE0
C000E0
C000E0
C000E0
C000E0
C000E0
C000E0
C000E0
FFFCE0
FFFCE0
C000E0
C000E0
C000E0
C000E0
C000E0
C000E0
C000E0
FFFFE0
FFFFE0
C000E0
C000E0
ENDCHAR
STARTCHAR 2F49
ENCODING 12105
SWIDTH 1000 0
DWIDTH 28 0
BBX 19 24 3 -2
BITMAP
0FFFE0
0FFFE0
0C0060
0C0060
0C0060
0C0060
0C0060
0FFFE0
0FFFE0
0C0060
0C0060
0C0060
0C0060
1FFFE0
1FFFE0
1C0060
180060
180060
180060
380060
300060
701060
E01FE0
600FC0
ENDCHAR
STARTCHAR 2F4A
ENCODING 12106
SWIDTH 1000 0
DWIDTH 28 0
BBX 24 24 2 -2
BITMAP
001800
001800
001800
001800
001800
001800
FFFFFF
FFFFFF
003C00
003C00
007E00
00DB00
00DB00
019980
0398C0
071860
0E1838
1C181C
38180F
F01807
E01802
401800
001800
001800
ENDCHAR
STARTCHAR 2F4B
ENCODING 12107
SWIDTH 1000 0
DWIDTH 28 0
BBX 24 25 2 -2
BITMAP
020000
030000
030000
030000
070000
07FFFC
07FFFE
0E180E
0C180C
1C181C
381838
301830
703C70
203C20
003600
007600
006300
00E380
00C1C0
0180E0
078070
0F003C
3C001F
F80006
600002
ENDCHAR
STARTCHAR 2F4C
ENCODING 12108
SWIDTH 1000 0
DWIDTH 28 0
BBX 24 22 2 0
BITMAP
000C00
000C00
000C00
000C00
000C00
000C00
0C0C00
0C0C00
0C0FFC
0C0FFC
0C0C00
0C0C00
0C0C00
0C0C00
0C0C00
0C0C00
0C0C00
0C0C00
0C0C00
0C0C00
FFFFFF
FFFFFF
ENDCHAR
STARTCHAR 2F4D
ENCODING 12109
SWIDTH 1000 0
DWIDTH 28 0
BBX 22 23 3 -2
BITMAP
FFFFFC
FFFFFC
00C000
00C000
01C000
018000
03FFE0
03FFE0
060060
0E00C0
1E00C0
3F8180
71C380
60E300
003E00
001E00
001C00
003800
00F000
01C000
078000
3E0000
380000
ENDCHAR
STARTCHAR 2F4E
ENCODING 12110
SWIDTH 1000 0
DWIDTH 28 0
BBX 23 24 3 -2
BITMAP
07FF00
07FF00
060300
060300
060308
06030E
0E030E
0C030C
3C03FC
F803FC
E00000
000000
7FFFE0
7FFFE0
0601C0
030180
018700
00EE00
007C00
007C00
01EF80
0F83F8
FE007E
F0000C
ENDCHAR
STARTCHAR 2F4F
ENCODING 12111
SWIDTH 1000 0
DWIDTH 28 0
BBX 26 23 1 -2
BITMAP
07FFFC00
07FFFC00
060C0C00
0E0C0C00
0C0C0C00
0C0C0C00
0C0C0C00
0C0C0C00
FFFFFFC0
FFFFFFC0
0C1C0C00
0C180C00
1C180C00
18180C00
18181C00
18181C00
1FFFFF80
1FFFFF80
18001800
38001800
38001800
0003F800
0003F000
ENDCHAR
STARTCHAR 2F50
ENCODING 12112
SWIDTH 1000 0
DWIDTH 28 0
BBX 24 24 2 -2
BITMAP
180600
180600
180600
180600
180600
18060E
18061E
180678
1FE6F0
1FE7C0
180700
180600
180600
180600
180600
180600
180603
180603
182603
19E603
1FC607
FE07FF
F003FE
800000
ENDCHAR
STARTCHAR 2F51
ENCODING 12113
SWIDTH 1000 0
DWIDTH 28 0
BBX 24 23 2 -1
BITMAP
0000F0
000FF0
03FF00
7FF000
383000
003000
003000
003FFC
7FFFF0
7FB000
003000
003000
003007
003FFF
FFFFE0
FF3000
003000
003003
003003
003003
003007
003FFE
001FFC
ENDCHAR
STARTCHAR 2F52
ENCODING 12114
SWIDTH 1000 0
DWIDTH 28 0
BBX 24 23 2 -1
BITMAP
000070
000FF8
0FFF80
1FFC00
180C00
180C00
180C00
180C00
180C00
1FFFFE
1FFFFE
180C00
180600
180600
180600
180300
180302
180183
1839C3
1BF8E7
3FC07E
FE003E
E0001C
ENDCHAR
STARTCHAR 2F53
ENCODING 12115
SWIDTH 1000 0
DWIDTH 28 0
BBX 23 25 3 -2
BITMAP
0E0000
0C0000
0C0000
1FFFF8
1FFFF8
300000
700000
6FFFC0
CFFFC0
C00000
000000
FFFFC0
FFFFC0
0000C0
0000C0
0000C0
0000C0
0000E0
000064
000066
000066
00007E
00003C
00003C
000018
ENDCHAR
STARTCHAR 2F54
ENCODING 12116
SWIDTH 1000 0
DWIDTH 28 0
BBX 24 25 2 -2
BITMAP
001800
001800
001800
001800
00180C
00181C
FF9C38
FF9C70
019CE0
019FC0
019F80
039B00
031B80
031980
0619C0
0618E0
0C1870
1C1838
38181C
70180F
E01807
C01802
001800
01F800
01F800
ENDCHAR
STARTCHAR 2F55
ENCODING 12117
SWIDTH 1000 0
DWIDTH 28 0
BBX 23 25 3 -2
BITMAP
003000
003000
003000
003000
003000
003018
1C301C
1C3038
183030
183070
387860
3078E0
7079C0
606C00
20CC00
00CE00
00C600
018300
038380
0701E0
0E00F0
3C007C
F8001E
E0000C
800000
ENDCHAR
STARTCHAR 2F56
ENCODING 12118
SWIDTH 1000 0
DWIDTH 28 0
BBX 24 24 2 -2
BITMAP
000018
0007FC
0FFFF0
0FF860
0C3860
0C3860
0C3860
0C3860
0C3860
0C3860
0C3860
0C3860
0C3830
1C3830
183830
183838
183818
18381C
30380C
30380E
703806
603807
C03802
403800
ENDCHAR
ENDFONT
